<?xml version="1.0" encoding="UTF-8" standalone="no"?>
<!DOCTYPE svg PUBLIC "-//W3C//DTD SVG 1.1//EN"
 "http://www.w3.org/Graphics/SVG/1.1/DTD/svg11.dtd">
<!-- Generated by graphviz version 2.40.1 (20161225.0304)
 -->
<!-- Title: %3 Pages: 1 -->
<svg width="293pt" height="152pt"
 viewBox="0.00 0.00 293.00 152.00" xmlns="http://www.w3.org/2000/svg" xmlns:xlink="http://www.w3.org/1999/xlink">
<g id="graph0" class="graph" transform="scale(1 1) rotate(0) translate(4 148)">
<title>%3</title>
<polygon fill="#ffffff" stroke="transparent" points="-4,4 -4,-148 289,-148 289,4 -4,4"/>
<!-- g0_edge0 -->
<g id="node1" class="node">
<title>g0_edge0</title>
<text text-anchor="middle" x="256" y="-122.3" font-family="Times,serif" font-size="14.00" fill="#000000">gamma</text>
</g>
<!-- g0_edge1 -->
<g id="node2" class="node">
<title>g0_edge1</title>
<text text-anchor="middle" x="256" y="-68.3" font-family="Times,serif" font-size="14.00" fill="#000000">pi0</text>
</g>
<!-- g0_edge2 -->
<g id="node3" class="node">
<title>g0_edge2</title>
<text text-anchor="middle" x="256" y="-14.3" font-family="Times,serif" font-size="14.00" fill="#000000">pi0</text>
</g>
<!-- g0_edge&#45;1 -->
<g id="node4" class="node">
<title>g0_edge&#45;1</title>
<text text-anchor="middle" x="32.5" y="-95.3" font-family="Times,serif" font-size="14.00" fill="#000000">J/psi(1S)</text>
</g>
<!-- g0_node0 -->
<g id="node5" class="node">
<title>g0_node0</title>
</g>
<!-- g0_edge&#45;1&#45;&gt;g0_node0 -->
<g id="edge1" class="edge">
<title>g0_edge&#45;1&#45;&gt;g0_node0</title>
<path fill="none" stroke="#000000" d="M65.0409,-99C81.0359,-99 97.7193,-99 101.6402,-99"/>
</g>
<!-- g0_node0&#45;&gt;g0_edge0 -->
<g id="edge2" class="edge">
<title>g0_node0&#45;&gt;g0_edge0</title>
<path fill="none" stroke="#000000" d="M103.4007,-99.898C105.9193,-102.3453 113.3525,-109.1395 121,-112 155.7599,-125.0019 198.8482,-127.3045 226.8599,-127.1517"/>
</g>
<!-- g0_node1 -->
<g id="node6" class="node">
<title>g0_node1</title>
</g>
<!-- g0_node0&#45;&gt;g0_node1 -->
<g id="edge5" class="edge">
<title>g0_node0&#45;&gt;g0_node1</title>
<path fill="none" stroke="#000000" d="M103.0556,-98.8276C110.1178,-96.6359 182.2479,-74.2507 188.9945,-72.1569"/>
<text text-anchor="middle" x="146" y="-97.8" font-family="Times,serif" font-size="14.00" fill="#000000">f(0)(980)</text>
</g>
<!-- g0_node1&#45;&gt;g0_edge1 -->
<g id="edge3" class="edge">
<title>g0_node1&#45;&gt;g0_edge1</title>
<path fill="none" stroke="#000000" d="M190.2468,-72C194.9557,-72 220.9098,-72 238.7665,-72"/>
</g>
<!-- g0_node1&#45;&gt;g0_edge2 -->
<g id="edge4" class="edge">
<title>g0_node1&#45;&gt;g0_edge2</title>
<path fill="none" stroke="#000000" d="M190.2468,-71.3936C194.9557,-67.5698 220.9098,-46.4943 238.7665,-31.9941"/>
</g>
</g>
</svg>
