<?xml version="1.0" encoding="UTF-8" standalone="no"?>
<!DOCTYPE svg PUBLIC "-//W3C//DTD SVG 1.1//EN"
 "http://www.w3.org/Graphics/SVG/1.1/DTD/svg11.dtd">
<!-- Generated by graphviz version 2.40.1 (20161225.0304)
 -->
<!-- Title: %3 Pages: 1 -->
<svg width="300pt" height="170pt"
 viewBox="0.00 0.00 300.00 170.00" xmlns="http://www.w3.org/2000/svg" xmlns:xlink="http://www.w3.org/1999/xlink">
<g id="graph0" class="graph" transform="scale(1 1) rotate(0) translate(4 166)">
<title>%3</title>
<polygon fill="#ffffff" stroke="transparent" points="-4,4 -4,-166 296,-166 296,4 -4,4"/>
<!-- g0_edge0 -->
<g id="node1" class="node">
<title>g0_edge0</title>
<text text-anchor="middle" x="263" y="-140.3" font-family="Times,serif" font-size="14.00" fill="#000000">gamma</text>
</g>
<!-- g0_edge1 -->
<g id="node2" class="node">
<title>g0_edge1</title>
<text text-anchor="middle" x="263" y="-68.3" font-family="Times,serif" font-size="14.00" fill="#000000">pi0</text>
</g>
<!-- g0_edge2 -->
<g id="node3" class="node">
<title>g0_edge2</title>
<text text-anchor="middle" x="263" y="-14.3" font-family="Times,serif" font-size="14.00" fill="#000000">pi0</text>
</g>
<!-- g0_edge&#45;1 -->
<g id="node4" class="node">
<title>g0_edge&#45;1</title>
<text text-anchor="middle" x="32.5" y="-95.3" font-family="Times,serif" font-size="14.00" fill="#000000">J/psi(1S)</text>
</g>
<!-- g0_node0 -->
<g id="node5" class="node">
<title>g0_node0</title>
</g>
<!-- g0_edge&#45;1&#45;&gt;g0_node0 -->
<g id="edge1" class="edge">
<title>g0_edge&#45;1&#45;&gt;g0_node0</title>
<path fill="none" stroke="#000000" d="M65.0409,-99C81.0359,-99 97.7193,-99 101.6402,-99"/>
</g>
<!-- g0_node0&#45;&gt;g0_edge0 -->
<g id="edge2" class="edge">
<title>g0_node0&#45;&gt;g0_edge0</title>
<path fill="none" stroke="#000000" d="M103.0464,-101.1241C104.6596,-106.9156 109.9933,-123.0145 121,-130 155.0924,-151.637 203.3386,-151.3964 233.8932,-148.366"/>
</g>
<!-- g0_node1 -->
<g id="node6" class="node">
<title>g0_node1</title>
</g>
<!-- g0_node0&#45;&gt;g0_node1 -->
<g id="edge5" class="edge">
<title>g0_node0&#45;&gt;g0_node1</title>
<path fill="none" stroke="#000000" d="M103.0262,-92.8618C104.2441,-82.938 108.2185,-63.6138 121,-55 147.0894,-37.4176 190.6186,-51.9233 195.9578,-53.8052"/>
<text text-anchor="middle" x="149.5" y="-118.8" font-family="Times,serif" font-size="14.00" fill="#000000">f(0)(1370)</text>
<text text-anchor="middle" x="149.5" y="-103.8" font-family="Times,serif" font-size="14.00" fill="#000000">f(0)(1500)</text>
<text text-anchor="middle" x="149.5" y="-88.8" font-family="Times,serif" font-size="14.00" fill="#000000">f(0)(1710)</text>
<text text-anchor="middle" x="149.5" y="-73.8" font-family="Times,serif" font-size="14.00" fill="#000000">f(0)(500)</text>
<text text-anchor="middle" x="149.5" y="-58.8" font-family="Times,serif" font-size="14.00" fill="#000000">f(0)(980)</text>
</g>
<!-- g0_node1&#45;&gt;g0_edge1 -->
<g id="edge3" class="edge">
<title>g0_node1&#45;&gt;g0_edge1</title>
<path fill="none" stroke="#000000" d="M197.2468,-54.2021C201.9557,-55.4767 227.9098,-62.5019 245.7665,-67.3353"/>
</g>
<!-- g0_node1&#45;&gt;g0_edge2 -->
<g id="edge4" class="edge">
<title>g0_node1&#45;&gt;g0_edge2</title>
<path fill="none" stroke="#000000" d="M197.2468,-53.5957C201.9557,-51.0465 227.9098,-36.9962 245.7665,-27.3294"/>
</g>
</g>
</svg>
