<?xml version="1.0" encoding="utf-8" standalone="no"?>
<!DOCTYPE svg PUBLIC "-//W3C//DTD SVG 1.1//EN"
  "http://www.w3.org/Graphics/SVG/1.1/DTD/svg11.dtd">
<svg xmlns:xlink="http://www.w3.org/1999/xlink" width="360pt" height="540pt" viewBox="0 0 360 540" xmlns="http://www.w3.org/2000/svg" version="1.1">
 <metadata>
  <rdf:RDF xmlns:dc="http://purl.org/dc/elements/1.1/" xmlns:cc="http://creativecommons.org/ns#" xmlns:rdf="http://www.w3.org/1999/02/22-rdf-syntax-ns#">
   <cc:Work>
    <dc:type rdf:resource="http://purl.org/dc/dcmitype/StillImage"/>
    <dc:date>2022-04-05T13:03:45.390105</dc:date>
    <dc:format>image/svg+xml</dc:format>
    <dc:creator>
     <cc:Agent>
      <dc:title>Matplotlib v3.5.1, https://matplotlib.org/</dc:title>
     </cc:Agent>
    </dc:creator>
   </cc:Work>
  </rdf:RDF>
 </metadata>
 <defs>
  <style type="text/css">*{stroke-linejoin: round; stroke-linecap: butt}</style>
 </defs>
 <g id="figure_1">
  <g id="patch_1">
   <path d="M 0 540 
L 360 540 
L 360 0 
L 0 0 
z
" style="fill: #ffffff"/>
  </g>
  <g id="axes_1">
   <g id="patch_2">
    <path d="M 55.760938 178.633958 
L 349.2 178.633958 
L 349.2 48.358125 
L 55.760938 48.358125 
z
" style="fill: #ffffff"/>
   </g>
   <g id="matplotlib.axis_1">
    <g id="xtick_1">
     <g id="line2d_1">
      <defs>
       <path id="m10eb1351fe" d="M 0 0 
L 0 3.5 
" style="stroke: #000000; stroke-width: 0.8"/>
      </defs>
      <g>
       <use xlink:href="#m10eb1351fe" x="60.493826" y="178.633958" style="stroke: #000000; stroke-width: 0.8"/>
      </g>
     </g>
    </g>
    <g id="xtick_2">
     <g id="line2d_2">
      <g>
       <use xlink:href="#m10eb1351fe" x="94.91483" y="178.633958" style="stroke: #000000; stroke-width: 0.8"/>
      </g>
     </g>
    </g>
    <g id="xtick_3">
     <g id="line2d_3">
      <g>
       <use xlink:href="#m10eb1351fe" x="129.335834" y="178.633958" style="stroke: #000000; stroke-width: 0.8"/>
      </g>
     </g>
    </g>
    <g id="xtick_4">
     <g id="line2d_4">
      <g>
       <use xlink:href="#m10eb1351fe" x="163.756839" y="178.633958" style="stroke: #000000; stroke-width: 0.8"/>
      </g>
     </g>
    </g>
    <g id="xtick_5">
     <g id="line2d_5">
      <g>
       <use xlink:href="#m10eb1351fe" x="198.177843" y="178.633958" style="stroke: #000000; stroke-width: 0.8"/>
      </g>
     </g>
    </g>
    <g id="xtick_6">
     <g id="line2d_6">
      <g>
       <use xlink:href="#m10eb1351fe" x="232.598848" y="178.633958" style="stroke: #000000; stroke-width: 0.8"/>
      </g>
     </g>
    </g>
    <g id="xtick_7">
     <g id="line2d_7">
      <g>
       <use xlink:href="#m10eb1351fe" x="267.019852" y="178.633958" style="stroke: #000000; stroke-width: 0.8"/>
      </g>
     </g>
    </g>
    <g id="xtick_8">
     <g id="line2d_8">
      <g>
       <use xlink:href="#m10eb1351fe" x="301.440856" y="178.633958" style="stroke: #000000; stroke-width: 0.8"/>
      </g>
     </g>
    </g>
    <g id="xtick_9">
     <g id="line2d_9">
      <g>
       <use xlink:href="#m10eb1351fe" x="335.861861" y="178.633958" style="stroke: #000000; stroke-width: 0.8"/>
      </g>
     </g>
    </g>
   </g>
   <g id="matplotlib.axis_2">
    <g id="ytick_1">
     <g id="line2d_10">
      <defs>
       <path id="mcf5c302af7" d="M 0 0 
L -3.5 0 
" style="stroke: #000000; stroke-width: 0.8"/>
      </defs>
      <g>
       <use xlink:href="#mcf5c302af7" x="55.760938" y="157.117577" style="stroke: #000000; stroke-width: 0.8"/>
      </g>
     </g>
     <g id="text_1">
      <!-- −0.1 -->
      <g transform="translate(24.478125 160.916796)scale(0.1 -0.1)">
       <defs>
        <path id="DejaVuSans-2212" d="M 678 2272 
L 4684 2272 
L 4684 1741 
L 678 1741 
L 678 2272 
z
" transform="scale(0.015625)"/>
        <path id="DejaVuSans-30" d="M 2034 4250 
Q 1547 4250 1301 3770 
Q 1056 3291 1056 2328 
Q 1056 1369 1301 889 
Q 1547 409 2034 409 
Q 2525 409 2770 889 
Q 3016 1369 3016 2328 
Q 3016 3291 2770 3770 
Q 2525 4250 2034 4250 
z
M 2034 4750 
Q 2819 4750 3233 4129 
Q 3647 3509 3647 2328 
Q 3647 1150 3233 529 
Q 2819 -91 2034 -91 
Q 1250 -91 836 529 
Q 422 1150 422 2328 
Q 422 3509 836 4129 
Q 1250 4750 2034 4750 
z
" transform="scale(0.015625)"/>
        <path id="DejaVuSans-2e" d="M 684 794 
L 1344 794 
L 1344 0 
L 684 0 
L 684 794 
z
" transform="scale(0.015625)"/>
        <path id="DejaVuSans-31" d="M 794 531 
L 1825 531 
L 1825 4091 
L 703 3866 
L 703 4441 
L 1819 4666 
L 2450 4666 
L 2450 531 
L 3481 531 
L 3481 0 
L 794 0 
L 794 531 
z
" transform="scale(0.015625)"/>
       </defs>
       <use xlink:href="#DejaVuSans-2212"/>
       <use xlink:href="#DejaVuSans-30" x="83.789062"/>
       <use xlink:href="#DejaVuSans-2e" x="147.412109"/>
       <use xlink:href="#DejaVuSans-31" x="179.199219"/>
      </g>
     </g>
    </g>
    <g id="ytick_2">
     <g id="line2d_11">
      <g>
       <use xlink:href="#mcf5c302af7" x="55.760938" y="128.572218" style="stroke: #000000; stroke-width: 0.8"/>
      </g>
     </g>
     <g id="text_2">
      <!-- 0.0 -->
      <g transform="translate(32.857813 132.371437)scale(0.1 -0.1)">
       <use xlink:href="#DejaVuSans-30"/>
       <use xlink:href="#DejaVuSans-2e" x="63.623047"/>
       <use xlink:href="#DejaVuSans-30" x="95.410156"/>
      </g>
     </g>
    </g>
    <g id="ytick_3">
     <g id="line2d_12">
      <g>
       <use xlink:href="#mcf5c302af7" x="55.760938" y="100.026859" style="stroke: #000000; stroke-width: 0.8"/>
      </g>
     </g>
     <g id="text_3">
      <!-- 0.1 -->
      <g transform="translate(32.857813 103.826078)scale(0.1 -0.1)">
       <use xlink:href="#DejaVuSans-30"/>
       <use xlink:href="#DejaVuSans-2e" x="63.623047"/>
       <use xlink:href="#DejaVuSans-31" x="95.410156"/>
      </g>
     </g>
    </g>
    <g id="ytick_4">
     <g id="line2d_13">
      <g>
       <use xlink:href="#mcf5c302af7" x="55.760938" y="71.4815" style="stroke: #000000; stroke-width: 0.8"/>
      </g>
     </g>
     <g id="text_4">
      <!-- 0.2 -->
      <g transform="translate(32.857813 75.280719)scale(0.1 -0.1)">
       <defs>
        <path id="DejaVuSans-32" d="M 1228 531 
L 3431 531 
L 3431 0 
L 469 0 
L 469 531 
Q 828 903 1448 1529 
Q 2069 2156 2228 2338 
Q 2531 2678 2651 2914 
Q 2772 3150 2772 3378 
Q 2772 3750 2511 3984 
Q 2250 4219 1831 4219 
Q 1534 4219 1204 4116 
Q 875 4013 500 3803 
L 500 4441 
Q 881 4594 1212 4672 
Q 1544 4750 1819 4750 
Q 2544 4750 2975 4387 
Q 3406 4025 3406 3419 
Q 3406 3131 3298 2873 
Q 3191 2616 2906 2266 
Q 2828 2175 2409 1742 
Q 1991 1309 1228 531 
z
" transform="scale(0.015625)"/>
       </defs>
       <use xlink:href="#DejaVuSans-30"/>
       <use xlink:href="#DejaVuSans-2e" x="63.623047"/>
       <use xlink:href="#DejaVuSans-32" x="95.410156"/>
      </g>
     </g>
    </g>
    <g id="text_5">
     <!-- $16\pi \; \Sigma(s)$ -->
     <g transform="translate(18.398438 133.896042)rotate(-90)scale(0.1 -0.1)">
      <defs>
       <path id="DejaVuSans-36" d="M 2113 2584 
Q 1688 2584 1439 2293 
Q 1191 2003 1191 1497 
Q 1191 994 1439 701 
Q 1688 409 2113 409 
Q 2538 409 2786 701 
Q 3034 994 3034 1497 
Q 3034 2003 2786 2293 
Q 2538 2584 2113 2584 
z
M 3366 4563 
L 3366 3988 
Q 3128 4100 2886 4159 
Q 2644 4219 2406 4219 
Q 1781 4219 1451 3797 
Q 1122 3375 1075 2522 
Q 1259 2794 1537 2939 
Q 1816 3084 2150 3084 
Q 2853 3084 3261 2657 
Q 3669 2231 3669 1497 
Q 3669 778 3244 343 
Q 2819 -91 2113 -91 
Q 1303 -91 875 529 
Q 447 1150 447 2328 
Q 447 3434 972 4092 
Q 1497 4750 2381 4750 
Q 2619 4750 2861 4703 
Q 3103 4656 3366 4563 
z
" transform="scale(0.015625)"/>
       <path id="DejaVuSans-Oblique-3c0" d="M 584 3500 
L 3938 3500 
L 3825 2925 
L 3384 2925 
L 2966 775 
Q 2922 550 2981 450 
Q 3038 353 3209 353 
Q 3256 353 3325 363 
Q 3397 369 3419 372 
L 3338 -44 
Q 3222 -84 3103 -103 
Q 2981 -122 2866 -122 
Q 2491 -122 2388 81 
Q 2284 288 2391 838 
L 2797 2925 
L 1506 2925 
L 938 0 
L 350 0 
L 919 2925 
L 472 2925 
L 584 3500 
z
" transform="scale(0.015625)"/>
       <path id="DejaVuSans-3a3" d="M 1353 531 
L 3634 531 
L 3634 0 
L 628 0 
L 628 531 
L 2125 2481 
L 628 4134 
L 628 4666 
L 3578 4666 
L 3578 4134 
L 1353 4134 
L 2850 2494 
L 1353 531 
z
" transform="scale(0.015625)"/>
       <path id="DejaVuSans-28" d="M 1984 4856 
Q 1566 4138 1362 3434 
Q 1159 2731 1159 2009 
Q 1159 1288 1364 580 
Q 1569 -128 1984 -844 
L 1484 -844 
Q 1016 -109 783 600 
Q 550 1309 550 2009 
Q 550 2706 781 3412 
Q 1013 4119 1484 4856 
L 1984 4856 
z
" transform="scale(0.015625)"/>
       <path id="DejaVuSans-Oblique-73" d="M 3200 3397 
L 3091 2853 
Q 2863 2978 2609 3040 
Q 2356 3103 2088 3103 
Q 1634 3103 1373 2948 
Q 1113 2794 1113 2528 
Q 1113 2219 1719 2053 
Q 1766 2041 1788 2034 
L 1972 1978 
Q 2547 1819 2739 1644 
Q 2931 1469 2931 1166 
Q 2931 609 2489 259 
Q 2047 -91 1331 -91 
Q 1053 -91 747 -37 
Q 441 16 72 128 
L 184 722 
Q 500 559 806 475 
Q 1113 391 1394 391 
Q 1816 391 2080 572 
Q 2344 753 2344 1031 
Q 2344 1331 1650 1516 
L 1591 1531 
L 1394 1581 
Q 956 1697 753 1886 
Q 550 2075 550 2369 
Q 550 2928 970 3256 
Q 1391 3584 2113 3584 
Q 2397 3584 2667 3537 
Q 2938 3491 3200 3397 
z
" transform="scale(0.015625)"/>
       <path id="DejaVuSans-29" d="M 513 4856 
L 1013 4856 
Q 1481 4119 1714 3412 
Q 1947 2706 1947 2009 
Q 1947 1309 1714 600 
Q 1481 -109 1013 -844 
L 513 -844 
Q 928 -128 1133 580 
Q 1338 1288 1338 2009 
Q 1338 2731 1133 3434 
Q 928 4138 513 4856 
z
" transform="scale(0.015625)"/>
      </defs>
      <use xlink:href="#DejaVuSans-31" transform="translate(0 0.125)"/>
      <use xlink:href="#DejaVuSans-36" transform="translate(63.623047 0.125)"/>
      <use xlink:href="#DejaVuSans-Oblique-3c0" transform="translate(127.246094 0.125)"/>
      <use xlink:href="#DejaVuSans-3a3" transform="translate(214.510308 0.125)"/>
      <use xlink:href="#DejaVuSans-28" transform="translate(277.693901 0.125)"/>
      <use xlink:href="#DejaVuSans-Oblique-73" transform="translate(316.707573 0.125)"/>
      <use xlink:href="#DejaVuSans-29" transform="translate(368.807183 0.125)"/>
     </g>
    </g>
   </g>
   <g id="line2d_14">
    <path d="M 55.760938 128.572218 
L 349.2 128.572218 
" clip-path="url(#p0a30833a9a)" style="fill: none; stroke: #000000; stroke-width: 0.5; stroke-linecap: square"/>
   </g>
   <g id="line2d_15">
    <path d="M 175.162037 178.633958 
L 175.162037 48.358125 
" clip-path="url(#p0a30833a9a)" style="fill: none; stroke: #808080; stroke-width: 0.5; stroke-linecap: square"/>
   </g>
   <g id="line2d_16">
    <path d="M 69.099077 172.71233 
L 74.543215 171.004312 
L 79.987354 169.262036 
L 85.431492 167.483498 
L 90.875631 165.666473 
L 96.319769 163.808476 
L 101.763907 161.906711 
L 107.208046 159.958015 
L 112.652184 157.958775 
L 118.096323 155.904826 
L 123.540461 153.791313 
L 128.9846 151.6125 
L 134.428738 149.3615 
L 139.872877 147.029879 
L 145.317015 144.607045 
L 150.761153 142.079248 
L 156.205292 139.427806 
L 161.64943 136.625564 
L 167.093569 133.628341 
L 172.537707 130.344705 
L 177.981846 126.482212 
L 183.425984 122.512378 
L 188.870123 118.658323 
L 194.314261 114.937104 
L 199.7584 111.358371 
L 205.202538 107.926908 
L 210.646676 104.644148 
L 216.090815 101.509235 
L 221.534953 98.51975 
L 226.979092 95.672207 
L 232.42323 92.962468 
L 237.867369 90.385955 
L 243.311507 87.937861 
L 248.755646 85.613283 
L 254.199784 83.407306 
L 259.643922 81.315078 
L 265.088061 79.331855 
L 270.532199 77.453015 
L 275.976338 75.674113 
L 281.420476 73.990846 
L 286.864615 72.39911 
L 292.308753 70.894958 
L 297.752892 69.474626 
L 303.19703 68.13451 
L 308.641169 66.871178 
L 314.085307 65.681379 
L 319.529445 64.561983 
L 324.973584 63.510027 
L 330.417722 62.522687 
L 335.861861 61.597279 
" clip-path="url(#p0a30833a9a)" style="fill: none; stroke-dasharray: 5.55,2.4; stroke-dashoffset: 0; stroke: #000000; stroke-width: 1.5"/>
   </g>
   <g id="line2d_17">
    <path d="M 69.099077 128.590369 
L 74.543215 128.59027 
L 79.987354 128.590157 
L 85.431492 128.59003 
L 90.875631 128.589886 
L 96.319769 128.589722 
L 101.763907 128.589537 
L 107.208046 128.589325 
L 112.652184 128.589084 
L 118.096323 128.588806 
L 123.540461 128.588484 
L 128.9846 128.58811 
L 134.428738 128.587671 
L 139.872877 128.587148 
L 145.317015 128.586516 
L 150.761153 128.585737 
L 156.205292 128.584745 
L 161.64943 128.583424 
L 167.093569 128.581509 
L 172.537707 128.578062 
L 177.981846 128.349298 
L 183.425984 127.439172 
L 188.870123 126.133862 
L 194.314261 124.533198 
L 199.7584 122.695387 
L 205.202538 120.662353 
L 210.646676 118.46683 
L 216.090815 116.13539 
L 221.534953 113.690079 
L 226.979092 111.149437 
L 232.42323 108.529198 
L 237.867369 105.842814 
L 243.311507 103.101838 
L 248.755646 100.31624 
L 254.199784 97.494645 
L 259.643922 94.644557 
L 265.088061 91.772498 
L 270.532199 88.884172 
L 275.976338 85.984545 
L 281.420476 83.077982 
L 286.864615 80.168301 
L 292.308753 77.258857 
L 297.752892 74.352591 
L 303.19703 71.452094 
L 308.641169 68.55963 
L 314.085307 65.677206 
L 319.529445 62.806556 
L 324.973584 59.949229 
L 330.417722 57.10657 
L 335.861861 54.279754 
" clip-path="url(#p0a30833a9a)" style="fill: none; stroke: #ff0000; stroke-width: 1.5; stroke-linecap: square"/>
   </g>
   <g id="patch_3">
    <path d="M 55.760938 178.633958 
L 55.760938 48.358125 
" style="fill: none; stroke: #000000; stroke-width: 0.8; stroke-linejoin: miter; stroke-linecap: square"/>
   </g>
   <g id="patch_4">
    <path d="M 349.2 178.633958 
L 349.2 48.358125 
" style="fill: none; stroke: #000000; stroke-width: 0.8; stroke-linejoin: miter; stroke-linecap: square"/>
   </g>
   <g id="patch_5">
    <path d="M 55.760938 178.633958 
L 349.2 178.633958 
" style="fill: none; stroke: #000000; stroke-width: 0.8; stroke-linejoin: miter; stroke-linecap: square"/>
   </g>
   <g id="patch_6">
    <path d="M 55.760938 48.358125 
L 349.2 48.358125 
" style="fill: none; stroke: #000000; stroke-width: 0.8; stroke-linejoin: miter; stroke-linecap: square"/>
   </g>
   <g id="text_6">
    <!-- $L = 1$ -->
    <g transform="translate(187.900469 42.358125)scale(0.12 -0.12)">
     <defs>
      <path id="DejaVuSans-Oblique-4c" d="M 1075 4666 
L 1709 4666 
L 909 525 
L 3181 525 
L 3078 0 
L 172 0 
L 1075 4666 
z
" transform="scale(0.015625)"/>
      <path id="DejaVuSans-3d" d="M 678 2906 
L 4684 2906 
L 4684 2381 
L 678 2381 
L 678 2906 
z
M 678 1631 
L 4684 1631 
L 4684 1100 
L 678 1100 
L 678 1631 
z
" transform="scale(0.015625)"/>
     </defs>
     <use xlink:href="#DejaVuSans-Oblique-4c" transform="translate(0 0.09375)"/>
     <use xlink:href="#DejaVuSans-3d" transform="translate(75.195312 0.09375)"/>
     <use xlink:href="#DejaVuSans-31" transform="translate(178.466797 0.09375)"/>
    </g>
   </g>
   <g id="legend_1">
    <g id="patch_7">
     <path d="M 62.760938 100.3925 
L 143.614063 100.3925 
Q 145.614063 100.3925 145.614063 98.3925 
L 145.614063 55.358125 
Q 145.614063 53.358125 143.614063 53.358125 
L 62.760938 53.358125 
Q 60.760938 53.358125 60.760938 55.358125 
L 60.760938 98.3925 
Q 60.760938 100.3925 62.760938 100.3925 
z
" style="fill: #ffffff; opacity: 0.8; stroke: #cccccc; stroke-linejoin: miter"/>
    </g>
    <g id="line2d_18">
     <path d="M 64.760938 61.456563 
L 74.760938 61.456563 
L 84.760938 61.456563 
" style="fill: none; stroke: #808080; stroke-width: 0.5; stroke-linecap: square"/>
    </g>
    <g id="text_7">
     <!-- $s_\mathrm{thr}$ -->
     <g transform="translate(92.760938 64.956563)scale(0.1 -0.1)">
      <defs>
       <path id="DejaVuSans-74" d="M 1172 4494 
L 1172 3500 
L 2356 3500 
L 2356 3053 
L 1172 3053 
L 1172 1153 
Q 1172 725 1289 603 
Q 1406 481 1766 481 
L 2356 481 
L 2356 0 
L 1766 0 
Q 1100 0 847 248 
Q 594 497 594 1153 
L 594 3053 
L 172 3053 
L 172 3500 
L 594 3500 
L 594 4494 
L 1172 4494 
z
" transform="scale(0.015625)"/>
       <path id="DejaVuSans-68" d="M 3513 2113 
L 3513 0 
L 2938 0 
L 2938 2094 
Q 2938 2591 2744 2837 
Q 2550 3084 2163 3084 
Q 1697 3084 1428 2787 
Q 1159 2491 1159 1978 
L 1159 0 
L 581 0 
L 581 4863 
L 1159 4863 
L 1159 2956 
Q 1366 3272 1645 3428 
Q 1925 3584 2291 3584 
Q 2894 3584 3203 3211 
Q 3513 2838 3513 2113 
z
" transform="scale(0.015625)"/>
       <path id="DejaVuSans-72" d="M 2631 2963 
Q 2534 3019 2420 3045 
Q 2306 3072 2169 3072 
Q 1681 3072 1420 2755 
Q 1159 2438 1159 1844 
L 1159 0 
L 581 0 
L 581 3500 
L 1159 3500 
L 1159 2956 
Q 1341 3275 1631 3429 
Q 1922 3584 2338 3584 
Q 2397 3584 2469 3576 
Q 2541 3569 2628 3553 
L 2631 2963 
z
" transform="scale(0.015625)"/>
      </defs>
      <use xlink:href="#DejaVuSans-Oblique-73"/>
      <use xlink:href="#DejaVuSans-74" transform="translate(52.099609 -16.40625)scale(0.7)"/>
      <use xlink:href="#DejaVuSans-68" transform="translate(79.545898 -16.40625)scale(0.7)"/>
      <use xlink:href="#DejaVuSans-72" transform="translate(123.911133 -16.40625)scale(0.7)"/>
     </g>
    </g>
    <g id="line2d_19">
     <path d="M 64.760938 76.134688 
L 74.760938 76.134688 
L 84.760938 76.134688 
" style="fill: none; stroke-dasharray: 5.55,2.4; stroke-dashoffset: 0; stroke: #000000; stroke-width: 1.5"/>
    </g>
    <g id="text_8">
     <!-- Real part -->
     <g transform="translate(92.760938 79.634688)scale(0.1 -0.1)">
      <defs>
       <path id="DejaVuSans-52" d="M 2841 2188 
Q 3044 2119 3236 1894 
Q 3428 1669 3622 1275 
L 4263 0 
L 3584 0 
L 2988 1197 
Q 2756 1666 2539 1819 
Q 2322 1972 1947 1972 
L 1259 1972 
L 1259 0 
L 628 0 
L 628 4666 
L 2053 4666 
Q 2853 4666 3247 4331 
Q 3641 3997 3641 3322 
Q 3641 2881 3436 2590 
Q 3231 2300 2841 2188 
z
M 1259 4147 
L 1259 2491 
L 2053 2491 
Q 2509 2491 2742 2702 
Q 2975 2913 2975 3322 
Q 2975 3731 2742 3939 
Q 2509 4147 2053 4147 
L 1259 4147 
z
" transform="scale(0.015625)"/>
       <path id="DejaVuSans-65" d="M 3597 1894 
L 3597 1613 
L 953 1613 
Q 991 1019 1311 708 
Q 1631 397 2203 397 
Q 2534 397 2845 478 
Q 3156 559 3463 722 
L 3463 178 
Q 3153 47 2828 -22 
Q 2503 -91 2169 -91 
Q 1331 -91 842 396 
Q 353 884 353 1716 
Q 353 2575 817 3079 
Q 1281 3584 2069 3584 
Q 2775 3584 3186 3129 
Q 3597 2675 3597 1894 
z
M 3022 2063 
Q 3016 2534 2758 2815 
Q 2500 3097 2075 3097 
Q 1594 3097 1305 2825 
Q 1016 2553 972 2059 
L 3022 2063 
z
" transform="scale(0.015625)"/>
       <path id="DejaVuSans-61" d="M 2194 1759 
Q 1497 1759 1228 1600 
Q 959 1441 959 1056 
Q 959 750 1161 570 
Q 1363 391 1709 391 
Q 2188 391 2477 730 
Q 2766 1069 2766 1631 
L 2766 1759 
L 2194 1759 
z
M 3341 1997 
L 3341 0 
L 2766 0 
L 2766 531 
Q 2569 213 2275 61 
Q 1981 -91 1556 -91 
Q 1019 -91 701 211 
Q 384 513 384 1019 
Q 384 1609 779 1909 
Q 1175 2209 1959 2209 
L 2766 2209 
L 2766 2266 
Q 2766 2663 2505 2880 
Q 2244 3097 1772 3097 
Q 1472 3097 1187 3025 
Q 903 2953 641 2809 
L 641 3341 
Q 956 3463 1253 3523 
Q 1550 3584 1831 3584 
Q 2591 3584 2966 3190 
Q 3341 2797 3341 1997 
z
" transform="scale(0.015625)"/>
       <path id="DejaVuSans-6c" d="M 603 4863 
L 1178 4863 
L 1178 0 
L 603 0 
L 603 4863 
z
" transform="scale(0.015625)"/>
       <path id="DejaVuSans-20" transform="scale(0.015625)"/>
       <path id="DejaVuSans-70" d="M 1159 525 
L 1159 -1331 
L 581 -1331 
L 581 3500 
L 1159 3500 
L 1159 2969 
Q 1341 3281 1617 3432 
Q 1894 3584 2278 3584 
Q 2916 3584 3314 3078 
Q 3713 2572 3713 1747 
Q 3713 922 3314 415 
Q 2916 -91 2278 -91 
Q 1894 -91 1617 61 
Q 1341 213 1159 525 
z
M 3116 1747 
Q 3116 2381 2855 2742 
Q 2594 3103 2138 3103 
Q 1681 3103 1420 2742 
Q 1159 2381 1159 1747 
Q 1159 1113 1420 752 
Q 1681 391 2138 391 
Q 2594 391 2855 752 
Q 3116 1113 3116 1747 
z
" transform="scale(0.015625)"/>
      </defs>
      <use xlink:href="#DejaVuSans-52"/>
      <use xlink:href="#DejaVuSans-65" x="64.982422"/>
      <use xlink:href="#DejaVuSans-61" x="126.505859"/>
      <use xlink:href="#DejaVuSans-6c" x="187.785156"/>
      <use xlink:href="#DejaVuSans-20" x="215.568359"/>
      <use xlink:href="#DejaVuSans-70" x="247.355469"/>
      <use xlink:href="#DejaVuSans-61" x="310.832031"/>
      <use xlink:href="#DejaVuSans-72" x="372.111328"/>
      <use xlink:href="#DejaVuSans-74" x="413.224609"/>
     </g>
    </g>
    <g id="line2d_20">
     <path d="M 64.760938 90.812813 
L 74.760938 90.812813 
L 84.760938 90.812813 
" style="fill: none; stroke: #ff0000; stroke-width: 1.5; stroke-linecap: square"/>
    </g>
    <g id="text_9">
     <!-- Imag part -->
     <g transform="translate(92.760938 94.312813)scale(0.1 -0.1)">
      <defs>
       <path id="DejaVuSans-49" d="M 628 4666 
L 1259 4666 
L 1259 0 
L 628 0 
L 628 4666 
z
" transform="scale(0.015625)"/>
       <path id="DejaVuSans-6d" d="M 3328 2828 
Q 3544 3216 3844 3400 
Q 4144 3584 4550 3584 
Q 5097 3584 5394 3201 
Q 5691 2819 5691 2113 
L 5691 0 
L 5113 0 
L 5113 2094 
Q 5113 2597 4934 2840 
Q 4756 3084 4391 3084 
Q 3944 3084 3684 2787 
Q 3425 2491 3425 1978 
L 3425 0 
L 2847 0 
L 2847 2094 
Q 2847 2600 2669 2842 
Q 2491 3084 2119 3084 
Q 1678 3084 1418 2786 
Q 1159 2488 1159 1978 
L 1159 0 
L 581 0 
L 581 3500 
L 1159 3500 
L 1159 2956 
Q 1356 3278 1631 3431 
Q 1906 3584 2284 3584 
Q 2666 3584 2933 3390 
Q 3200 3197 3328 2828 
z
" transform="scale(0.015625)"/>
       <path id="DejaVuSans-67" d="M 2906 1791 
Q 2906 2416 2648 2759 
Q 2391 3103 1925 3103 
Q 1463 3103 1205 2759 
Q 947 2416 947 1791 
Q 947 1169 1205 825 
Q 1463 481 1925 481 
Q 2391 481 2648 825 
Q 2906 1169 2906 1791 
z
M 3481 434 
Q 3481 -459 3084 -895 
Q 2688 -1331 1869 -1331 
Q 1566 -1331 1297 -1286 
Q 1028 -1241 775 -1147 
L 775 -588 
Q 1028 -725 1275 -790 
Q 1522 -856 1778 -856 
Q 2344 -856 2625 -561 
Q 2906 -266 2906 331 
L 2906 616 
Q 2728 306 2450 153 
Q 2172 0 1784 0 
Q 1141 0 747 490 
Q 353 981 353 1791 
Q 353 2603 747 3093 
Q 1141 3584 1784 3584 
Q 2172 3584 2450 3431 
Q 2728 3278 2906 2969 
L 2906 3500 
L 3481 3500 
L 3481 434 
z
" transform="scale(0.015625)"/>
      </defs>
      <use xlink:href="#DejaVuSans-49"/>
      <use xlink:href="#DejaVuSans-6d" x="29.492188"/>
      <use xlink:href="#DejaVuSans-61" x="126.904297"/>
      <use xlink:href="#DejaVuSans-67" x="188.183594"/>
      <use xlink:href="#DejaVuSans-20" x="251.660156"/>
      <use xlink:href="#DejaVuSans-70" x="283.447266"/>
      <use xlink:href="#DejaVuSans-61" x="346.923828"/>
      <use xlink:href="#DejaVuSans-72" x="408.203125"/>
      <use xlink:href="#DejaVuSans-74" x="449.316406"/>
     </g>
    </g>
   </g>
  </g>
  <g id="axes_2">
   <g id="patch_8">
    <path d="M 55.760938 338.327917 
L 349.2 338.327917 
L 349.2 208.052083 
L 55.760938 208.052083 
z
" style="fill: #ffffff"/>
   </g>
   <g id="matplotlib.axis_3">
    <g id="xtick_10">
     <g id="line2d_21">
      <g>
       <use xlink:href="#m10eb1351fe" x="60.493826" y="338.327917" style="stroke: #000000; stroke-width: 0.8"/>
      </g>
     </g>
    </g>
    <g id="xtick_11">
     <g id="line2d_22">
      <g>
       <use xlink:href="#m10eb1351fe" x="94.91483" y="338.327917" style="stroke: #000000; stroke-width: 0.8"/>
      </g>
     </g>
    </g>
    <g id="xtick_12">
     <g id="line2d_23">
      <g>
       <use xlink:href="#m10eb1351fe" x="129.335834" y="338.327917" style="stroke: #000000; stroke-width: 0.8"/>
      </g>
     </g>
    </g>
    <g id="xtick_13">
     <g id="line2d_24">
      <g>
       <use xlink:href="#m10eb1351fe" x="163.756839" y="338.327917" style="stroke: #000000; stroke-width: 0.8"/>
      </g>
     </g>
    </g>
    <g id="xtick_14">
     <g id="line2d_25">
      <g>
       <use xlink:href="#m10eb1351fe" x="198.177843" y="338.327917" style="stroke: #000000; stroke-width: 0.8"/>
      </g>
     </g>
    </g>
    <g id="xtick_15">
     <g id="line2d_26">
      <g>
       <use xlink:href="#m10eb1351fe" x="232.598848" y="338.327917" style="stroke: #000000; stroke-width: 0.8"/>
      </g>
     </g>
    </g>
    <g id="xtick_16">
     <g id="line2d_27">
      <g>
       <use xlink:href="#m10eb1351fe" x="267.019852" y="338.327917" style="stroke: #000000; stroke-width: 0.8"/>
      </g>
     </g>
    </g>
    <g id="xtick_17">
     <g id="line2d_28">
      <g>
       <use xlink:href="#m10eb1351fe" x="301.440856" y="338.327917" style="stroke: #000000; stroke-width: 0.8"/>
      </g>
     </g>
    </g>
    <g id="xtick_18">
     <g id="line2d_29">
      <g>
       <use xlink:href="#m10eb1351fe" x="335.861861" y="338.327917" style="stroke: #000000; stroke-width: 0.8"/>
      </g>
     </g>
    </g>
   </g>
   <g id="matplotlib.axis_4">
    <g id="ytick_5">
     <g id="line2d_30">
      <g>
       <use xlink:href="#mcf5c302af7" x="55.760938" y="330.086334" style="stroke: #000000; stroke-width: 0.8"/>
      </g>
     </g>
     <g id="text_10">
      <!-- −0.2 -->
      <g transform="translate(24.478125 333.885553)scale(0.1 -0.1)">
       <use xlink:href="#DejaVuSans-2212"/>
       <use xlink:href="#DejaVuSans-30" x="83.789062"/>
       <use xlink:href="#DejaVuSans-2e" x="147.412109"/>
       <use xlink:href="#DejaVuSans-32" x="179.199219"/>
      </g>
     </g>
    </g>
    <g id="ytick_6">
     <g id="line2d_31">
      <g>
       <use xlink:href="#mcf5c302af7" x="55.760938" y="291.408198" style="stroke: #000000; stroke-width: 0.8"/>
      </g>
     </g>
     <g id="text_11">
      <!-- 0.0 -->
      <g transform="translate(32.857813 295.207417)scale(0.1 -0.1)">
       <use xlink:href="#DejaVuSans-30"/>
       <use xlink:href="#DejaVuSans-2e" x="63.623047"/>
       <use xlink:href="#DejaVuSans-30" x="95.410156"/>
      </g>
     </g>
    </g>
    <g id="ytick_7">
     <g id="line2d_32">
      <g>
       <use xlink:href="#mcf5c302af7" x="55.760938" y="252.730062" style="stroke: #000000; stroke-width: 0.8"/>
      </g>
     </g>
     <g id="text_12">
      <!-- 0.2 -->
      <g transform="translate(32.857813 256.529281)scale(0.1 -0.1)">
       <use xlink:href="#DejaVuSans-30"/>
       <use xlink:href="#DejaVuSans-2e" x="63.623047"/>
       <use xlink:href="#DejaVuSans-32" x="95.410156"/>
      </g>
     </g>
    </g>
    <g id="ytick_8">
     <g id="line2d_33">
      <g>
       <use xlink:href="#mcf5c302af7" x="55.760938" y="214.051926" style="stroke: #000000; stroke-width: 0.8"/>
      </g>
     </g>
     <g id="text_13">
      <!-- 0.4 -->
      <g transform="translate(32.857813 217.851145)scale(0.1 -0.1)">
       <defs>
        <path id="DejaVuSans-34" d="M 2419 4116 
L 825 1625 
L 2419 1625 
L 2419 4116 
z
M 2253 4666 
L 3047 4666 
L 3047 1625 
L 3713 1625 
L 3713 1100 
L 3047 1100 
L 3047 0 
L 2419 0 
L 2419 1100 
L 313 1100 
L 313 1709 
L 2253 4666 
z
" transform="scale(0.015625)"/>
       </defs>
       <use xlink:href="#DejaVuSans-30"/>
       <use xlink:href="#DejaVuSans-2e" x="63.623047"/>
       <use xlink:href="#DejaVuSans-34" x="95.410156"/>
      </g>
     </g>
    </g>
    <g id="text_14">
     <!-- $16\pi \; \Sigma(s)$ -->
     <g transform="translate(18.398438 293.59)rotate(-90)scale(0.1 -0.1)">
      <use xlink:href="#DejaVuSans-31" transform="translate(0 0.125)"/>
      <use xlink:href="#DejaVuSans-36" transform="translate(63.623047 0.125)"/>
      <use xlink:href="#DejaVuSans-Oblique-3c0" transform="translate(127.246094 0.125)"/>
      <use xlink:href="#DejaVuSans-3a3" transform="translate(214.510308 0.125)"/>
      <use xlink:href="#DejaVuSans-28" transform="translate(277.693901 0.125)"/>
      <use xlink:href="#DejaVuSans-Oblique-73" transform="translate(316.707573 0.125)"/>
      <use xlink:href="#DejaVuSans-29" transform="translate(368.807183 0.125)"/>
     </g>
    </g>
   </g>
   <g id="line2d_34">
    <path d="M 55.760938 291.408198 
L 349.2 291.408198 
" clip-path="url(#pdb3f5c4a8b)" style="fill: none; stroke: #000000; stroke-width: 0.5; stroke-linecap: square"/>
   </g>
   <g id="line2d_35">
    <path d="M 175.162037 338.327917 
L 175.162037 208.052083 
" clip-path="url(#pdb3f5c4a8b)" style="fill: none; stroke: #808080; stroke-width: 0.5; stroke-linecap: square"/>
   </g>
   <g id="line2d_36">
    <path d="M 69.099077 332.406288 
L 74.543215 330.437605 
L 79.987354 328.456696 
L 85.431492 326.46326 
L 90.875631 324.456981 
L 96.319769 322.43752 
L 101.763907 320.404516 
L 107.208046 318.357585 
L 112.652184 316.296314 
L 118.096323 314.220256 
L 123.540461 312.128929 
L 128.9846 310.021806 
L 134.428738 307.898309 
L 139.872877 305.757798 
L 145.317015 303.599558 
L 150.761153 301.422775 
L 156.205292 299.226512 
L 161.64943 297.009656 
L 167.093569 294.770832 
L 172.537707 292.508203 
L 177.981846 290.218638 
L 183.425984 287.898724 
L 188.870123 285.54815 
L 194.314261 283.167288 
L 199.7584 280.756819 
L 205.202538 278.31763 
L 210.646676 275.850746 
L 216.090815 273.357279 
L 221.534953 270.838385 
L 226.979092 268.295245 
L 232.42323 265.72904 
L 237.867369 263.140943 
L 243.311507 260.532105 
L 248.755646 257.903654 
L 254.199784 255.256683 
L 259.643922 252.592257 
L 265.088061 249.911405 
L 270.532199 247.215122 
L 275.976338 244.504368 
L 281.420476 241.78007 
L 286.864615 239.043122 
L 292.308753 236.294385 
L 297.752892 233.534693 
L 303.19703 230.764843 
L 308.641169 227.9856 
L 314.085307 225.197715 
L 319.529445 222.401907 
L 324.973584 219.598863 
L 330.417722 216.789249 
L 335.861861 213.973712 
" clip-path="url(#pdb3f5c4a8b)" style="fill: none; stroke-dasharray: 5.55,2.4; stroke-dashoffset: 0; stroke: #000000; stroke-width: 1.5"/>
   </g>
   <g id="line2d_37">
    <path d="M 69.099077 291.412679 
L 74.543215 291.412529 
L 79.987354 291.412375 
L 85.431492 291.412215 
L 90.875631 291.41205 
L 96.319769 291.411879 
L 101.763907 291.411702 
L 107.208046 291.411518 
L 112.652184 291.411327 
L 118.096323 291.411128 
L 123.540461 291.410921 
L 128.9846 291.410704 
L 134.428738 291.410476 
L 139.872877 291.410237 
L 145.317015 291.409984 
L 150.761153 291.409716 
L 156.205292 291.40943 
L 161.64943 291.409121 
L 167.093569 291.408785 
L 172.537707 291.408406 
L 177.981846 291.407657 
L 183.425984 291.402978 
L 188.870123 291.390461 
L 194.314261 291.367189 
L 199.7584 291.3307 
L 205.202538 291.278883 
L 210.646676 291.209917 
L 216.090815 291.122235 
L 221.534953 291.014492 
L 226.979092 290.885531 
L 232.42323 290.73436 
L 237.867369 290.560132 
L 243.311507 290.362125 
L 248.755646 290.139726 
L 254.199784 289.892416 
L 259.643922 289.619761 
L 265.088061 289.321398 
L 270.532199 288.997031 
L 275.976338 288.646416 
L 281.420476 288.269362 
L 286.864615 287.865718 
L 292.308753 287.435378 
L 297.752892 286.978262 
L 303.19703 286.49433 
L 308.641169 285.98356 
L 314.085307 285.445963 
L 319.529445 284.881561 
L 324.973584 284.290406 
L 330.417722 283.672563 
L 335.861861 283.028111 
" clip-path="url(#pdb3f5c4a8b)" style="fill: none; stroke: #ff0000; stroke-width: 1.5; stroke-linecap: square"/>
   </g>
   <g id="patch_9">
    <path d="M 55.760938 338.327917 
L 55.760938 208.052083 
" style="fill: none; stroke: #000000; stroke-width: 0.8; stroke-linejoin: miter; stroke-linecap: square"/>
   </g>
   <g id="patch_10">
    <path d="M 349.2 338.327917 
L 349.2 208.052083 
" style="fill: none; stroke: #000000; stroke-width: 0.8; stroke-linejoin: miter; stroke-linecap: square"/>
   </g>
   <g id="patch_11">
    <path d="M 55.760938 338.327917 
L 349.2 338.327917 
" style="fill: none; stroke: #000000; stroke-width: 0.8; stroke-linejoin: miter; stroke-linecap: square"/>
   </g>
   <g id="patch_12">
    <path d="M 55.760938 208.052083 
L 349.2 208.052083 
" style="fill: none; stroke: #000000; stroke-width: 0.8; stroke-linejoin: miter; stroke-linecap: square"/>
   </g>
   <g id="text_15">
    <!-- $L = 2$ -->
    <g transform="translate(187.900469 202.052083)scale(0.12 -0.12)">
     <use xlink:href="#DejaVuSans-Oblique-4c" transform="translate(0 0.78125)"/>
     <use xlink:href="#DejaVuSans-3d" transform="translate(75.195312 0.78125)"/>
     <use xlink:href="#DejaVuSans-32" transform="translate(178.466797 0.78125)"/>
    </g>
   </g>
  </g>
  <g id="axes_3">
   <g id="patch_13">
    <path d="M 55.760938 498.021875 
L 349.2 498.021875 
L 349.2 367.746042 
L 55.760938 367.746042 
z
" style="fill: #ffffff"/>
   </g>
   <g id="matplotlib.axis_5">
    <g id="xtick_19">
     <g id="line2d_38">
      <g>
       <use xlink:href="#m10eb1351fe" x="60.493826" y="498.021875" style="stroke: #000000; stroke-width: 0.8"/>
      </g>
     </g>
     <g id="text_16">
      <!-- −0.2 -->
      <g transform="translate(48.352419 512.620312)scale(0.1 -0.1)">
       <use xlink:href="#DejaVuSans-2212"/>
       <use xlink:href="#DejaVuSans-30" x="83.789062"/>
       <use xlink:href="#DejaVuSans-2e" x="147.412109"/>
       <use xlink:href="#DejaVuSans-32" x="179.199219"/>
      </g>
     </g>
    </g>
    <g id="xtick_20">
     <g id="line2d_39">
      <g>
       <use xlink:href="#m10eb1351fe" x="94.91483" y="498.021875" style="stroke: #000000; stroke-width: 0.8"/>
      </g>
     </g>
     <g id="text_17">
      <!-- 0.0 -->
      <g transform="translate(86.963268 512.620312)scale(0.1 -0.1)">
       <use xlink:href="#DejaVuSans-30"/>
       <use xlink:href="#DejaVuSans-2e" x="63.623047"/>
       <use xlink:href="#DejaVuSans-30" x="95.410156"/>
      </g>
     </g>
    </g>
    <g id="xtick_21">
     <g id="line2d_40">
      <g>
       <use xlink:href="#m10eb1351fe" x="129.335834" y="498.021875" style="stroke: #000000; stroke-width: 0.8"/>
      </g>
     </g>
     <g id="text_18">
      <!-- 0.2 -->
      <g transform="translate(121.384272 512.620312)scale(0.1 -0.1)">
       <use xlink:href="#DejaVuSans-30"/>
       <use xlink:href="#DejaVuSans-2e" x="63.623047"/>
       <use xlink:href="#DejaVuSans-32" x="95.410156"/>
      </g>
     </g>
    </g>
    <g id="xtick_22">
     <g id="line2d_41">
      <g>
       <use xlink:href="#m10eb1351fe" x="163.756839" y="498.021875" style="stroke: #000000; stroke-width: 0.8"/>
      </g>
     </g>
     <g id="text_19">
      <!-- 0.4 -->
      <g transform="translate(155.805276 512.620312)scale(0.1 -0.1)">
       <use xlink:href="#DejaVuSans-30"/>
       <use xlink:href="#DejaVuSans-2e" x="63.623047"/>
       <use xlink:href="#DejaVuSans-34" x="95.410156"/>
      </g>
     </g>
    </g>
    <g id="xtick_23">
     <g id="line2d_42">
      <g>
       <use xlink:href="#m10eb1351fe" x="198.177843" y="498.021875" style="stroke: #000000; stroke-width: 0.8"/>
      </g>
     </g>
     <g id="text_20">
      <!-- 0.6 -->
      <g transform="translate(190.226281 512.620312)scale(0.1 -0.1)">
       <use xlink:href="#DejaVuSans-30"/>
       <use xlink:href="#DejaVuSans-2e" x="63.623047"/>
       <use xlink:href="#DejaVuSans-36" x="95.410156"/>
      </g>
     </g>
    </g>
    <g id="xtick_24">
     <g id="line2d_43">
      <g>
       <use xlink:href="#m10eb1351fe" x="232.598848" y="498.021875" style="stroke: #000000; stroke-width: 0.8"/>
      </g>
     </g>
     <g id="text_21">
      <!-- 0.8 -->
      <g transform="translate(224.647285 512.620312)scale(0.1 -0.1)">
       <defs>
        <path id="DejaVuSans-38" d="M 2034 2216 
Q 1584 2216 1326 1975 
Q 1069 1734 1069 1313 
Q 1069 891 1326 650 
Q 1584 409 2034 409 
Q 2484 409 2743 651 
Q 3003 894 3003 1313 
Q 3003 1734 2745 1975 
Q 2488 2216 2034 2216 
z
M 1403 2484 
Q 997 2584 770 2862 
Q 544 3141 544 3541 
Q 544 4100 942 4425 
Q 1341 4750 2034 4750 
Q 2731 4750 3128 4425 
Q 3525 4100 3525 3541 
Q 3525 3141 3298 2862 
Q 3072 2584 2669 2484 
Q 3125 2378 3379 2068 
Q 3634 1759 3634 1313 
Q 3634 634 3220 271 
Q 2806 -91 2034 -91 
Q 1263 -91 848 271 
Q 434 634 434 1313 
Q 434 1759 690 2068 
Q 947 2378 1403 2484 
z
M 1172 3481 
Q 1172 3119 1398 2916 
Q 1625 2713 2034 2713 
Q 2441 2713 2670 2916 
Q 2900 3119 2900 3481 
Q 2900 3844 2670 4047 
Q 2441 4250 2034 4250 
Q 1625 4250 1398 4047 
Q 1172 3844 1172 3481 
z
" transform="scale(0.015625)"/>
       </defs>
       <use xlink:href="#DejaVuSans-30"/>
       <use xlink:href="#DejaVuSans-2e" x="63.623047"/>
       <use xlink:href="#DejaVuSans-38" x="95.410156"/>
      </g>
     </g>
    </g>
    <g id="xtick_25">
     <g id="line2d_44">
      <g>
       <use xlink:href="#m10eb1351fe" x="267.019852" y="498.021875" style="stroke: #000000; stroke-width: 0.8"/>
      </g>
     </g>
     <g id="text_22">
      <!-- 1.0 -->
      <g transform="translate(259.068289 512.620312)scale(0.1 -0.1)">
       <use xlink:href="#DejaVuSans-31"/>
       <use xlink:href="#DejaVuSans-2e" x="63.623047"/>
       <use xlink:href="#DejaVuSans-30" x="95.410156"/>
      </g>
     </g>
    </g>
    <g id="xtick_26">
     <g id="line2d_45">
      <g>
       <use xlink:href="#m10eb1351fe" x="301.440856" y="498.021875" style="stroke: #000000; stroke-width: 0.8"/>
      </g>
     </g>
     <g id="text_23">
      <!-- 1.2 -->
      <g transform="translate(293.489294 512.620312)scale(0.1 -0.1)">
       <use xlink:href="#DejaVuSans-31"/>
       <use xlink:href="#DejaVuSans-2e" x="63.623047"/>
       <use xlink:href="#DejaVuSans-32" x="95.410156"/>
      </g>
     </g>
    </g>
    <g id="xtick_27">
     <g id="line2d_46">
      <g>
       <use xlink:href="#m10eb1351fe" x="335.861861" y="498.021875" style="stroke: #000000; stroke-width: 0.8"/>
      </g>
     </g>
     <g id="text_24">
      <!-- 1.4 -->
      <g transform="translate(327.910298 512.620312)scale(0.1 -0.1)">
       <use xlink:href="#DejaVuSans-31"/>
       <use xlink:href="#DejaVuSans-2e" x="63.623047"/>
       <use xlink:href="#DejaVuSans-34" x="95.410156"/>
      </g>
     </g>
    </g>
    <g id="text_25">
     <!-- $s$ (GeV$^2$) -->
     <g transform="translate(181.580469 527.120312)scale(0.1 -0.1)">
      <defs>
       <path id="DejaVuSans-47" d="M 3809 666 
L 3809 1919 
L 2778 1919 
L 2778 2438 
L 4434 2438 
L 4434 434 
Q 4069 175 3628 42 
Q 3188 -91 2688 -91 
Q 1594 -91 976 548 
Q 359 1188 359 2328 
Q 359 3472 976 4111 
Q 1594 4750 2688 4750 
Q 3144 4750 3555 4637 
Q 3966 4525 4313 4306 
L 4313 3634 
Q 3963 3931 3569 4081 
Q 3175 4231 2741 4231 
Q 1884 4231 1454 3753 
Q 1025 3275 1025 2328 
Q 1025 1384 1454 906 
Q 1884 428 2741 428 
Q 3075 428 3337 486 
Q 3600 544 3809 666 
z
" transform="scale(0.015625)"/>
       <path id="DejaVuSans-56" d="M 1831 0 
L 50 4666 
L 709 4666 
L 2188 738 
L 3669 4666 
L 4325 4666 
L 2547 0 
L 1831 0 
z
" transform="scale(0.015625)"/>
      </defs>
      <use xlink:href="#DejaVuSans-Oblique-73" transform="translate(0 0.765625)"/>
      <use xlink:href="#DejaVuSans-20" transform="translate(52.099609 0.765625)"/>
      <use xlink:href="#DejaVuSans-28" transform="translate(83.886719 0.765625)"/>
      <use xlink:href="#DejaVuSans-47" transform="translate(122.900391 0.765625)"/>
      <use xlink:href="#DejaVuSans-65" transform="translate(200.390625 0.765625)"/>
      <use xlink:href="#DejaVuSans-56" transform="translate(261.914062 0.765625)"/>
      <use xlink:href="#DejaVuSans-32" transform="translate(331.279297 39.046875)scale(0.7)"/>
      <use xlink:href="#DejaVuSans-29" transform="translate(378.549805 0.765625)"/>
     </g>
    </g>
   </g>
   <g id="matplotlib.axis_6">
    <g id="ytick_9">
     <g id="line2d_47">
      <g>
       <use xlink:href="#mcf5c302af7" x="55.760938" y="474.494305" style="stroke: #000000; stroke-width: 0.8"/>
      </g>
     </g>
     <g id="text_26">
      <!-- −1 -->
      <g transform="translate(34.01875 478.293524)scale(0.1 -0.1)">
       <use xlink:href="#DejaVuSans-2212"/>
       <use xlink:href="#DejaVuSans-31" x="83.789062"/>
      </g>
     </g>
    </g>
    <g id="ytick_10">
     <g id="line2d_48">
      <g>
       <use xlink:href="#mcf5c302af7" x="55.760938" y="446.699815" style="stroke: #000000; stroke-width: 0.8"/>
      </g>
     </g>
     <g id="text_27">
      <!-- 0 -->
      <g transform="translate(42.398438 450.499033)scale(0.1 -0.1)">
       <use xlink:href="#DejaVuSans-30"/>
      </g>
     </g>
    </g>
    <g id="ytick_11">
     <g id="line2d_49">
      <g>
       <use xlink:href="#mcf5c302af7" x="55.760938" y="418.905324" style="stroke: #000000; stroke-width: 0.8"/>
      </g>
     </g>
     <g id="text_28">
      <!-- 1 -->
      <g transform="translate(42.398438 422.704543)scale(0.1 -0.1)">
       <use xlink:href="#DejaVuSans-31"/>
      </g>
     </g>
    </g>
    <g id="ytick_12">
     <g id="line2d_50">
      <g>
       <use xlink:href="#mcf5c302af7" x="55.760938" y="391.110834" style="stroke: #000000; stroke-width: 0.8"/>
      </g>
     </g>
     <g id="text_29">
      <!-- 2 -->
      <g transform="translate(42.398438 394.910053)scale(0.1 -0.1)">
       <use xlink:href="#DejaVuSans-32"/>
      </g>
     </g>
    </g>
    <g id="text_30">
     <!-- $16\pi \; \Sigma(s)$ -->
     <g transform="translate(27.939063 453.283958)rotate(-90)scale(0.1 -0.1)">
      <use xlink:href="#DejaVuSans-31" transform="translate(0 0.125)"/>
      <use xlink:href="#DejaVuSans-36" transform="translate(63.623047 0.125)"/>
      <use xlink:href="#DejaVuSans-Oblique-3c0" transform="translate(127.246094 0.125)"/>
      <use xlink:href="#DejaVuSans-3a3" transform="translate(214.510308 0.125)"/>
      <use xlink:href="#DejaVuSans-28" transform="translate(277.693901 0.125)"/>
      <use xlink:href="#DejaVuSans-Oblique-73" transform="translate(316.707573 0.125)"/>
      <use xlink:href="#DejaVuSans-29" transform="translate(368.807183 0.125)"/>
     </g>
    </g>
   </g>
   <g id="line2d_51">
    <path d="M 55.760938 446.699815 
L 349.2 446.699815 
" clip-path="url(#p489861151a)" style="fill: none; stroke: #000000; stroke-width: 0.5; stroke-linecap: square"/>
   </g>
   <g id="line2d_52">
    <path d="M 175.162037 498.021875 
L 175.162037 367.746042 
" clip-path="url(#p489861151a)" style="fill: none; stroke: #808080; stroke-width: 0.5; stroke-linecap: square"/>
   </g>
   <g id="line2d_53">
    <path d="M 69.099077 492.100246 
L 74.543215 489.814685 
L 79.987354 487.524525 
L 85.431492 485.229729 
L 90.875631 482.930257 
L 96.319769 480.626069 
L 101.763907 478.317125 
L 107.208046 476.003382 
L 112.652184 473.684796 
L 118.096323 471.361324 
L 123.540461 469.032918 
L 128.9846 466.699531 
L 134.428738 464.361114 
L 139.872877 462.017615 
L 145.317015 459.668981 
L 150.761153 457.315156 
L 156.205292 454.956083 
L 161.64943 452.5917 
L 167.093569 450.221942 
L 172.537707 447.84674 
L 177.981846 445.466018 
L 183.425984 443.079689 
L 188.870123 440.687662 
L 194.314261 438.289842 
L 199.7584 435.886136 
L 205.202538 433.476452 
L 210.646676 431.0607 
L 216.090815 428.638793 
L 221.534953 426.210648 
L 226.979092 423.776185 
L 232.42323 421.335329 
L 237.867369 418.888005 
L 243.311507 416.434146 
L 248.755646 413.973686 
L 254.199784 411.506564 
L 259.643922 409.032721 
L 265.088061 406.552102 
L 270.532199 404.064654 
L 275.976338 401.570331 
L 281.420476 399.069084 
L 286.864615 396.560872 
L 292.308753 394.045654 
L 297.752892 391.523392 
L 303.19703 388.994051 
L 308.641169 386.457599 
L 314.085307 383.914004 
L 319.529445 381.363239 
L 324.973584 378.805278 
L 330.417722 376.240095 
L 335.861861 373.66767 
" clip-path="url(#p489861151a)" style="fill: none; stroke-dasharray: 5.55,2.4; stroke-dashoffset: 0; stroke: #000000; stroke-width: 1.5"/>
   </g>
   <g id="line2d_54">
    <path d="M 69.099077 446.701303 
L 74.543215 446.701235 
L 79.987354 446.701166 
L 85.431492 446.701097 
L 90.875631 446.701026 
L 96.319769 446.700955 
L 101.763907 446.700883 
L 107.208046 446.70081 
L 112.652184 446.700737 
L 118.096323 446.700662 
L 123.540461 446.700586 
L 128.9846 446.70051 
L 134.428738 446.700432 
L 139.872877 446.700354 
L 145.317015 446.700274 
L 150.761153 446.700193 
L 156.205292 446.700111 
L 161.64943 446.700028 
L 167.093569 446.699943 
L 172.537707 446.699857 
L 177.981846 446.699769 
L 183.425984 446.699675 
L 188.870123 446.699559 
L 194.314261 446.699399 
L 199.7584 446.699159 
L 205.202538 446.6988 
L 210.646676 446.698275 
L 216.090815 446.69753 
L 221.534953 446.696506 
L 226.979092 446.695142 
L 232.42323 446.693371 
L 237.867369 446.691124 
L 243.311507 446.688329 
L 248.755646 446.684911 
L 254.199784 446.680793 
L 259.643922 446.675899 
L 265.088061 446.670148 
L 270.532199 446.663461 
L 275.976338 446.655756 
L 281.420476 446.646951 
L 286.864615 446.636963 
L 292.308753 446.62571 
L 297.752892 446.613107 
L 303.19703 446.599072 
L 308.641169 446.58352 
L 314.085307 446.566368 
L 319.529445 446.547532 
L 324.973584 446.526927 
L 330.417722 446.50447 
L 335.861861 446.480078 
" clip-path="url(#p489861151a)" style="fill: none; stroke: #ff0000; stroke-width: 1.5; stroke-linecap: square"/>
   </g>
   <g id="patch_14">
    <path d="M 55.760938 498.021875 
L 55.760938 367.746042 
" style="fill: none; stroke: #000000; stroke-width: 0.8; stroke-linejoin: miter; stroke-linecap: square"/>
   </g>
   <g id="patch_15">
    <path d="M 349.2 498.021875 
L 349.2 367.746042 
" style="fill: none; stroke: #000000; stroke-width: 0.8; stroke-linejoin: miter; stroke-linecap: square"/>
   </g>
   <g id="patch_16">
    <path d="M 55.760938 498.021875 
L 349.2 498.021875 
" style="fill: none; stroke: #000000; stroke-width: 0.8; stroke-linejoin: miter; stroke-linecap: square"/>
   </g>
   <g id="patch_17">
    <path d="M 55.760938 367.746042 
L 349.2 367.746042 
" style="fill: none; stroke: #000000; stroke-width: 0.8; stroke-linejoin: miter; stroke-linecap: square"/>
   </g>
   <g id="text_31">
    <!-- $L = 3$ -->
    <g transform="translate(187.900469 361.746042)scale(0.12 -0.12)">
     <defs>
      <path id="DejaVuSans-33" d="M 2597 2516 
Q 3050 2419 3304 2112 
Q 3559 1806 3559 1356 
Q 3559 666 3084 287 
Q 2609 -91 1734 -91 
Q 1441 -91 1130 -33 
Q 819 25 488 141 
L 488 750 
Q 750 597 1062 519 
Q 1375 441 1716 441 
Q 2309 441 2620 675 
Q 2931 909 2931 1356 
Q 2931 1769 2642 2001 
Q 2353 2234 1838 2234 
L 1294 2234 
L 1294 2753 
L 1863 2753 
Q 2328 2753 2575 2939 
Q 2822 3125 2822 3475 
Q 2822 3834 2567 4026 
Q 2313 4219 1838 4219 
Q 1578 4219 1281 4162 
Q 984 4106 628 3988 
L 628 4550 
Q 988 4650 1302 4700 
Q 1616 4750 1894 4750 
Q 2613 4750 3031 4423 
Q 3450 4097 3450 3541 
Q 3450 3153 3228 2886 
Q 3006 2619 2597 2516 
z
" transform="scale(0.015625)"/>
     </defs>
     <use xlink:href="#DejaVuSans-Oblique-4c" transform="translate(0 0.78125)"/>
     <use xlink:href="#DejaVuSans-3d" transform="translate(75.195312 0.78125)"/>
     <use xlink:href="#DejaVuSans-33" transform="translate(178.466797 0.78125)"/>
    </g>
   </g>
  </g>
  <g id="text_32">
   <!-- Dispersion integrals for $m_1=0.13, m_2=0.55$ -->
   <g transform="translate(46.2 19.92)scale(0.12 -0.12)">
    <defs>
     <path id="DejaVuSans-44" d="M 1259 4147 
L 1259 519 
L 2022 519 
Q 2988 519 3436 956 
Q 3884 1394 3884 2338 
Q 3884 3275 3436 3711 
Q 2988 4147 2022 4147 
L 1259 4147 
z
M 628 4666 
L 1925 4666 
Q 3281 4666 3915 4102 
Q 4550 3538 4550 2338 
Q 4550 1131 3912 565 
Q 3275 0 1925 0 
L 628 0 
L 628 4666 
z
" transform="scale(0.015625)"/>
     <path id="DejaVuSans-69" d="M 603 3500 
L 1178 3500 
L 1178 0 
L 603 0 
L 603 3500 
z
M 603 4863 
L 1178 4863 
L 1178 4134 
L 603 4134 
L 603 4863 
z
" transform="scale(0.015625)"/>
     <path id="DejaVuSans-73" d="M 2834 3397 
L 2834 2853 
Q 2591 2978 2328 3040 
Q 2066 3103 1784 3103 
Q 1356 3103 1142 2972 
Q 928 2841 928 2578 
Q 928 2378 1081 2264 
Q 1234 2150 1697 2047 
L 1894 2003 
Q 2506 1872 2764 1633 
Q 3022 1394 3022 966 
Q 3022 478 2636 193 
Q 2250 -91 1575 -91 
Q 1294 -91 989 -36 
Q 684 19 347 128 
L 347 722 
Q 666 556 975 473 
Q 1284 391 1588 391 
Q 1994 391 2212 530 
Q 2431 669 2431 922 
Q 2431 1156 2273 1281 
Q 2116 1406 1581 1522 
L 1381 1569 
Q 847 1681 609 1914 
Q 372 2147 372 2553 
Q 372 3047 722 3315 
Q 1072 3584 1716 3584 
Q 2034 3584 2315 3537 
Q 2597 3491 2834 3397 
z
" transform="scale(0.015625)"/>
     <path id="DejaVuSans-6f" d="M 1959 3097 
Q 1497 3097 1228 2736 
Q 959 2375 959 1747 
Q 959 1119 1226 758 
Q 1494 397 1959 397 
Q 2419 397 2687 759 
Q 2956 1122 2956 1747 
Q 2956 2369 2687 2733 
Q 2419 3097 1959 3097 
z
M 1959 3584 
Q 2709 3584 3137 3096 
Q 3566 2609 3566 1747 
Q 3566 888 3137 398 
Q 2709 -91 1959 -91 
Q 1206 -91 779 398 
Q 353 888 353 1747 
Q 353 2609 779 3096 
Q 1206 3584 1959 3584 
z
" transform="scale(0.015625)"/>
     <path id="DejaVuSans-6e" d="M 3513 2113 
L 3513 0 
L 2938 0 
L 2938 2094 
Q 2938 2591 2744 2837 
Q 2550 3084 2163 3084 
Q 1697 3084 1428 2787 
Q 1159 2491 1159 1978 
L 1159 0 
L 581 0 
L 581 3500 
L 1159 3500 
L 1159 2956 
Q 1366 3272 1645 3428 
Q 1925 3584 2291 3584 
Q 2894 3584 3203 3211 
Q 3513 2838 3513 2113 
z
" transform="scale(0.015625)"/>
     <path id="DejaVuSans-66" d="M 2375 4863 
L 2375 4384 
L 1825 4384 
Q 1516 4384 1395 4259 
Q 1275 4134 1275 3809 
L 1275 3500 
L 2222 3500 
L 2222 3053 
L 1275 3053 
L 1275 0 
L 697 0 
L 697 3053 
L 147 3053 
L 147 3500 
L 697 3500 
L 697 3744 
Q 697 4328 969 4595 
Q 1241 4863 1831 4863 
L 2375 4863 
z
" transform="scale(0.015625)"/>
     <path id="DejaVuSans-Oblique-6d" d="M 5747 2113 
L 5338 0 
L 4763 0 
L 5166 2094 
Q 5191 2228 5203 2325 
Q 5216 2422 5216 2491 
Q 5216 2772 5059 2928 
Q 4903 3084 4622 3084 
Q 4203 3084 3875 2770 
Q 3547 2456 3450 1953 
L 3066 0 
L 2491 0 
L 2900 2094 
Q 2925 2209 2937 2307 
Q 2950 2406 2950 2484 
Q 2950 2769 2794 2926 
Q 2638 3084 2363 3084 
Q 1938 3084 1609 2770 
Q 1281 2456 1184 1953 
L 800 0 
L 225 0 
L 909 3500 
L 1484 3500 
L 1375 2956 
Q 1609 3263 1923 3423 
Q 2238 3584 2597 3584 
Q 2978 3584 3223 3384 
Q 3469 3184 3519 2828 
Q 3781 3197 4126 3390 
Q 4472 3584 4856 3584 
Q 5306 3584 5551 3325 
Q 5797 3066 5797 2591 
Q 5797 2488 5784 2364 
Q 5772 2241 5747 2113 
z
" transform="scale(0.015625)"/>
     <path id="DejaVuSans-2c" d="M 750 794 
L 1409 794 
L 1409 256 
L 897 -744 
L 494 -744 
L 750 256 
L 750 794 
z
" transform="scale(0.015625)"/>
     <path id="DejaVuSans-35" d="M 691 4666 
L 3169 4666 
L 3169 4134 
L 1269 4134 
L 1269 2991 
Q 1406 3038 1543 3061 
Q 1681 3084 1819 3084 
Q 2600 3084 3056 2656 
Q 3513 2228 3513 1497 
Q 3513 744 3044 326 
Q 2575 -91 1722 -91 
Q 1428 -91 1123 -41 
Q 819 9 494 109 
L 494 744 
Q 775 591 1075 516 
Q 1375 441 1709 441 
Q 2250 441 2565 725 
Q 2881 1009 2881 1497 
Q 2881 1984 2565 2268 
Q 2250 2553 1709 2553 
Q 1456 2553 1204 2497 
Q 953 2441 691 2322 
L 691 4666 
z
" transform="scale(0.015625)"/>
    </defs>
    <use xlink:href="#DejaVuSans-44" transform="translate(0 0.015625)"/>
    <use xlink:href="#DejaVuSans-69" transform="translate(77.001953 0.015625)"/>
    <use xlink:href="#DejaVuSans-73" transform="translate(104.785156 0.015625)"/>
    <use xlink:href="#DejaVuSans-70" transform="translate(156.884766 0.015625)"/>
    <use xlink:href="#DejaVuSans-65" transform="translate(220.361328 0.015625)"/>
    <use xlink:href="#DejaVuSans-72" transform="translate(281.884766 0.015625)"/>
    <use xlink:href="#DejaVuSans-73" transform="translate(322.998047 0.015625)"/>
    <use xlink:href="#DejaVuSans-69" transform="translate(375.097656 0.015625)"/>
    <use xlink:href="#DejaVuSans-6f" transform="translate(402.880859 0.015625)"/>
    <use xlink:href="#DejaVuSans-6e" transform="translate(464.0625 0.015625)"/>
    <use xlink:href="#DejaVuSans-20" transform="translate(527.441406 0.015625)"/>
    <use xlink:href="#DejaVuSans-69" transform="translate(559.228516 0.015625)"/>
    <use xlink:href="#DejaVuSans-6e" transform="translate(587.011719 0.015625)"/>
    <use xlink:href="#DejaVuSans-74" transform="translate(650.390625 0.015625)"/>
    <use xlink:href="#DejaVuSans-65" transform="translate(689.599609 0.015625)"/>
    <use xlink:href="#DejaVuSans-67" transform="translate(751.123047 0.015625)"/>
    <use xlink:href="#DejaVuSans-72" transform="translate(814.599609 0.015625)"/>
    <use xlink:href="#DejaVuSans-61" transform="translate(855.712891 0.015625)"/>
    <use xlink:href="#DejaVuSans-6c" transform="translate(916.992188 0.015625)"/>
    <use xlink:href="#DejaVuSans-73" transform="translate(944.775391 0.015625)"/>
    <use xlink:href="#DejaVuSans-20" transform="translate(996.875 0.015625)"/>
    <use xlink:href="#DejaVuSans-66" transform="translate(1028.662109 0.015625)"/>
    <use xlink:href="#DejaVuSans-6f" transform="translate(1063.867188 0.015625)"/>
    <use xlink:href="#DejaVuSans-72" transform="translate(1125.048828 0.015625)"/>
    <use xlink:href="#DejaVuSans-20" transform="translate(1166.162109 0.015625)"/>
    <use xlink:href="#DejaVuSans-Oblique-6d" transform="translate(1197.949219 0.015625)"/>
    <use xlink:href="#DejaVuSans-31" transform="translate(1295.361328 -16.390625)scale(0.7)"/>
    <use xlink:href="#DejaVuSans-3d" transform="translate(1362.114258 0.015625)"/>
    <use xlink:href="#DejaVuSans-30" transform="translate(1465.385742 0.015625)"/>
    <use xlink:href="#DejaVuSans-2e" transform="translate(1529.008789 0.015625)"/>
    <use xlink:href="#DejaVuSans-31" transform="translate(1560.795898 0.015625)"/>
    <use xlink:href="#DejaVuSans-33" transform="translate(1624.418945 0.015625)"/>
    <use xlink:href="#DejaVuSans-2c" transform="translate(1688.041992 0.015625)"/>
    <use xlink:href="#DejaVuSans-Oblique-6d" transform="translate(1739.311523 0.015625)"/>
    <use xlink:href="#DejaVuSans-32" transform="translate(1836.723633 -16.390625)scale(0.7)"/>
    <use xlink:href="#DejaVuSans-3d" transform="translate(1903.476562 0.015625)"/>
    <use xlink:href="#DejaVuSans-30" transform="translate(2006.748047 0.015625)"/>
    <use xlink:href="#DejaVuSans-2e" transform="translate(2070.371094 0.015625)"/>
    <use xlink:href="#DejaVuSans-35" transform="translate(2102.158203 0.015625)"/>
    <use xlink:href="#DejaVuSans-35" transform="translate(2165.78125 0.015625)"/>
   </g>
  </g>
 </g>
 <defs>
  <clipPath id="p0a30833a9a">
   <rect x="55.760938" y="48.358125" width="293.439062" height="130.275833"/>
  </clipPath>
  <clipPath id="pdb3f5c4a8b">
   <rect x="55.760938" y="208.052083" width="293.439062" height="130.275833"/>
  </clipPath>
  <clipPath id="p489861151a">
   <rect x="55.760938" y="367.746042" width="293.439062" height="130.275833"/>
  </clipPath>
 </defs>
</svg>
