<?xml version="1.0" encoding="utf-8" standalone="no"?>
<!DOCTYPE svg PUBLIC "-//W3C//DTD SVG 1.1//EN"
  "http://www.w3.org/Graphics/SVG/1.1/DTD/svg11.dtd">
<svg xmlns:xlink="http://www.w3.org/1999/xlink" width="792pt" height="324pt" viewBox="0 0 792 324" xmlns="http://www.w3.org/2000/svg" version="1.1">
 <metadata>
  <rdf:RDF xmlns:dc="http://purl.org/dc/elements/1.1/" xmlns:cc="http://creativecommons.org/ns#" xmlns:rdf="http://www.w3.org/1999/02/22-rdf-syntax-ns#">
   <cc:Work>
    <dc:type rdf:resource="http://purl.org/dc/dcmitype/StillImage"/>
    <dc:date>2022-04-05T11:42:00.756556</dc:date>
    <dc:format>image/svg+xml</dc:format>
    <dc:creator>
     <cc:Agent>
      <dc:title>Matplotlib v3.5.1, https://matplotlib.org/</dc:title>
     </cc:Agent>
    </dc:creator>
   </cc:Work>
  </rdf:RDF>
 </metadata>
 <defs>
  <style type="text/css">*{stroke-linejoin: round; stroke-linecap: butt}</style>
 </defs>
 <g id="figure_1">
  <g id="patch_1">
   <path d="M 0 324
L 792 324
L 792 0
L 0 0
z
" style="fill: #ffffff"/>
  </g>
  <g id="axes_1">
   <g id="patch_2">
    <path d="M 55.782813 282.021875
L 390.610937 282.021875
L 390.610937 25.92
L 55.782813 25.92
z
" style="fill: #ffffff"/>
   </g>
   <g id="matplotlib.axis_1">
    <g id="xtick_1">
     <g id="line2d_1">
      <defs>
       <path id="m39bf411a37" d="M 0 0
L 0 3.5
" style="stroke: #000000; stroke-width: 0.8"/>
      </defs>
      <g>
       <use xlink:href="#m39bf411a37" x="100.459293" y="282.021875" style="stroke: #000000; stroke-width: 0.8"/>
      </g>
     </g>
     <g id="text_1">
      <!-- 0.0 -->
      <g transform="translate(92.50773 296.620313)scale(0.1 -0.1)">
       <defs>
        <path id="DejaVuSans-30" d="M 2034 4250
Q 1547 4250 1301 3770
Q 1056 3291 1056 2328
Q 1056 1369 1301 889
Q 1547 409 2034 409
Q 2525 409 2770 889
Q 3016 1369 3016 2328
Q 3016 3291 2770 3770
Q 2525 4250 2034 4250
z
M 2034 4750
Q 2819 4750 3233 4129
Q 3647 3509 3647 2328
Q 3647 1150 3233 529
Q 2819 -91 2034 -91
Q 1250 -91 836 529
Q 422 1150 422 2328
Q 422 3509 836 4129
Q 1250 4750 2034 4750
z
" transform="scale(0.015625)"/>
        <path id="DejaVuSans-2e" d="M 684 794
L 1344 794
L 1344 0
L 684 0
L 684 794
z
" transform="scale(0.015625)"/>
       </defs>
       <use xlink:href="#DejaVuSans-30"/>
       <use xlink:href="#DejaVuSans-2e" x="63.623047"/>
       <use xlink:href="#DejaVuSans-30" x="95.410156"/>
      </g>
     </g>
    </g>
    <g id="xtick_2">
     <g id="line2d_2">
      <g>
       <use xlink:href="#m39bf411a37" x="159.373332" y="282.021875" style="stroke: #000000; stroke-width: 0.8"/>
      </g>
     </g>
     <g id="text_2">
      <!-- 0.3 -->
      <g transform="translate(151.42177 296.620313)scale(0.1 -0.1)">
       <defs>
        <path id="DejaVuSans-33" d="M 2597 2516
Q 3050 2419 3304 2112
Q 3559 1806 3559 1356
Q 3559 666 3084 287
Q 2609 -91 1734 -91
Q 1441 -91 1130 -33
Q 819 25 488 141
L 488 750
Q 750 597 1062 519
Q 1375 441 1716 441
Q 2309 441 2620 675
Q 2931 909 2931 1356
Q 2931 1769 2642 2001
Q 2353 2234 1838 2234
L 1294 2234
L 1294 2753
L 1863 2753
Q 2328 2753 2575 2939
Q 2822 3125 2822 3475
Q 2822 3834 2567 4026
Q 2313 4219 1838 4219
Q 1578 4219 1281 4162
Q 984 4106 628 3988
L 628 4550
Q 988 4650 1302 4700
Q 1616 4750 1894 4750
Q 2613 4750 3031 4423
Q 3450 4097 3450 3541
Q 3450 3153 3228 2886
Q 3006 2619 2597 2516
z
" transform="scale(0.015625)"/>
       </defs>
       <use xlink:href="#DejaVuSans-30"/>
       <use xlink:href="#DejaVuSans-2e" x="63.623047"/>
       <use xlink:href="#DejaVuSans-33" x="95.410156"/>
      </g>
     </g>
    </g>
    <g id="xtick_3">
     <g id="line2d_3">
      <g>
       <use xlink:href="#m39bf411a37" x="218.287372" y="282.021875" style="stroke: #000000; stroke-width: 0.8"/>
      </g>
     </g>
     <g id="text_3">
      <!-- 0.6 -->
      <g transform="translate(210.335809 296.620313)scale(0.1 -0.1)">
       <defs>
        <path id="DejaVuSans-36" d="M 2113 2584
Q 1688 2584 1439 2293
Q 1191 2003 1191 1497
Q 1191 994 1439 701
Q 1688 409 2113 409
Q 2538 409 2786 701
Q 3034 994 3034 1497
Q 3034 2003 2786 2293
Q 2538 2584 2113 2584
z
M 3366 4563
L 3366 3988
Q 3128 4100 2886 4159
Q 2644 4219 2406 4219
Q 1781 4219 1451 3797
Q 1122 3375 1075 2522
Q 1259 2794 1537 2939
Q 1816 3084 2150 3084
Q 2853 3084 3261 2657
Q 3669 2231 3669 1497
Q 3669 778 3244 343
Q 2819 -91 2113 -91
Q 1303 -91 875 529
Q 447 1150 447 2328
Q 447 3434 972 4092
Q 1497 4750 2381 4750
Q 2619 4750 2861 4703
Q 3103 4656 3366 4563
z
" transform="scale(0.015625)"/>
       </defs>
       <use xlink:href="#DejaVuSans-30"/>
       <use xlink:href="#DejaVuSans-2e" x="63.623047"/>
       <use xlink:href="#DejaVuSans-36" x="95.410156"/>
      </g>
     </g>
    </g>
    <g id="xtick_4">
     <g id="line2d_4">
      <g>
       <use xlink:href="#m39bf411a37" x="277.201411" y="282.021875" style="stroke: #000000; stroke-width: 0.8"/>
      </g>
     </g>
     <g id="text_4">
      <!-- 0.9 -->
      <g transform="translate(269.249849 296.620313)scale(0.1 -0.1)">
       <defs>
        <path id="DejaVuSans-39" d="M 703 97
L 703 672
Q 941 559 1184 500
Q 1428 441 1663 441
Q 2288 441 2617 861
Q 2947 1281 2994 2138
Q 2813 1869 2534 1725
Q 2256 1581 1919 1581
Q 1219 1581 811 2004
Q 403 2428 403 3163
Q 403 3881 828 4315
Q 1253 4750 1959 4750
Q 2769 4750 3195 4129
Q 3622 3509 3622 2328
Q 3622 1225 3098 567
Q 2575 -91 1691 -91
Q 1453 -91 1209 -44
Q 966 3 703 97
z
M 1959 2075
Q 2384 2075 2632 2365
Q 2881 2656 2881 3163
Q 2881 3666 2632 3958
Q 2384 4250 1959 4250
Q 1534 4250 1286 3958
Q 1038 3666 1038 3163
Q 1038 2656 1286 2365
Q 1534 2075 1959 2075
z
" transform="scale(0.015625)"/>
       </defs>
       <use xlink:href="#DejaVuSans-30"/>
       <use xlink:href="#DejaVuSans-2e" x="63.623047"/>
       <use xlink:href="#DejaVuSans-39" x="95.410156"/>
      </g>
     </g>
    </g>
    <g id="xtick_5">
     <g id="line2d_5">
      <g>
       <use xlink:href="#m39bf411a37" x="336.115451" y="282.021875" style="stroke: #000000; stroke-width: 0.8"/>
      </g>
     </g>
     <g id="text_5">
      <!-- 1.2 -->
      <g transform="translate(328.163888 296.620313)scale(0.1 -0.1)">
       <defs>
        <path id="DejaVuSans-31" d="M 794 531
L 1825 531
L 1825 4091
L 703 3866
L 703 4441
L 1819 4666
L 2450 4666
L 2450 531
L 3481 531
L 3481 0
L 794 0
L 794 531
z
" transform="scale(0.015625)"/>
        <path id="DejaVuSans-32" d="M 1228 531
L 3431 531
L 3431 0
L 469 0
L 469 531
Q 828 903 1448 1529
Q 2069 2156 2228 2338
Q 2531 2678 2651 2914
Q 2772 3150 2772 3378
Q 2772 3750 2511 3984
Q 2250 4219 1831 4219
Q 1534 4219 1204 4116
Q 875 4013 500 3803
L 500 4441
Q 881 4594 1212 4672
Q 1544 4750 1819 4750
Q 2544 4750 2975 4387
Q 3406 4025 3406 3419
Q 3406 3131 3298 2873
Q 3191 2616 2906 2266
Q 2828 2175 2409 1742
Q 1991 1309 1228 531
z
" transform="scale(0.015625)"/>
       </defs>
       <use xlink:href="#DejaVuSans-31"/>
       <use xlink:href="#DejaVuSans-2e" x="63.623047"/>
       <use xlink:href="#DejaVuSans-32" x="95.410156"/>
      </g>
     </g>
    </g>
    <g id="text_6">
     <!-- $s$ (GeV$^2$) -->
     <g transform="translate(202.296875 311.120313)scale(0.1 -0.1)">
      <defs>
       <path id="DejaVuSans-Oblique-73" d="M 3200 3397
L 3091 2853
Q 2863 2978 2609 3040
Q 2356 3103 2088 3103
Q 1634 3103 1373 2948
Q 1113 2794 1113 2528
Q 1113 2219 1719 2053
Q 1766 2041 1788 2034
L 1972 1978
Q 2547 1819 2739 1644
Q 2931 1469 2931 1166
Q 2931 609 2489 259
Q 2047 -91 1331 -91
Q 1053 -91 747 -37
Q 441 16 72 128
L 184 722
Q 500 559 806 475
Q 1113 391 1394 391
Q 1816 391 2080 572
Q 2344 753 2344 1031
Q 2344 1331 1650 1516
L 1591 1531
L 1394 1581
Q 956 1697 753 1886
Q 550 2075 550 2369
Q 550 2928 970 3256
Q 1391 3584 2113 3584
Q 2397 3584 2667 3537
Q 2938 3491 3200 3397
z
" transform="scale(0.015625)"/>
       <path id="DejaVuSans-20" transform="scale(0.015625)"/>
       <path id="DejaVuSans-28" d="M 1984 4856
Q 1566 4138 1362 3434
Q 1159 2731 1159 2009
Q 1159 1288 1364 580
Q 1569 -128 1984 -844
L 1484 -844
Q 1016 -109 783 600
Q 550 1309 550 2009
Q 550 2706 781 3412
Q 1013 4119 1484 4856
L 1984 4856
z
" transform="scale(0.015625)"/>
       <path id="DejaVuSans-47" d="M 3809 666
L 3809 1919
L 2778 1919
L 2778 2438
L 4434 2438
L 4434 434
Q 4069 175 3628 42
Q 3188 -91 2688 -91
Q 1594 -91 976 548
Q 359 1188 359 2328
Q 359 3472 976 4111
Q 1594 4750 2688 4750
Q 3144 4750 3555 4637
Q 3966 4525 4313 4306
L 4313 3634
Q 3963 3931 3569 4081
Q 3175 4231 2741 4231
Q 1884 4231 1454 3753
Q 1025 3275 1025 2328
Q 1025 1384 1454 906
Q 1884 428 2741 428
Q 3075 428 3337 486
Q 3600 544 3809 666
z
" transform="scale(0.015625)"/>
       <path id="DejaVuSans-65" d="M 3597 1894
L 3597 1613
L 953 1613
Q 991 1019 1311 708
Q 1631 397 2203 397
Q 2534 397 2845 478
Q 3156 559 3463 722
L 3463 178
Q 3153 47 2828 -22
Q 2503 -91 2169 -91
Q 1331 -91 842 396
Q 353 884 353 1716
Q 353 2575 817 3079
Q 1281 3584 2069 3584
Q 2775 3584 3186 3129
Q 3597 2675 3597 1894
z
M 3022 2063
Q 3016 2534 2758 2815
Q 2500 3097 2075 3097
Q 1594 3097 1305 2825
Q 1016 2553 972 2059
L 3022 2063
z
" transform="scale(0.015625)"/>
       <path id="DejaVuSans-56" d="M 1831 0
L 50 4666
L 709 4666
L 2188 738
L 3669 4666
L 4325 4666
L 2547 0
L 1831 0
z
" transform="scale(0.015625)"/>
       <path id="DejaVuSans-29" d="M 513 4856
L 1013 4856
Q 1481 4119 1714 3412
Q 1947 2706 1947 2009
Q 1947 1309 1714 600
Q 1481 -109 1013 -844
L 513 -844
Q 928 -128 1133 580
Q 1338 1288 1338 2009
Q 1338 2731 1133 3434
Q 928 4138 513 4856
z
" transform="scale(0.015625)"/>
      </defs>
      <use xlink:href="#DejaVuSans-Oblique-73" transform="translate(0 0.765625)"/>
      <use xlink:href="#DejaVuSans-20" transform="translate(52.099609 0.765625)"/>
      <use xlink:href="#DejaVuSans-28" transform="translate(83.886719 0.765625)"/>
      <use xlink:href="#DejaVuSans-47" transform="translate(122.900391 0.765625)"/>
      <use xlink:href="#DejaVuSans-65" transform="translate(200.390625 0.765625)"/>
      <use xlink:href="#DejaVuSans-56" transform="translate(261.914062 0.765625)"/>
      <use xlink:href="#DejaVuSans-32" transform="translate(331.279297 39.046875)scale(0.7)"/>
      <use xlink:href="#DejaVuSans-29" transform="translate(378.549805 0.765625)"/>
     </g>
    </g>
   </g>
   <g id="matplotlib.axis_2">
    <g id="ytick_1">
     <g id="line2d_6">
      <defs>
       <path id="m5fa49d9f2b" d="M 0 0
L -3.5 0
" style="stroke: #000000; stroke-width: 0.8"/>
      </defs>
      <g>
       <use xlink:href="#m5fa49d9f2b" x="55.782813" y="282.021875" style="stroke: #000000; stroke-width: 0.8"/>
      </g>
     </g>
     <g id="text_7">
      <!-- −1.0 -->
      <g transform="translate(24.5 285.821094)scale(0.1 -0.1)">
       <defs>
        <path id="DejaVuSans-2212" d="M 678 2272
L 4684 2272
L 4684 1741
L 678 1741
L 678 2272
z
" transform="scale(0.015625)"/>
       </defs>
       <use xlink:href="#DejaVuSans-2212"/>
       <use xlink:href="#DejaVuSans-31" x="83.789062"/>
       <use xlink:href="#DejaVuSans-2e" x="147.412109"/>
       <use xlink:href="#DejaVuSans-30" x="179.199219"/>
      </g>
     </g>
    </g>
    <g id="ytick_2">
     <g id="line2d_7">
      <g>
       <use xlink:href="#m5fa49d9f2b" x="55.782813" y="217.996406" style="stroke: #000000; stroke-width: 0.8"/>
      </g>
     </g>
     <g id="text_8">
      <!-- −0.5 -->
      <g transform="translate(24.5 221.795625)scale(0.1 -0.1)">
       <defs>
        <path id="DejaVuSans-35" d="M 691 4666
L 3169 4666
L 3169 4134
L 1269 4134
L 1269 2991
Q 1406 3038 1543 3061
Q 1681 3084 1819 3084
Q 2600 3084 3056 2656
Q 3513 2228 3513 1497
Q 3513 744 3044 326
Q 2575 -91 1722 -91
Q 1428 -91 1123 -41
Q 819 9 494 109
L 494 744
Q 775 591 1075 516
Q 1375 441 1709 441
Q 2250 441 2565 725
Q 2881 1009 2881 1497
Q 2881 1984 2565 2268
Q 2250 2553 1709 2553
Q 1456 2553 1204 2497
Q 953 2441 691 2322
L 691 4666
z
" transform="scale(0.015625)"/>
       </defs>
       <use xlink:href="#DejaVuSans-2212"/>
       <use xlink:href="#DejaVuSans-30" x="83.789062"/>
       <use xlink:href="#DejaVuSans-2e" x="147.412109"/>
       <use xlink:href="#DejaVuSans-35" x="179.199219"/>
      </g>
     </g>
    </g>
    <g id="ytick_3">
     <g id="line2d_8">
      <g>
       <use xlink:href="#m5fa49d9f2b" x="55.782813" y="153.970937" style="stroke: #000000; stroke-width: 0.8"/>
      </g>
     </g>
     <g id="text_9">
      <!-- 0.0 -->
      <g transform="translate(32.879688 157.770156)scale(0.1 -0.1)">
       <use xlink:href="#DejaVuSans-30"/>
       <use xlink:href="#DejaVuSans-2e" x="63.623047"/>
       <use xlink:href="#DejaVuSans-30" x="95.410156"/>
      </g>
     </g>
    </g>
    <g id="ytick_4">
     <g id="line2d_9">
      <g>
       <use xlink:href="#m5fa49d9f2b" x="55.782813" y="89.945469" style="stroke: #000000; stroke-width: 0.8"/>
      </g>
     </g>
     <g id="text_10">
      <!-- 0.5 -->
      <g transform="translate(32.879688 93.744687)scale(0.1 -0.1)">
       <use xlink:href="#DejaVuSans-30"/>
       <use xlink:href="#DejaVuSans-2e" x="63.623047"/>
       <use xlink:href="#DejaVuSans-35" x="95.410156"/>
      </g>
     </g>
    </g>
    <g id="ytick_5">
     <g id="line2d_10">
      <g>
       <use xlink:href="#m5fa49d9f2b" x="55.782813" y="25.92" style="stroke: #000000; stroke-width: 0.8"/>
      </g>
     </g>
     <g id="text_11">
      <!-- 1.0 -->
      <g transform="translate(32.879688 29.719219)scale(0.1 -0.1)">
       <use xlink:href="#DejaVuSans-31"/>
       <use xlink:href="#DejaVuSans-2e" x="63.623047"/>
       <use xlink:href="#DejaVuSans-30" x="95.410156"/>
      </g>
     </g>
    </g>
    <g id="text_12">
     <!-- $16\pi \; i\rho(s)$ -->
     <g transform="translate(18.4 175.770938)rotate(-90)scale(0.1 -0.1)">
      <defs>
       <path id="DejaVuSans-Oblique-3c0" d="M 584 3500
L 3938 3500
L 3825 2925
L 3384 2925
L 2966 775
Q 2922 550 2981 450
Q 3038 353 3209 353
Q 3256 353 3325 363
Q 3397 369 3419 372
L 3338 -44
Q 3222 -84 3103 -103
Q 2981 -122 2866 -122
Q 2491 -122 2388 81
Q 2284 288 2391 838
L 2797 2925
L 1506 2925
L 938 0
L 350 0
L 919 2925
L 472 2925
L 584 3500
z
" transform="scale(0.015625)"/>
       <path id="DejaVuSans-Oblique-69" d="M 1172 4863
L 1747 4863
L 1606 4134
L 1031 4134
L 1172 4863
z
M 909 3500
L 1484 3500
L 800 0
L 225 0
L 909 3500
z
" transform="scale(0.015625)"/>
       <path id="DejaVuSans-Oblique-3c1" d="M 1203 2875
Q 1453 3194 1981 3475
Q 2188 3584 2756 3584
Q 3394 3584 3694 3078
Q 3994 2572 3834 1747
Q 3672 922 3175 415
Q 2678 -91 2041 -91
Q 1656 -91 1409 63
Q 1163 213 1044 525
L 681 -1331
L 103 -1331
L 697 1716
Q 838 2438 1203 2875
z
M 3238 1747
Q 3359 2381 3169 2744
Q 2978 3103 2522 3103
Q 2066 3103 1734 2744
Q 1403 2381 1281 1747
Q 1156 1113 1347 750
Q 1538 391 1994 391
Q 2450 391 2781 750
Q 3113 1113 3238 1747
z
" transform="scale(0.015625)"/>
      </defs>
      <use xlink:href="#DejaVuSans-31" transform="translate(0 0.015625)"/>
      <use xlink:href="#DejaVuSans-36" transform="translate(63.623047 0.015625)"/>
      <use xlink:href="#DejaVuSans-Oblique-3c0" transform="translate(127.246094 0.015625)"/>
      <use xlink:href="#DejaVuSans-Oblique-69" transform="translate(214.510308 0.015625)"/>
      <use xlink:href="#DejaVuSans-Oblique-3c1" transform="translate(242.293511 0.015625)"/>
      <use xlink:href="#DejaVuSans-28" transform="translate(305.770073 0.015625)"/>
      <use xlink:href="#DejaVuSans-Oblique-73" transform="translate(344.783745 0.015625)"/>
      <use xlink:href="#DejaVuSans-29" transform="translate(396.883354 0.015625)"/>
     </g>
    </g>
   </g>
   <g id="line2d_11">
    <path d="M 55.782813 153.970937
L 390.610937 153.970937
" clip-path="url(#p2b4319b5b7)" style="fill: none; stroke: #000000; stroke-width: 0.5; stroke-linecap: square"/>
   </g>
   <g id="line2d_12">
    <path d="M 192.025226 282.021875
L 192.025226 25.92
" clip-path="url(#p2b4319b5b7)" style="fill: none; stroke: #808080; stroke-width: 0.5; stroke-linecap: square"/>
   </g>
   <g id="line2d_13">
    <path d="M 71.002273 154.133886
L 81.372246 154.356379
L 86.252233 154.664514
L 88.692226 154.98054
L 90.522222 155.385238
L 91.742219 155.807696
L 92.962215 156.452723
L 93.572214 156.911049
L 94.182212 157.509364
L 94.792211 158.311088
L 95.402209 159.420086
L 96.012207 161.016089
L 96.622206 163.432389
L 97.232204 167.345093
L 97.842203 174.303119
L 98.452201 188.534773
L 99.062199 225.293154
L 99.458998 325
M 100.783629 325
L 100.822418 -1
M 101.475343 -1
L 101.502193 26.001049
L 102.112191 103.011041
L 102.72219 126.776961
L 103.332188 137.095813
L 103.942187 142.48662
L 104.552185 145.652461
L 105.162183 147.66839
L 105.772182 149.030663
L 106.38218 149.99408
L 106.992179 150.700382
L 108.212175 151.645762
L 109.432172 152.232241
L 111.262168 152.767509
L 113.702161 153.165051
L 117.362152 153.468387
L 122.852137 153.669331
L 130.782117 153.740821
L 133.22211 153.6035
L 133.832109 153.080299
L 134.442107 174.29616
L 135.052105 183.476391
L 135.662104 189.839558
L 136.272102 194.768438
L 137.492099 202.116064
L 138.712096 207.381528
L 139.932093 211.299709
L 141.152089 214.258805
L 142.372086 216.495959
L 143.592083 218.169325
L 144.81208 219.390726
L 146.032077 220.242575
L 147.252073 220.787504
L 148.47207 221.07425
L 149.692067 221.141437
L 150.912064 221.020131
L 152.742059 220.538782
L 154.572054 219.756393
L 156.40205 218.723751
L 158.842043 217.023194
L 161.282037 215.013146
L 163.72203 212.740348
L 166.772022 209.575774
L 169.822014 206.080921
L 172.872007 202.261117
L 175.921999 198.092798
L 178.971991 193.514604
L 181.411984 189.477443
L 183.851978 184.985648
L 185.681973 181.192812
L 187.511968 176.844169
L 188.731965 173.457787
L 189.951962 169.390758
L 190.56196 166.907539
L 191.171959 163.836379
L 192.391956 154.143252
L 194.221951 154.040453
L 205.201922 153.996992
L 319.881622 153.974546
L 375.391477 153.973171
L 375.391477 153.973171
" clip-path="url(#p2b4319b5b7)" style="fill: none; stroke-dasharray: 5.55,2.4; stroke-dashoffset: 0; stroke: #000000; stroke-opacity: 0.7; stroke-width: 1.5"/>
   </g>
   <g id="line2d_14">
    <path d="M 123.076838 -1
L 124.682132 21.996549
L 126.512128 45.56902
L 129.56212 81.235794
L 132.002113 110.221047
L 132.612112 118.635568
L 133.22211 128.627331
L 133.832109 144.449184
L 134.442107 154.350711
L 135.662104 154.148835
L 139.322094 154.03376
L 152.132061 153.965161
L 191.171959 153.856982
L 191.781957 153.758566
L 192.391956 147.519563
L 193.001954 143.460653
L 194.221951 138.25467
L 195.441948 134.427544
L 196.661944 131.271134
L 198.49194 127.282756
L 200.321935 123.877791
L 202.15193 120.875576
L 204.591924 117.329057
L 207.031917 114.176428
L 210.081909 110.657566
L 213.131901 107.506264
L 216.181893 104.649298
L 219.841884 101.538131
L 223.501874 98.713548
L 227.771863 95.7189
L 232.041852 92.996213
L 236.921839 90.164769
L 241.801826 87.587098
L 247.291812 84.94509
L 253.391796 82.282251
L 259.49178 79.864192
L 266.201763 77.445776
L 273.521743 75.054338
L 281.451723 72.711634
L 289.9917 70.434413
L 299.141677 68.235058
L 308.901651 66.122234
L 319.271624 64.101514
L 330.861594 62.074746
L 343.061562 60.164831
L 356.481527 58.287061
L 371.121488 56.462649
L 375.391477 55.969041
L 375.391477 55.969041
" clip-path="url(#p2b4319b5b7)" style="fill: none; stroke: #ff0000; stroke-opacity: 0.7; stroke-width: 1.5; stroke-linecap: square"/>
   </g>
   <g id="patch_3">
    <path d="M 55.782813 282.021875
L 55.782813 25.92
" style="fill: none; stroke: #000000; stroke-width: 0.8; stroke-linejoin: miter; stroke-linecap: square"/>
   </g>
   <g id="patch_4">
    <path d="M 390.610937 282.021875
L 390.610937 25.92
" style="fill: none; stroke: #000000; stroke-width: 0.8; stroke-linejoin: miter; stroke-linecap: square"/>
   </g>
   <g id="patch_5">
    <path d="M 55.782813 282.021875
L 390.610938 282.021875
" style="fill: none; stroke: #000000; stroke-width: 0.8; stroke-linejoin: miter; stroke-linecap: square"/>
   </g>
   <g id="patch_6">
    <path d="M 55.782813 25.92
L 390.610938 25.92
" style="fill: none; stroke: #000000; stroke-width: 0.8; stroke-linejoin: miter; stroke-linecap: square"/>
   </g>
   <g id="text_13">
    <!-- Complex phase space factor $\rho$ -->
    <g transform="translate(131.996875 19.92)scale(0.12 -0.12)">
     <defs>
      <path id="DejaVuSans-43" d="M 4122 4306
L 4122 3641
Q 3803 3938 3442 4084
Q 3081 4231 2675 4231
Q 1875 4231 1450 3742
Q 1025 3253 1025 2328
Q 1025 1406 1450 917
Q 1875 428 2675 428
Q 3081 428 3442 575
Q 3803 722 4122 1019
L 4122 359
Q 3791 134 3420 21
Q 3050 -91 2638 -91
Q 1578 -91 968 557
Q 359 1206 359 2328
Q 359 3453 968 4101
Q 1578 4750 2638 4750
Q 3056 4750 3426 4639
Q 3797 4528 4122 4306
z
" transform="scale(0.015625)"/>
      <path id="DejaVuSans-6f" d="M 1959 3097
Q 1497 3097 1228 2736
Q 959 2375 959 1747
Q 959 1119 1226 758
Q 1494 397 1959 397
Q 2419 397 2687 759
Q 2956 1122 2956 1747
Q 2956 2369 2687 2733
Q 2419 3097 1959 3097
z
M 1959 3584
Q 2709 3584 3137 3096
Q 3566 2609 3566 1747
Q 3566 888 3137 398
Q 2709 -91 1959 -91
Q 1206 -91 779 398
Q 353 888 353 1747
Q 353 2609 779 3096
Q 1206 3584 1959 3584
z
" transform="scale(0.015625)"/>
      <path id="DejaVuSans-6d" d="M 3328 2828
Q 3544 3216 3844 3400
Q 4144 3584 4550 3584
Q 5097 3584 5394 3201
Q 5691 2819 5691 2113
L 5691 0
L 5113 0
L 5113 2094
Q 5113 2597 4934 2840
Q 4756 3084 4391 3084
Q 3944 3084 3684 2787
Q 3425 2491 3425 1978
L 3425 0
L 2847 0
L 2847 2094
Q 2847 2600 2669 2842
Q 2491 3084 2119 3084
Q 1678 3084 1418 2786
Q 1159 2488 1159 1978
L 1159 0
L 581 0
L 581 3500
L 1159 3500
L 1159 2956
Q 1356 3278 1631 3431
Q 1906 3584 2284 3584
Q 2666 3584 2933 3390
Q 3200 3197 3328 2828
z
" transform="scale(0.015625)"/>
      <path id="DejaVuSans-70" d="M 1159 525
L 1159 -1331
L 581 -1331
L 581 3500
L 1159 3500
L 1159 2969
Q 1341 3281 1617 3432
Q 1894 3584 2278 3584
Q 2916 3584 3314 3078
Q 3713 2572 3713 1747
Q 3713 922 3314 415
Q 2916 -91 2278 -91
Q 1894 -91 1617 61
Q 1341 213 1159 525
z
M 3116 1747
Q 3116 2381 2855 2742
Q 2594 3103 2138 3103
Q 1681 3103 1420 2742
Q 1159 2381 1159 1747
Q 1159 1113 1420 752
Q 1681 391 2138 391
Q 2594 391 2855 752
Q 3116 1113 3116 1747
z
" transform="scale(0.015625)"/>
      <path id="DejaVuSans-6c" d="M 603 4863
L 1178 4863
L 1178 0
L 603 0
L 603 4863
z
" transform="scale(0.015625)"/>
      <path id="DejaVuSans-78" d="M 3513 3500
L 2247 1797
L 3578 0
L 2900 0
L 1881 1375
L 863 0
L 184 0
L 1544 1831
L 300 3500
L 978 3500
L 1906 2253
L 2834 3500
L 3513 3500
z
" transform="scale(0.015625)"/>
      <path id="DejaVuSans-68" d="M 3513 2113
L 3513 0
L 2938 0
L 2938 2094
Q 2938 2591 2744 2837
Q 2550 3084 2163 3084
Q 1697 3084 1428 2787
Q 1159 2491 1159 1978
L 1159 0
L 581 0
L 581 4863
L 1159 4863
L 1159 2956
Q 1366 3272 1645 3428
Q 1925 3584 2291 3584
Q 2894 3584 3203 3211
Q 3513 2838 3513 2113
z
" transform="scale(0.015625)"/>
      <path id="DejaVuSans-61" d="M 2194 1759
Q 1497 1759 1228 1600
Q 959 1441 959 1056
Q 959 750 1161 570
Q 1363 391 1709 391
Q 2188 391 2477 730
Q 2766 1069 2766 1631
L 2766 1759
L 2194 1759
z
M 3341 1997
L 3341 0
L 2766 0
L 2766 531
Q 2569 213 2275 61
Q 1981 -91 1556 -91
Q 1019 -91 701 211
Q 384 513 384 1019
Q 384 1609 779 1909
Q 1175 2209 1959 2209
L 2766 2209
L 2766 2266
Q 2766 2663 2505 2880
Q 2244 3097 1772 3097
Q 1472 3097 1187 3025
Q 903 2953 641 2809
L 641 3341
Q 956 3463 1253 3523
Q 1550 3584 1831 3584
Q 2591 3584 2966 3190
Q 3341 2797 3341 1997
z
" transform="scale(0.015625)"/>
      <path id="DejaVuSans-73" d="M 2834 3397
L 2834 2853
Q 2591 2978 2328 3040
Q 2066 3103 1784 3103
Q 1356 3103 1142 2972
Q 928 2841 928 2578
Q 928 2378 1081 2264
Q 1234 2150 1697 2047
L 1894 2003
Q 2506 1872 2764 1633
Q 3022 1394 3022 966
Q 3022 478 2636 193
Q 2250 -91 1575 -91
Q 1294 -91 989 -36
Q 684 19 347 128
L 347 722
Q 666 556 975 473
Q 1284 391 1588 391
Q 1994 391 2212 530
Q 2431 669 2431 922
Q 2431 1156 2273 1281
Q 2116 1406 1581 1522
L 1381 1569
Q 847 1681 609 1914
Q 372 2147 372 2553
Q 372 3047 722 3315
Q 1072 3584 1716 3584
Q 2034 3584 2315 3537
Q 2597 3491 2834 3397
z
" transform="scale(0.015625)"/>
      <path id="DejaVuSans-63" d="M 3122 3366
L 3122 2828
Q 2878 2963 2633 3030
Q 2388 3097 2138 3097
Q 1578 3097 1268 2742
Q 959 2388 959 1747
Q 959 1106 1268 751
Q 1578 397 2138 397
Q 2388 397 2633 464
Q 2878 531 3122 666
L 3122 134
Q 2881 22 2623 -34
Q 2366 -91 2075 -91
Q 1284 -91 818 406
Q 353 903 353 1747
Q 353 2603 823 3093
Q 1294 3584 2113 3584
Q 2378 3584 2631 3529
Q 2884 3475 3122 3366
z
" transform="scale(0.015625)"/>
      <path id="DejaVuSans-66" d="M 2375 4863
L 2375 4384
L 1825 4384
Q 1516 4384 1395 4259
Q 1275 4134 1275 3809
L 1275 3500
L 2222 3500
L 2222 3053
L 1275 3053
L 1275 0
L 697 0
L 697 3053
L 147 3053
L 147 3500
L 697 3500
L 697 3744
Q 697 4328 969 4595
Q 1241 4863 1831 4863
L 2375 4863
z
" transform="scale(0.015625)"/>
      <path id="DejaVuSans-74" d="M 1172 4494
L 1172 3500
L 2356 3500
L 2356 3053
L 1172 3053
L 1172 1153
Q 1172 725 1289 603
Q 1406 481 1766 481
L 2356 481
L 2356 0
L 1766 0
Q 1100 0 847 248
Q 594 497 594 1153
L 594 3053
L 172 3053
L 172 3500
L 594 3500
L 594 4494
L 1172 4494
z
" transform="scale(0.015625)"/>
      <path id="DejaVuSans-72" d="M 2631 2963
Q 2534 3019 2420 3045
Q 2306 3072 2169 3072
Q 1681 3072 1420 2755
Q 1159 2438 1159 1844
L 1159 0
L 581 0
L 581 3500
L 1159 3500
L 1159 2956
Q 1341 3275 1631 3429
Q 1922 3584 2338 3584
Q 2397 3584 2469 3576
Q 2541 3569 2628 3553
L 2631 2963
z
" transform="scale(0.015625)"/>
     </defs>
     <use xlink:href="#DejaVuSans-43" transform="translate(0 0.015625)"/>
     <use xlink:href="#DejaVuSans-6f" transform="translate(69.824219 0.015625)"/>
     <use xlink:href="#DejaVuSans-6d" transform="translate(131.005859 0.015625)"/>
     <use xlink:href="#DejaVuSans-70" transform="translate(228.417969 0.015625)"/>
     <use xlink:href="#DejaVuSans-6c" transform="translate(291.894531 0.015625)"/>
     <use xlink:href="#DejaVuSans-65" transform="translate(319.677734 0.015625)"/>
     <use xlink:href="#DejaVuSans-78" transform="translate(381.201172 0.015625)"/>
     <use xlink:href="#DejaVuSans-20" transform="translate(440.380859 0.015625)"/>
     <use xlink:href="#DejaVuSans-70" transform="translate(472.167969 0.015625)"/>
     <use xlink:href="#DejaVuSans-68" transform="translate(535.644531 0.015625)"/>
     <use xlink:href="#DejaVuSans-61" transform="translate(599.023438 0.015625)"/>
     <use xlink:href="#DejaVuSans-73" transform="translate(660.302734 0.015625)"/>
     <use xlink:href="#DejaVuSans-65" transform="translate(712.402344 0.015625)"/>
     <use xlink:href="#DejaVuSans-20" transform="translate(773.925781 0.015625)"/>
     <use xlink:href="#DejaVuSans-73" transform="translate(805.712891 0.015625)"/>
     <use xlink:href="#DejaVuSans-70" transform="translate(857.8125 0.015625)"/>
     <use xlink:href="#DejaVuSans-61" transform="translate(921.289062 0.015625)"/>
     <use xlink:href="#DejaVuSans-63" transform="translate(982.568359 0.015625)"/>
     <use xlink:href="#DejaVuSans-65" transform="translate(1037.548828 0.015625)"/>
     <use xlink:href="#DejaVuSans-20" transform="translate(1099.072266 0.015625)"/>
     <use xlink:href="#DejaVuSans-66" transform="translate(1130.859375 0.015625)"/>
     <use xlink:href="#DejaVuSans-61" transform="translate(1166.064453 0.015625)"/>
     <use xlink:href="#DejaVuSans-63" transform="translate(1227.34375 0.015625)"/>
     <use xlink:href="#DejaVuSans-74" transform="translate(1282.324219 0.015625)"/>
     <use xlink:href="#DejaVuSans-6f" transform="translate(1321.533203 0.015625)"/>
     <use xlink:href="#DejaVuSans-72" transform="translate(1382.714844 0.015625)"/>
     <use xlink:href="#DejaVuSans-20" transform="translate(1423.828125 0.015625)"/>
     <use xlink:href="#DejaVuSans-Oblique-3c1" transform="translate(1455.615234 0.015625)"/>
    </g>
   </g>
   <g id="legend_1">
    <g id="patch_7">
     <path d="M 302.757812 277.021875
L 383.610937 277.021875
Q 385.610937 277.021875 385.610937 275.021875
L 385.610937 231.9875
Q 385.610937 229.9875 383.610937 229.9875
L 302.757812 229.9875
Q 300.757812 229.9875 300.757812 231.9875
L 300.757812 275.021875
Q 300.757812 277.021875 302.757812 277.021875
z
" style="fill: #ffffff; opacity: 0.8; stroke: #cccccc; stroke-linejoin: miter"/>
    </g>
    <g id="line2d_15">
     <path d="M 304.757812 238.085938
L 314.757812 238.085938
L 324.757812 238.085938
" style="fill: none; stroke: #808080; stroke-width: 0.5; stroke-linecap: square"/>
    </g>
    <g id="text_14">
     <!-- $s_\mathrm{thr}$ -->
     <g transform="translate(332.757812 241.585938)scale(0.1 -0.1)">
      <use xlink:href="#DejaVuSans-Oblique-73"/>
      <use xlink:href="#DejaVuSans-74" transform="translate(52.099609 -16.40625)scale(0.7)"/>
      <use xlink:href="#DejaVuSans-68" transform="translate(79.545898 -16.40625)scale(0.7)"/>
      <use xlink:href="#DejaVuSans-72" transform="translate(123.911133 -16.40625)scale(0.7)"/>
     </g>
    </g>
    <g id="line2d_16">
     <path d="M 304.757812 252.764063
L 314.757812 252.764063
L 324.757812 252.764063
" style="fill: none; stroke-dasharray: 5.55,2.4; stroke-dashoffset: 0; stroke: #000000; stroke-opacity: 0.7; stroke-width: 1.5"/>
    </g>
    <g id="text_15">
     <!-- Real part -->
     <g transform="translate(332.757812 256.264063)scale(0.1 -0.1)">
      <defs>
       <path id="DejaVuSans-52" d="M 2841 2188
Q 3044 2119 3236 1894
Q 3428 1669 3622 1275
L 4263 0
L 3584 0
L 2988 1197
Q 2756 1666 2539 1819
Q 2322 1972 1947 1972
L 1259 1972
L 1259 0
L 628 0
L 628 4666
L 2053 4666
Q 2853 4666 3247 4331
Q 3641 3997 3641 3322
Q 3641 2881 3436 2590
Q 3231 2300 2841 2188
z
M 1259 4147
L 1259 2491
L 2053 2491
Q 2509 2491 2742 2702
Q 2975 2913 2975 3322
Q 2975 3731 2742 3939
Q 2509 4147 2053 4147
L 1259 4147
z
" transform="scale(0.015625)"/>
      </defs>
      <use xlink:href="#DejaVuSans-52"/>
      <use xlink:href="#DejaVuSans-65" x="64.982422"/>
      <use xlink:href="#DejaVuSans-61" x="126.505859"/>
      <use xlink:href="#DejaVuSans-6c" x="187.785156"/>
      <use xlink:href="#DejaVuSans-20" x="215.568359"/>
      <use xlink:href="#DejaVuSans-70" x="247.355469"/>
      <use xlink:href="#DejaVuSans-61" x="310.832031"/>
      <use xlink:href="#DejaVuSans-72" x="372.111328"/>
      <use xlink:href="#DejaVuSans-74" x="413.224609"/>
     </g>
    </g>
    <g id="line2d_17">
     <path d="M 304.757812 267.442187
L 314.757812 267.442187
L 324.757812 267.442187
" style="fill: none; stroke: #ff0000; stroke-opacity: 0.7; stroke-width: 1.5; stroke-linecap: square"/>
    </g>
    <g id="text_16">
     <!-- Imag part -->
     <g transform="translate(332.757812 270.942187)scale(0.1 -0.1)">
      <defs>
       <path id="DejaVuSans-49" d="M 628 4666
L 1259 4666
L 1259 0
L 628 0
L 628 4666
z
" transform="scale(0.015625)"/>
       <path id="DejaVuSans-67" d="M 2906 1791
Q 2906 2416 2648 2759
Q 2391 3103 1925 3103
Q 1463 3103 1205 2759
Q 947 2416 947 1791
Q 947 1169 1205 825
Q 1463 481 1925 481
Q 2391 481 2648 825
Q 2906 1169 2906 1791
z
M 3481 434
Q 3481 -459 3084 -895
Q 2688 -1331 1869 -1331
Q 1566 -1331 1297 -1286
Q 1028 -1241 775 -1147
L 775 -588
Q 1028 -725 1275 -790
Q 1522 -856 1778 -856
Q 2344 -856 2625 -561
Q 2906 -266 2906 331
L 2906 616
Q 2728 306 2450 153
Q 2172 0 1784 0
Q 1141 0 747 490
Q 353 981 353 1791
Q 353 2603 747 3093
Q 1141 3584 1784 3584
Q 2172 3584 2450 3431
Q 2728 3278 2906 2969
L 2906 3500
L 3481 3500
L 3481 434
z
" transform="scale(0.015625)"/>
      </defs>
      <use xlink:href="#DejaVuSans-49"/>
      <use xlink:href="#DejaVuSans-6d" x="29.492188"/>
      <use xlink:href="#DejaVuSans-61" x="126.904297"/>
      <use xlink:href="#DejaVuSans-67" x="188.183594"/>
      <use xlink:href="#DejaVuSans-20" x="251.660156"/>
      <use xlink:href="#DejaVuSans-70" x="283.447266"/>
      <use xlink:href="#DejaVuSans-61" x="346.923828"/>
      <use xlink:href="#DejaVuSans-72" x="408.203125"/>
      <use xlink:href="#DejaVuSans-74" x="449.316406"/>
     </g>
    </g>
   </g>
  </g>
  <g id="axes_2">
   <g id="patch_8">
    <path d="M 446.371875 282.021875
L 781.2 282.021875
L 781.2 25.92
L 446.371875 25.92
z
" style="fill: #ffffff"/>
   </g>
   <g id="matplotlib.axis_3">
    <g id="xtick_6">
     <g id="line2d_18">
      <g>
       <use xlink:href="#m39bf411a37" x="491.048355" y="282.021875" style="stroke: #000000; stroke-width: 0.8"/>
      </g>
     </g>
     <g id="text_17">
      <!-- 0.0 -->
      <g transform="translate(483.096793 296.620313)scale(0.1 -0.1)">
       <use xlink:href="#DejaVuSans-30"/>
       <use xlink:href="#DejaVuSans-2e" x="63.623047"/>
       <use xlink:href="#DejaVuSans-30" x="95.410156"/>
      </g>
     </g>
    </g>
    <g id="xtick_7">
     <g id="line2d_19">
      <g>
       <use xlink:href="#m39bf411a37" x="549.962395" y="282.021875" style="stroke: #000000; stroke-width: 0.8"/>
      </g>
     </g>
     <g id="text_18">
      <!-- 0.3 -->
      <g transform="translate(542.010832 296.620313)scale(0.1 -0.1)">
       <use xlink:href="#DejaVuSans-30"/>
       <use xlink:href="#DejaVuSans-2e" x="63.623047"/>
       <use xlink:href="#DejaVuSans-33" x="95.410156"/>
      </g>
     </g>
    </g>
    <g id="xtick_8">
     <g id="line2d_20">
      <g>
       <use xlink:href="#m39bf411a37" x="608.876434" y="282.021875" style="stroke: #000000; stroke-width: 0.8"/>
      </g>
     </g>
     <g id="text_19">
      <!-- 0.6 -->
      <g transform="translate(600.924872 296.620313)scale(0.1 -0.1)">
       <use xlink:href="#DejaVuSans-30"/>
       <use xlink:href="#DejaVuSans-2e" x="63.623047"/>
       <use xlink:href="#DejaVuSans-36" x="95.410156"/>
      </g>
     </g>
    </g>
    <g id="xtick_9">
     <g id="line2d_21">
      <g>
       <use xlink:href="#m39bf411a37" x="667.790474" y="282.021875" style="stroke: #000000; stroke-width: 0.8"/>
      </g>
     </g>
     <g id="text_20">
      <!-- 0.9 -->
      <g transform="translate(659.838911 296.620313)scale(0.1 -0.1)">
       <use xlink:href="#DejaVuSans-30"/>
       <use xlink:href="#DejaVuSans-2e" x="63.623047"/>
       <use xlink:href="#DejaVuSans-39" x="95.410156"/>
      </g>
     </g>
    </g>
    <g id="xtick_10">
     <g id="line2d_22">
      <g>
       <use xlink:href="#m39bf411a37" x="726.704513" y="282.021875" style="stroke: #000000; stroke-width: 0.8"/>
      </g>
     </g>
     <g id="text_21">
      <!-- 1.2 -->
      <g transform="translate(718.752951 296.620313)scale(0.1 -0.1)">
       <use xlink:href="#DejaVuSans-31"/>
       <use xlink:href="#DejaVuSans-2e" x="63.623047"/>
       <use xlink:href="#DejaVuSans-32" x="95.410156"/>
      </g>
     </g>
    </g>
    <g id="text_22">
     <!-- $s$ (GeV$^2$) -->
     <g transform="translate(592.885937 311.120313)scale(0.1 -0.1)">
      <use xlink:href="#DejaVuSans-Oblique-73" transform="translate(0 0.765625)"/>
      <use xlink:href="#DejaVuSans-20" transform="translate(52.099609 0.765625)"/>
      <use xlink:href="#DejaVuSans-28" transform="translate(83.886719 0.765625)"/>
      <use xlink:href="#DejaVuSans-47" transform="translate(122.900391 0.765625)"/>
      <use xlink:href="#DejaVuSans-65" transform="translate(200.390625 0.765625)"/>
      <use xlink:href="#DejaVuSans-56" transform="translate(261.914062 0.765625)"/>
      <use xlink:href="#DejaVuSans-32" transform="translate(331.279297 39.046875)scale(0.7)"/>
      <use xlink:href="#DejaVuSans-29" transform="translate(378.549805 0.765625)"/>
     </g>
    </g>
   </g>
   <g id="matplotlib.axis_4">
    <g id="ytick_6">
     <g id="line2d_23">
      <g>
       <use xlink:href="#m5fa49d9f2b" x="446.371875" y="282.021875" style="stroke: #000000; stroke-width: 0.8"/>
      </g>
     </g>
     <g id="text_23">
      <!-- −1.0 -->
      <g transform="translate(415.089062 285.821094)scale(0.1 -0.1)">
       <use xlink:href="#DejaVuSans-2212"/>
       <use xlink:href="#DejaVuSans-31" x="83.789062"/>
       <use xlink:href="#DejaVuSans-2e" x="147.412109"/>
       <use xlink:href="#DejaVuSans-30" x="179.199219"/>
      </g>
     </g>
    </g>
    <g id="ytick_7">
     <g id="line2d_24">
      <g>
       <use xlink:href="#m5fa49d9f2b" x="446.371875" y="217.996406" style="stroke: #000000; stroke-width: 0.8"/>
      </g>
     </g>
     <g id="text_24">
      <!-- −0.5 -->
      <g transform="translate(415.089062 221.795625)scale(0.1 -0.1)">
       <use xlink:href="#DejaVuSans-2212"/>
       <use xlink:href="#DejaVuSans-30" x="83.789062"/>
       <use xlink:href="#DejaVuSans-2e" x="147.412109"/>
       <use xlink:href="#DejaVuSans-35" x="179.199219"/>
      </g>
     </g>
    </g>
    <g id="ytick_8">
     <g id="line2d_25">
      <g>
       <use xlink:href="#m5fa49d9f2b" x="446.371875" y="153.970937" style="stroke: #000000; stroke-width: 0.8"/>
      </g>
     </g>
     <g id="text_25">
      <!-- 0.0 -->
      <g transform="translate(423.46875 157.770156)scale(0.1 -0.1)">
       <use xlink:href="#DejaVuSans-30"/>
       <use xlink:href="#DejaVuSans-2e" x="63.623047"/>
       <use xlink:href="#DejaVuSans-30" x="95.410156"/>
      </g>
     </g>
    </g>
    <g id="ytick_9">
     <g id="line2d_26">
      <g>
       <use xlink:href="#m5fa49d9f2b" x="446.371875" y="89.945469" style="stroke: #000000; stroke-width: 0.8"/>
      </g>
     </g>
     <g id="text_26">
      <!-- 0.5 -->
      <g transform="translate(423.46875 93.744687)scale(0.1 -0.1)">
       <use xlink:href="#DejaVuSans-30"/>
       <use xlink:href="#DejaVuSans-2e" x="63.623047"/>
       <use xlink:href="#DejaVuSans-35" x="95.410156"/>
      </g>
     </g>
    </g>
    <g id="ytick_10">
     <g id="line2d_27">
      <g>
       <use xlink:href="#m5fa49d9f2b" x="446.371875" y="25.92" style="stroke: #000000; stroke-width: 0.8"/>
      </g>
     </g>
     <g id="text_27">
      <!-- 1.0 -->
      <g transform="translate(423.46875 29.719219)scale(0.1 -0.1)">
       <use xlink:href="#DejaVuSans-31"/>
       <use xlink:href="#DejaVuSans-2e" x="63.623047"/>
       <use xlink:href="#DejaVuSans-30" x="95.410156"/>
      </g>
     </g>
    </g>
    <g id="text_28">
     <!-- $16\pi \; \Sigma(s)$ -->
     <g transform="translate(409.009375 174.370937)rotate(-90)scale(0.1 -0.1)">
      <defs>
       <path id="DejaVuSans-3a3" d="M 1353 531
L 3634 531
L 3634 0
L 628 0
L 628 531
L 2125 2481
L 628 4134
L 628 4666
L 3578 4666
L 3578 4134
L 1353 4134
L 2850 2494
L 1353 531
z
" transform="scale(0.015625)"/>
      </defs>
      <use xlink:href="#DejaVuSans-31" transform="translate(0 0.125)"/>
      <use xlink:href="#DejaVuSans-36" transform="translate(63.623047 0.125)"/>
      <use xlink:href="#DejaVuSans-Oblique-3c0" transform="translate(127.246094 0.125)"/>
      <use xlink:href="#DejaVuSans-3a3" transform="translate(214.510308 0.125)"/>
      <use xlink:href="#DejaVuSans-28" transform="translate(277.693901 0.125)"/>
      <use xlink:href="#DejaVuSans-Oblique-73" transform="translate(316.707573 0.125)"/>
      <use xlink:href="#DejaVuSans-29" transform="translate(368.807183 0.125)"/>
     </g>
    </g>
   </g>
   <g id="line2d_28">
    <path d="M 446.371875 153.970937
L 781.2 153.970937
" clip-path="url(#p69f9f30692)" style="fill: none; stroke: #000000; stroke-width: 0.5; stroke-linecap: square"/>
   </g>
   <g id="line2d_29">
    <path d="M 582.614289 282.021875
L 582.614289 25.92
" clip-path="url(#p69f9f30692)" style="fill: none; stroke: #808080; stroke-width: 0.5; stroke-linecap: square"/>
   </g>
   <g id="line2d_30">
    <path d="M 461.591335 231.898975
L 473.791303 229.09872
L 484.771275 226.359837
L 495.141248 223.544858
L 504.291224 220.83976
L 512.831201 218.089137
L 520.761181 215.298513
L 528.081161 212.475961
L 534.181146 209.903004
L 540.28113 207.083354
L 545.771115 204.285036
L 550.651102 201.538477
L 554.921091 198.884188
L 558.581082 196.374997
L 562.241072 193.591746
L 565.291064 191.004542
L 568.341056 188.097783
L 570.78105 185.467304
L 573.221044 182.46498
L 575.051039 179.875073
L 576.881034 176.86566
L 578.101031 174.520838
L 579.321028 171.763408
L 580.541024 168.324877
L 581.151023 166.155606
L 581.761021 163.398129
L 582.981018 154.331394
L 584.811013 155.165148
L 603.110965 164.132512
L 612.87094 168.603074
L 622.630914 172.825764
L 632.390889 176.807313
L 642.760862 180.788701
L 653.130835 184.532423
L 664.110806 188.259136
L 675.700776 191.952252
L 687.900744 195.598614
L 700.71071 199.188028
L 714.130675 202.712807
L 728.160639 206.167363
L 742.8006 209.547833
L 758.660559 212.979648
L 765.98054 214.49008
L 765.98054 214.49008
" clip-path="url(#p69f9f30692)" style="fill: none; stroke-dasharray: 5.55,2.4; stroke-dashoffset: 0; stroke: #000000; stroke-opacity: 0.7; stroke-width: 1.5"/>
   </g>
   <g id="line2d_31">
    <path d="M 461.591335 153.966613
L 581.761021 153.867076
L 582.37102 153.768649
L 582.981018 147.529634
L 583.591016 143.470711
L 584.811013 138.264698
L 586.03101 134.437537
L 587.251007 131.281089
L 589.081002 127.292647
L 590.910997 123.887612
L 592.740992 120.885322
L 595.180986 117.338696
L 597.62098 114.185953
L 600.670972 110.666943
L 603.720964 107.515488
L 606.770956 104.658366
L 610.430946 101.54701
L 614.090937 98.722237
L 618.360926 95.727371
L 622.630914 93.004468
L 627.510902 90.172783
L 632.390889 87.594879
L 637.880875 84.952617
L 643.980859 82.289509
L 650.080843 79.871194
L 656.790825 77.452512
L 664.110806 75.0608
L 672.040785 72.717819
L 680.580763 70.44032
L 689.730739 68.240689
L 699.490714 66.127595
L 709.860686 64.106611
L 721.450656 62.079574
L 733.650624 60.169402
L 747.070589 58.291375
L 761.710551 56.466712
L 765.98054 55.973034
L 765.98054 55.973034
" clip-path="url(#p69f9f30692)" style="fill: none; stroke: #ff0000; stroke-opacity: 0.7; stroke-width: 1.5; stroke-linecap: square"/>
   </g>
   <g id="patch_9">
    <path d="M 446.371875 282.021875
L 446.371875 25.92
" style="fill: none; stroke: #000000; stroke-width: 0.8; stroke-linejoin: miter; stroke-linecap: square"/>
   </g>
   <g id="patch_10">
    <path d="M 781.2 282.021875
L 781.2 25.92
" style="fill: none; stroke: #000000; stroke-width: 0.8; stroke-linejoin: miter; stroke-linecap: square"/>
   </g>
   <g id="patch_11">
    <path d="M 446.371875 282.021875
L 781.2 282.021875
" style="fill: none; stroke: #000000; stroke-width: 0.8; stroke-linejoin: miter; stroke-linecap: square"/>
   </g>
   <g id="patch_12">
    <path d="M 446.371875 25.92
L 781.2 25.92
" style="fill: none; stroke: #000000; stroke-width: 0.8; stroke-linejoin: miter; stroke-linecap: square"/>
   </g>
   <g id="text_29">
    <!-- Chew-Mandelstam $S$-wave ($L=0$) -->
    <g transform="translate(513.345937 19.92)scale(0.12 -0.12)">
     <defs>
      <path id="DejaVuSans-77" d="M 269 3500
L 844 3500
L 1563 769
L 2278 3500
L 2956 3500
L 3675 769
L 4391 3500
L 4966 3500
L 4050 0
L 3372 0
L 2619 2869
L 1863 0
L 1184 0
L 269 3500
z
" transform="scale(0.015625)"/>
      <path id="DejaVuSans-2d" d="M 313 2009
L 1997 2009
L 1997 1497
L 313 1497
L 313 2009
z
" transform="scale(0.015625)"/>
      <path id="DejaVuSans-4d" d="M 628 4666
L 1569 4666
L 2759 1491
L 3956 4666
L 4897 4666
L 4897 0
L 4281 0
L 4281 4097
L 3078 897
L 2444 897
L 1241 4097
L 1241 0
L 628 0
L 628 4666
z
" transform="scale(0.015625)"/>
      <path id="DejaVuSans-6e" d="M 3513 2113
L 3513 0
L 2938 0
L 2938 2094
Q 2938 2591 2744 2837
Q 2550 3084 2163 3084
Q 1697 3084 1428 2787
Q 1159 2491 1159 1978
L 1159 0
L 581 0
L 581 3500
L 1159 3500
L 1159 2956
Q 1366 3272 1645 3428
Q 1925 3584 2291 3584
Q 2894 3584 3203 3211
Q 3513 2838 3513 2113
z
" transform="scale(0.015625)"/>
      <path id="DejaVuSans-64" d="M 2906 2969
L 2906 4863
L 3481 4863
L 3481 0
L 2906 0
L 2906 525
Q 2725 213 2448 61
Q 2172 -91 1784 -91
Q 1150 -91 751 415
Q 353 922 353 1747
Q 353 2572 751 3078
Q 1150 3584 1784 3584
Q 2172 3584 2448 3432
Q 2725 3281 2906 2969
z
M 947 1747
Q 947 1113 1208 752
Q 1469 391 1925 391
Q 2381 391 2643 752
Q 2906 1113 2906 1747
Q 2906 2381 2643 2742
Q 2381 3103 1925 3103
Q 1469 3103 1208 2742
Q 947 2381 947 1747
z
" transform="scale(0.015625)"/>
      <path id="DejaVuSans-Oblique-53" d="M 3859 4513
L 3738 3897
Q 3422 4066 3111 4152
Q 2800 4238 2509 4238
Q 1944 4238 1609 3991
Q 1275 3744 1275 3334
Q 1275 3109 1398 2989
Q 1522 2869 2034 2731
L 2413 2638
Q 3053 2472 3303 2217
Q 3553 1963 3553 1503
Q 3553 797 2998 353
Q 2444 -91 1538 -91
Q 1166 -91 791 -17
Q 416 56 38 206
L 166 856
Q 513 641 861 531
Q 1209 422 1556 422
Q 2147 422 2503 684
Q 2859 947 2859 1369
Q 2859 1650 2717 1795
Q 2575 1941 2106 2059
L 1728 2156
Q 1081 2325 845 2545
Q 609 2766 609 3163
Q 609 3859 1145 4304
Q 1681 4750 2541 4750
Q 2875 4750 3203 4690
Q 3531 4631 3859 4513
z
" transform="scale(0.015625)"/>
      <path id="DejaVuSans-76" d="M 191 3500
L 800 3500
L 1894 563
L 2988 3500
L 3597 3500
L 2284 0
L 1503 0
L 191 3500
z
" transform="scale(0.015625)"/>
      <path id="DejaVuSans-Oblique-4c" d="M 1075 4666
L 1709 4666
L 909 525
L 3181 525
L 3078 0
L 172 0
L 1075 4666
z
" transform="scale(0.015625)"/>
      <path id="DejaVuSans-3d" d="M 678 2906
L 4684 2906
L 4684 2381
L 678 2381
L 678 2906
z
M 678 1631
L 4684 1631
L 4684 1100
L 678 1100
L 678 1631
z
" transform="scale(0.015625)"/>
     </defs>
     <use xlink:href="#DejaVuSans-43" transform="translate(0 0.015625)"/>
     <use xlink:href="#DejaVuSans-68" transform="translate(69.824219 0.015625)"/>
     <use xlink:href="#DejaVuSans-65" transform="translate(133.203125 0.015625)"/>
     <use xlink:href="#DejaVuSans-77" transform="translate(194.726562 0.015625)"/>
     <use xlink:href="#DejaVuSans-2d" transform="translate(276.513672 0.015625)"/>
     <use xlink:href="#DejaVuSans-4d" transform="translate(312.597656 0.015625)"/>
     <use xlink:href="#DejaVuSans-61" transform="translate(398.876953 0.015625)"/>
     <use xlink:href="#DejaVuSans-6e" transform="translate(460.15625 0.015625)"/>
     <use xlink:href="#DejaVuSans-64" transform="translate(523.535156 0.015625)"/>
     <use xlink:href="#DejaVuSans-65" transform="translate(587.011719 0.015625)"/>
     <use xlink:href="#DejaVuSans-6c" transform="translate(648.535156 0.015625)"/>
     <use xlink:href="#DejaVuSans-73" transform="translate(676.318359 0.015625)"/>
     <use xlink:href="#DejaVuSans-74" transform="translate(728.417969 0.015625)"/>
     <use xlink:href="#DejaVuSans-61" transform="translate(767.626953 0.015625)"/>
     <use xlink:href="#DejaVuSans-6d" transform="translate(828.90625 0.015625)"/>
     <use xlink:href="#DejaVuSans-20" transform="translate(926.318359 0.015625)"/>
     <use xlink:href="#DejaVuSans-Oblique-53" transform="translate(958.105469 0.015625)"/>
     <use xlink:href="#DejaVuSans-2d" transform="translate(1021.582031 0.015625)"/>
     <use xlink:href="#DejaVuSans-77" transform="translate(1057.666016 0.015625)"/>
     <use xlink:href="#DejaVuSans-61" transform="translate(1139.453125 0.015625)"/>
     <use xlink:href="#DejaVuSans-76" transform="translate(1200.732422 0.015625)"/>
     <use xlink:href="#DejaVuSans-65" transform="translate(1259.912109 0.015625)"/>
     <use xlink:href="#DejaVuSans-20" transform="translate(1321.435547 0.015625)"/>
     <use xlink:href="#DejaVuSans-28" transform="translate(1353.222656 0.015625)"/>
     <use xlink:href="#DejaVuSans-Oblique-4c" transform="translate(1392.236328 0.015625)"/>
     <use xlink:href="#DejaVuSans-3d" transform="translate(1467.431641 0.015625)"/>
     <use xlink:href="#DejaVuSans-30" transform="translate(1570.703125 0.015625)"/>
     <use xlink:href="#DejaVuSans-29" transform="translate(1634.326172 0.015625)"/>
    </g>
   </g>
   <g id="legend_2">
    <g id="patch_13">
     <path d="M 693.346875 277.021875
L 774.2 277.021875
Q 776.2 277.021875 776.2 275.021875
L 776.2 231.9875
Q 776.2 229.9875 774.2 229.9875
L 693.346875 229.9875
Q 691.346875 229.9875 691.346875 231.9875
L 691.346875 275.021875
Q 691.346875 277.021875 693.346875 277.021875
z
" style="fill: #ffffff; opacity: 0.8; stroke: #cccccc; stroke-linejoin: miter"/>
    </g>
    <g id="line2d_32">
     <path d="M 695.346875 238.085938
L 705.346875 238.085938
L 715.346875 238.085938
" style="fill: none; stroke: #808080; stroke-width: 0.5; stroke-linecap: square"/>
    </g>
    <g id="text_30">
     <!-- $s_\mathrm{thr}$ -->
     <g transform="translate(723.346875 241.585938)scale(0.1 -0.1)">
      <use xlink:href="#DejaVuSans-Oblique-73"/>
      <use xlink:href="#DejaVuSans-74" transform="translate(52.099609 -16.40625)scale(0.7)"/>
      <use xlink:href="#DejaVuSans-68" transform="translate(79.545898 -16.40625)scale(0.7)"/>
      <use xlink:href="#DejaVuSans-72" transform="translate(123.911133 -16.40625)scale(0.7)"/>
     </g>
    </g>
    <g id="line2d_33">
     <path d="M 695.346875 252.764063
L 705.346875 252.764063
L 715.346875 252.764063
" style="fill: none; stroke-dasharray: 5.55,2.4; stroke-dashoffset: 0; stroke: #000000; stroke-opacity: 0.7; stroke-width: 1.5"/>
    </g>
    <g id="text_31">
     <!-- Real part -->
     <g transform="translate(723.346875 256.264063)scale(0.1 -0.1)">
      <use xlink:href="#DejaVuSans-52"/>
      <use xlink:href="#DejaVuSans-65" x="64.982422"/>
      <use xlink:href="#DejaVuSans-61" x="126.505859"/>
      <use xlink:href="#DejaVuSans-6c" x="187.785156"/>
      <use xlink:href="#DejaVuSans-20" x="215.568359"/>
      <use xlink:href="#DejaVuSans-70" x="247.355469"/>
      <use xlink:href="#DejaVuSans-61" x="310.832031"/>
      <use xlink:href="#DejaVuSans-72" x="372.111328"/>
      <use xlink:href="#DejaVuSans-74" x="413.224609"/>
     </g>
    </g>
    <g id="line2d_34">
     <path d="M 695.346875 267.442187
L 705.346875 267.442187
L 715.346875 267.442187
" style="fill: none; stroke: #ff0000; stroke-opacity: 0.7; stroke-width: 1.5; stroke-linecap: square"/>
    </g>
    <g id="text_32">
     <!-- Imag part -->
     <g transform="translate(723.346875 270.942187)scale(0.1 -0.1)">
      <use xlink:href="#DejaVuSans-49"/>
      <use xlink:href="#DejaVuSans-6d" x="29.492188"/>
      <use xlink:href="#DejaVuSans-61" x="126.904297"/>
      <use xlink:href="#DejaVuSans-67" x="188.183594"/>
      <use xlink:href="#DejaVuSans-20" x="251.660156"/>
      <use xlink:href="#DejaVuSans-70" x="283.447266"/>
      <use xlink:href="#DejaVuSans-61" x="346.923828"/>
      <use xlink:href="#DejaVuSans-72" x="408.203125"/>
      <use xlink:href="#DejaVuSans-74" x="449.316406"/>
     </g>
    </g>
   </g>
  </g>
 </g>
 <defs>
  <clipPath id="p2b4319b5b7">
   <rect x="55.782813" y="25.92" width="334.828125" height="256.101875"/>
  </clipPath>
  <clipPath id="p69f9f30692">
   <rect x="446.371875" y="25.92" width="334.828125" height="256.101875"/>
  </clipPath>
 </defs>
</svg>
