<?xml version="1.0" encoding="utf-8" standalone="no"?>
<!DOCTYPE svg PUBLIC "-//W3C//DTD SVG 1.1//EN"
  "http://www.w3.org/Graphics/SVG/1.1/DTD/svg11.dtd">
<svg height="345.6pt" version="1.1" viewBox="0 0 460.8 345.6" width="460.8pt" xmlns="http://www.w3.org/2000/svg" xmlns:xlink="http://www.w3.org/1999/xlink">
 <metadata>
  <rdf:RDF xmlns:cc="http://creativecommons.org/ns#" xmlns:dc="http://purl.org/dc/elements/1.1/" xmlns:rdf="http://www.w3.org/1999/02/22-rdf-syntax-ns#">
   <cc:Work>
    <dc:type rdf:resource="http://purl.org/dc/dcmitype/StillImage"/>
    <dc:date>2021-07-16T14:24:09.804865</dc:date>
    <dc:format>image/svg+xml</dc:format>
    <dc:creator>
     <cc:Agent>
      <dc:title>Matplotlib v3.4.2, https://matplotlib.org/</dc:title>
     </cc:Agent>
    </dc:creator>
   </cc:Work>
  </rdf:RDF>
 </metadata>
 <defs>
  <style type="text/css">*{stroke-linecap:butt;stroke-linejoin:round;}</style>
 </defs>
 <g id="figure_1">
  <g id="patch_1">
   <path d="M 0 345.6
L 460.8 345.6
L 460.8 0
L 0 0
z
" style="fill:#ffffff;"/>
  </g>
  <g id="patch_2">
   <path d="M 103.104 307.584
L 369.216 307.584
L 369.216 41.472
L 103.104 41.472
z
" style="fill:#ffffff;"/>
  </g>
  <g id="pane3d_1">
   <g id="patch_3">
    <path d="M 123.197291 241.969309
L 211.076164 168.307495
L 209.854564 62.073991
L 117.770234 129.272941
" style="fill:#f2f2f2;opacity:0.5;stroke:#f2f2f2;stroke-linejoin:miter;"/>
   </g>
  </g>
  <g id="pane3d_2">
   <g id="patch_4">
    <path d="M 211.076164 168.307495
L 352.090401 209.294766
L 357.122702 99.402171
L 209.854564 62.073991
" style="fill:#e6e6e6;opacity:0.5;stroke:#e6e6e6;stroke-linejoin:miter;"/>
   </g>
  </g>
  <g id="pane3d_3">
   <g id="patch_5">
    <path d="M 123.197291 241.969309
L 272.679269 290.790123
L 352.090401 209.294766
L 211.076164 168.307495
" style="fill:#ececec;opacity:0.5;stroke:#ececec;stroke-linejoin:miter;"/>
   </g>
  </g>
  <g id="axis3d_1">
   <g id="line2d_1">
    <path d="M 123.197291 241.969309
L 272.679269 290.790123
" style="fill:none;stroke:#000000;stroke-linecap:square;stroke-width:0.8;"/>
   </g>
   <g id="text_1">
    <!-- $x$ -->
    <g transform="translate(176.676428 303.76759)scale(0.1 -0.1)">
     <defs>
      <path d="M 3841 3500
L 2234 1784
L 3219 0
L 2559 0
L 1819 1388
L 531 0
L -166 0
L 1556 1844
L 641 3500
L 1300 3500
L 1972 2234
L 3144 3500
L 3841 3500
z
" id="DejaVuSans-Oblique-78" transform="scale(0.015625)"/>
     </defs>
     <use transform="translate(0 0.3125)" xlink:href="#DejaVuSans-Oblique-78"/>
    </g>
   </g>
  </g>
  <g id="axis3d_2">
   <g id="line2d_2">
    <path d="M 352.090401 209.294766
L 272.679269 290.790123
" style="fill:none;stroke:#000000;stroke-linecap:square;stroke-width:0.8;"/>
   </g>
   <g id="text_2">
    <!-- $y$ -->
    <g transform="translate(338.132782 278.968385)scale(0.1 -0.1)">
     <defs>
      <path d="M 1588 -325
Q 1188 -997 936 -1164
Q 684 -1331 294 -1331
L -159 -1331
L -63 -850
L 269 -850
Q 509 -850 678 -719
Q 847 -588 1056 -206
L 1234 128
L 459 3500
L 1069 3500
L 1650 819
L 3256 3500
L 3859 3500
L 1588 -325
z
" id="DejaVuSans-Oblique-79" transform="scale(0.015625)"/>
     </defs>
     <use transform="translate(0 0.3125)" xlink:href="#DejaVuSans-Oblique-79"/>
    </g>
   </g>
  </g>
  <g id="axis3d_3">
   <g id="line2d_3">
    <path d="M 352.090401 209.294766
L 357.122702 99.402171
" style="fill:none;stroke:#000000;stroke-linecap:square;stroke-width:0.8;"/>
   </g>
   <g id="text_3">
    <!-- $\sqrt{x^{a} + \sin^{2}{\left(\frac{y}{b} \right)}}$ -->
    <g transform="translate(397.987299 184.969344)rotate(-87.378092)scale(0.1 -0.1)">
     <defs>
      <path d="M 6970 9933
L 3373 -1888
L 3104 -1888
L 1626 2918
Q 1555 3149 1465 3251
Q 1376 3354 1229 3354
Q 1011 3354 794 3181
L 717 3309
L 1766 4115
L 1926 4115
L 3379 -602
L 3405 -602
L 6605 9933
L 6970 9933
z
" id="STIXSizeOneSym-Regular-221a" transform="scale(0.015625)"/>
      <path d="M 3438 1997
L 3047 0
L 2472 0
L 2578 531
Q 2325 219 2001 64
Q 1678 -91 1281 -91
Q 834 -91 548 182
Q 263 456 263 884
Q 263 1497 752 1853
Q 1241 2209 2100 2209
L 2900 2209
L 2931 2363
Q 2938 2388 2941 2417
Q 2944 2447 2944 2509
Q 2944 2788 2717 2942
Q 2491 3097 2081 3097
Q 1800 3097 1504 3025
Q 1209 2953 897 2809
L 997 3341
Q 1322 3463 1633 3523
Q 1944 3584 2234 3584
Q 2853 3584 3176 3315
Q 3500 3047 3500 2534
Q 3500 2431 3484 2292
Q 3469 2153 3438 1997
z
M 2816 1759
L 2241 1759
Q 1534 1759 1195 1570
Q 856 1381 856 984
Q 856 709 1029 553
Q 1203 397 1509 397
Q 1978 397 2328 733
Q 2678 1069 2791 1631
L 2816 1759
z
" id="DejaVuSans-Oblique-61" transform="scale(0.015625)"/>
      <path d="M 2944 4013
L 2944 2272
L 4684 2272
L 4684 1741
L 2944 1741
L 2944 0
L 2419 0
L 2419 1741
L 678 1741
L 678 2272
L 2419 2272
L 2419 4013
L 2944 4013
z
" id="DejaVuSans-2b" transform="scale(0.015625)"/>
      <path d="M 2834 3397
L 2834 2853
Q 2591 2978 2328 3040
Q 2066 3103 1784 3103
Q 1356 3103 1142 2972
Q 928 2841 928 2578
Q 928 2378 1081 2264
Q 1234 2150 1697 2047
L 1894 2003
Q 2506 1872 2764 1633
Q 3022 1394 3022 966
Q 3022 478 2636 193
Q 2250 -91 1575 -91
Q 1294 -91 989 -36
Q 684 19 347 128
L 347 722
Q 666 556 975 473
Q 1284 391 1588 391
Q 1994 391 2212 530
Q 2431 669 2431 922
Q 2431 1156 2273 1281
Q 2116 1406 1581 1522
L 1381 1569
Q 847 1681 609 1914
Q 372 2147 372 2553
Q 372 3047 722 3315
Q 1072 3584 1716 3584
Q 2034 3584 2315 3537
Q 2597 3491 2834 3397
z
" id="DejaVuSans-73" transform="scale(0.015625)"/>
      <path d="M 603 3500
L 1178 3500
L 1178 0
L 603 0
L 603 3500
z
M 603 4863
L 1178 4863
L 1178 4134
L 603 4134
L 603 4863
z
" id="DejaVuSans-69" transform="scale(0.015625)"/>
      <path d="M 3513 2113
L 3513 0
L 2938 0
L 2938 2094
Q 2938 2591 2744 2837
Q 2550 3084 2163 3084
Q 1697 3084 1428 2787
Q 1159 2491 1159 1978
L 1159 0
L 581 0
L 581 3500
L 1159 3500
L 1159 2956
Q 1366 3272 1645 3428
Q 1925 3584 2291 3584
Q 2894 3584 3203 3211
Q 3513 2838 3513 2113
z
" id="DejaVuSans-6e" transform="scale(0.015625)"/>
      <path d="M 1228 531
L 3431 531
L 3431 0
L 469 0
L 469 531
Q 828 903 1448 1529
Q 2069 2156 2228 2338
Q 2531 2678 2651 2914
Q 2772 3150 2772 3378
Q 2772 3750 2511 3984
Q 2250 4219 1831 4219
Q 1534 4219 1204 4116
Q 875 4013 500 3803
L 500 4441
Q 881 4594 1212 4672
Q 1544 4750 1819 4750
Q 2544 4750 2975 4387
Q 3406 4025 3406 3419
Q 3406 3131 3298 2873
Q 3191 2616 2906 2266
Q 2828 2175 2409 1742
Q 1991 1309 1228 531
z
" id="DejaVuSans-32" transform="scale(0.015625)"/>
      <path d="M 3219 -1555
L 3219 -1786
Q 2144 -774 1517 730
Q 890 2234 890 4115
Q 890 6003 1533 7593
Q 2176 9184 3219 10022
L 3219 9811
Q 2490 9062 1994 7606
Q 1498 6150 1498 4115
Q 1498 563 3219 -1555
z
" id="STIXSizeTwoSym-Regular-28" transform="scale(0.015625)"/>
      <path d="M 3169 2138
Q 3169 2591 2961 2847
Q 2753 3103 2388 3103
Q 2122 3103 1889 2973
Q 1656 2844 1484 2597
Q 1303 2338 1198 1995
Q 1094 1653 1094 1313
Q 1094 881 1298 636
Q 1503 391 1863 391
Q 2134 391 2365 517
Q 2597 644 2772 891
Q 2950 1147 3059 1487
Q 3169 1828 3169 2138
z
M 1381 2969
Q 1594 3256 1914 3420
Q 2234 3584 2584 3584
Q 3122 3584 3439 3221
Q 3756 2859 3756 2241
Q 3756 1734 3570 1259
Q 3384 784 3041 416
Q 2816 172 2522 40
Q 2228 -91 1906 -91
Q 1566 -91 1316 65
Q 1066 222 909 531
L 806 0
L 231 0
L 1178 4863
L 1753 4863
L 1381 2969
z
" id="DejaVuSans-Oblique-62" transform="scale(0.015625)"/>
      <path d="M 730 9792
L 730 10022
Q 1805 9011 2432 7507
Q 3059 6003 3059 4115
Q 3059 2234 2416 643
Q 1773 -947 730 -1786
L 730 -1574
Q 1459 -826 1955 633
Q 2451 2093 2451 4115
Q 2451 7674 730 9792
z
" id="STIXSizeTwoSym-Regular-29" transform="scale(0.015625)"/>
     </defs>
     <use transform="translate(0 -13.78125)scale(0.918366)" xlink:href="#STIXSizeOneSym-Regular-221a"/>
     <use transform="translate(109.611847 1.0125)" xlink:href="#DejaVuSans-Oblique-78"/>
     <use transform="translate(173.25768 39.29375)scale(0.7)" xlink:href="#DejaVuSans-Oblique-61"/>
     <use transform="translate(238.369985 1.0125)" xlink:href="#DejaVuSans-2b"/>
     <use transform="translate(341.641469 1.0125)" xlink:href="#DejaVuSans-73"/>
     <use transform="translate(393.741079 1.0125)" xlink:href="#DejaVuSans-69"/>
     <use transform="translate(421.524282 1.0125)" xlink:href="#DejaVuSans-6e"/>
     <use transform="translate(485.860219 39.29375)scale(0.7)" xlink:href="#DejaVuSans-32"/>
     <use transform="translate(533.130727 -19.703125)scale(0.74945)" xlink:href="#STIXSizeTwoSym-Regular-28"/>
     <use transform="translate(579.305715 59.367187)scale(0.7)" xlink:href="#DejaVuSans-Oblique-79"/>
     <use transform="translate(577.305715 -39.629688)scale(0.7)" xlink:href="#DejaVuSans-Oblique-62"/>
     <use transform="translate(634.239309 -19.703125)scale(0.74945)" xlink:href="#STIXSizeTwoSym-Regular-29"/>
     <path d="M 97.111847 122.5
L 97.111847 128.75
L 692.3393 128.75
L 692.3393 122.5
L 97.111847 122.5
z
"/>
     <path d="M 577.305715 19.809375
L 577.305715 26.059375
L 621.739309 26.059375
L 621.739309 19.809375
L 577.305715 19.809375
z
"/>
    </g>
   </g>
  </g>
  <g id="axes_1">
   <g id="Poly3DCollection_1">
    <path clip-path="url(#p56138da808)" d="M 227.64419 125.76505
L 234.157548 132.404223
L 236.003288 134.484112
L 237.837052 136.885131
L 239.65823 139.369498
L 233.208231 132.334787
L 231.365448 129.99742
L 229.510379 127.7305
z
" style="fill:#e7d7ce;"/>
    <path clip-path="url(#p56138da808)" d="M 221.121029 117.17025
L 227.64419 125.76505
L 229.510379 127.7305
L 231.365448 129.99742
L 233.208231 132.334787
L 226.74979 123.241732
L 224.884994 121.088009
L 223.008189 118.99017
z
" style="fill:#f2c9b4;"/>
    <path clip-path="url(#p56138da808)" d="M 234.157548 132.404223
L 240.675879 137.903146
L 242.501293 140.077153
L 244.313806 142.589282
L 246.113397 145.196412
L 239.65823 139.369498
L 237.837052 136.885131
L 236.003288 134.484112
z
" style="fill:#dadce0;"/>
    <path clip-path="url(#p56138da808)" d="M 240.675879 137.903146
L 247.206894 142.666859
L 249.01193 144.920642
L 250.803075 147.527576
L 252.580931 150.240179
L 246.113397 145.196412
L 244.313806 142.589282
L 242.501293 140.077153
z
" style="fill:#d1dae9;"/>
    <path clip-path="url(#p56138da808)" d="M 214.553381 104.611154
L 221.121029 117.17025
L 223.008189 118.99017
L 224.884994 121.088009
L 226.74979 123.241732
L 220.251414 110.007674
L 218.363135 108.100196
L 216.463105 106.231671
z
" style="fill:#f7aa8c;"/>
    <path clip-path="url(#p56138da808)" d="M 247.206894 142.666859
L 253.755171 146.923427
L 255.539687 149.246316
L 257.309265 151.935874
L 259.065154 154.740968
L 252.580931 150.240179
L 250.803075 147.527576
L 249.01193 144.920642
z
" style="fill:#c7d7f0;"/>
    <path clip-path="url(#p56138da808)" d="M 253.755171 146.923427
L 260.323688 150.812832
L 262.08749 153.196577
L 263.835258 155.959306
L 265.568905 158.846768
L 259.065154 154.740968
L 257.309265 151.935874
L 255.539687 149.246316
z
" style="fill:#bfd3f6;"/>
    <path clip-path="url(#p56138da808)" d="M 260.323688 150.812832
L 266.914515 154.426599
L 268.657384 156.864632
L 270.383072 159.69298
L 272.094178 162.654688
L 265.568905 158.846768
L 263.835258 155.959306
L 262.08749 153.196577
z
" style="fill:#b7cff9;"/>
    <path clip-path="url(#p56138da808)" d="M 207.820155 80.714735
L 214.553381 104.611154
L 216.463105 106.231671
L 218.363135 108.100196
L 220.251414 110.007674
L 213.605107 85.048578
L 211.687492 83.523511
L 209.75842 82.016617
z
" style="fill:#d95847;"/>
    <path clip-path="url(#p56138da808)" d="M 266.914515 154.426599
L 273.529178 157.827545
L 275.250875 160.314516
L 276.9542 163.202309
L 278.642452 166.2316
L 272.094178 162.654688
L 270.383072 159.69298
L 268.657384 156.864632
z
" style="fill:#b1cbfc;"/>
    <path clip-path="url(#p56138da808)" d="M 273.529178 157.827545
L 280.168851 161.060477
L 281.869126 163.591941
L 283.549795 166.534037
L 285.214871 169.625341
L 278.642452 166.2316
L 276.9542 163.202309
L 275.250875 160.314516
z
" style="fill:#abc8fd;"/>
    <path clip-path="url(#p56138da808)" d="M 215.419447 115.130824
L 221.997233 123.47848
L 223.885482 123.497443
L 225.768547 124.300112
L 227.64419 125.76505
L 221.121029 117.17025
L 219.225598 115.821416
L 217.324249 115.101822
z
" style="fill:#f7aa8c;"/>
    <path clip-path="url(#p56138da808)" d="M 221.997233 123.47848
L 228.562717 129.926257
L 230.435438 129.981805
L 232.301042 130.848718
L 234.157548 132.404223
L 227.64419 125.76505
L 225.768547 124.300112
L 223.885482 123.497443
z
" style="fill:#f6bfa6;"/>
    <path clip-path="url(#p56138da808)" d="M 228.562717 129.926257
L 235.132082 135.270118
L 236.98978 135.354802
L 238.83828 136.273705
L 240.675879 137.903146
L 234.157548 132.404223
L 232.301042 130.848718
L 230.435438 129.981805
z
" style="fill:#f1ccb8;"/>
    <path clip-path="url(#p56138da808)" d="M 280.168851 161.060477
L 286.83447 164.158367
L 288.513064 166.730575
L 290.17078 169.722627
L 291.812355 172.871217
L 285.214871 169.625341
L 283.549795 166.534037
L 281.869126 163.591941
z
" style="fill:#a6c4fe;"/>
    <path clip-path="url(#p56138da808)" d="M 208.791 102.915634
L 215.419447 115.130824
L 217.324249 115.101822
L 219.225598 115.821416
L 221.121029 117.17025
L 214.553381 104.611154
L 212.636379 103.422849
L 210.714707 102.819079
z
" style="fill:#ee8468;"/>
    <path clip-path="url(#p56138da808)" d="M 235.132082 135.270118
L 241.713706 139.904339
L 243.556636 140.012901
L 245.38817 140.97518
L 247.206894 142.666859
L 240.675879 137.903146
L 238.83828 136.273705
L 236.98978 135.354802
z
" style="fill:#ebd3c6;"/>
    <path clip-path="url(#p56138da808)" d="M 286.83447 164.158367
L 293.526809 167.146118
L 295.18346 169.755866
L 296.817921 172.794148
L 298.435667 175.995962
L 291.812355 172.871217
L 290.17078 169.722627
L 288.513064 166.730575
z
" style="fill:#a2c1ff;"/>
    <path clip-path="url(#p56138da808)" d="M 241.713706 139.904339
L 248.312524 144.050383
L 250.140803 144.178914
L 251.955389 145.178189
L 253.755171 146.923427
L 247.206894 142.666859
L 245.38817 140.97518
L 243.556636 140.012901
z
" style="fill:#e5d8d1;"/>
    <path clip-path="url(#p56138da808)" d="M 248.312524 144.050383
L 254.931721 147.84389
L 256.745384 147.989372
L 258.542973 149.020725
L 260.323688 150.812832
L 253.755171 146.923427
L 251.955389 145.178189
L 250.140803 144.178914
z
" style="fill:#dfdbd9;"/>
    <path clip-path="url(#p56138da808)" d="M 293.526809 167.146118
L 300.246524 170.042957
L 301.880965 172.687475
L 303.491868 175.768759
L 305.085456 179.020268
L 298.435667 175.995962
L 296.817921 172.794148
L 295.18346 169.755866
z
" style="fill:#9ebeff;"/>
    <path clip-path="url(#p56138da808)" d="M 201.97644 79.576483
L 208.791 102.915634
L 210.714707 102.819079
L 212.636379 103.422849
L 214.553381 104.611154
L 207.820155 80.714735
L 205.875271 79.785618
L 203.926477 79.370108
z
" style="fill:#be242e;"/>
    <path clip-path="url(#p56138da808)" d="M 254.931721 147.84389
L 261.573501 151.373377
L 263.37253 151.533407
L 265.15303 152.592938
L 266.914515 154.426599
L 260.323688 150.812832
L 258.542973 149.020725
L 256.745384 147.989372
z
" style="fill:#dadce0;"/>
    <path clip-path="url(#p56138da808)" d="M 300.246524 170.042957
L 306.994187 172.864007
L 308.606148 175.540877
L 310.193188 178.662339
L 311.762286 181.960447
L 305.085456 179.020268
L 303.491868 175.768759
L 301.880965 172.687475
z
" style="fill:#9abbff;"/>
    <path clip-path="url(#p56138da808)" d="M 209.707215 120.278674
L 216.323577 128.701232
L 218.214239 126.065984
L 220.106092 124.32258
L 221.997233 123.47848
L 215.419447 115.130824
L 213.513607 115.986668
L 211.608925 117.705106
z
" style="fill:#f59f80;"/>
    <path clip-path="url(#p56138da808)" d="M 216.323577 128.701232
L 222.923099 135.210219
L 224.804489 132.525906
L 226.68502 130.76211
L 228.562717 129.926257
L 221.997233 123.47848
L 220.106092 124.32258
L 218.214239 126.065984
z
" style="fill:#f7b497;"/>
    <path clip-path="url(#p56138da808)" d="M 261.573501 151.373377
L 268.239476 154.699494
L 270.023818 154.872115
L 271.787106 155.956651
L 273.529178 157.827545
L 266.914515 154.426599
L 265.15303 152.592938
L 263.37253 151.533407
z
" style="fill:#d5dbe5;"/>
    <path clip-path="url(#p56138da808)" d="M 222.923099 135.210219
L 229.52394 140.607065
L 231.3971 137.88157
L 233.26716 136.100128
L 235.132082 135.270118
L 228.562717 129.926257
L 226.68502 130.76211
L 224.804489 132.525906
z
" style="fill:#f5c1a9;"/>
    <path clip-path="url(#p56138da808)" d="M 203.030809 107.961943
L 209.707215 120.278674
L 211.608925 117.705106
L 213.513607 115.986668
L 215.419447 115.130824
L 208.791 102.915634
L 206.867747 103.788758
L 204.947121 105.473328
z
" style="fill:#e8765c;"/>
    <path clip-path="url(#p56138da808)" d="M 306.994187 172.864007
L 313.770302 175.62136
L 315.359511 178.328452
L 316.922382 181.487601
L 318.46666 184.82957
L 311.762286 181.960447
L 310.193188 178.662339
L 308.606148 175.540877
z
" style="fill:#96b7ff;"/>
    <path clip-path="url(#p56138da808)" d="M 229.52394 140.607065
L 236.135463 145.288843
L 238.001065 142.527538
L 239.861175 140.730261
L 241.713706 139.904339
L 235.132082 135.270118
L 233.26716 136.100128
L 231.3971 137.88157
z
" style="fill:#f2cbb7;"/>
    <path clip-path="url(#p56138da808)" d="M 268.239476 154.699494
L 274.930878 157.865431
L 276.700454 158.049017
L 278.446391 159.155932
L 280.168851 161.060477
L 273.529178 157.827545
L 271.787106 155.956651
L 270.023818 154.872115
z
" style="fill:#d1dae9;"/>
    <path clip-path="url(#p56138da808)" d="M 236.135463 145.288843
L 242.763161 149.478637
L 244.621662 146.6854
L 246.47216 144.873557
L 248.312524 144.050383
L 241.713706 139.904339
L 239.861175 140.730261
L 238.001065 142.527538
z
" style="fill:#edd1c2;"/>
    <path clip-path="url(#p56138da808)" d="M 313.770302 175.62136
L 320.575328 178.324822
L 322.141511 181.060247
L 323.679905 184.254869
L 325.199032 187.63826
L 318.46666 184.82957
L 316.922382 181.487601
L 315.359511 178.328452
z
" style="fill:#93b5fe;"/>
    <path clip-path="url(#p56138da808)" d="M 274.930878 157.865431
L 281.64869 160.902925
L 283.403402 161.096105
L 285.131831 162.223187
L 286.83447 164.158367
L 280.168851 161.060477
L 278.446391 159.155932
L 276.700454 158.049017
z
" style="fill:#cdd9ec;"/>
    <path clip-path="url(#p56138da808)" d="M 204.02885 132.408195
L 210.670169 141.22642
L 212.551071 136.398029
L 214.43557 132.176949
L 216.323577 128.701232
L 209.707215 120.278674
L 207.80974 123.656524
L 205.917054 127.744861
z
" style="fill:#f7af91;"/>
    <path clip-path="url(#p56138da808)" d="M 210.670169 141.22642
L 217.287596 148.048996
L 219.163835 143.089563
L 221.042497 138.7634
L 222.923099 135.210219
L 216.323577 128.701232
L 214.43557 132.176949
L 212.551071 136.398029
z
" style="fill:#f5c2aa;"/>
    <path clip-path="url(#p56138da808)" d="M 242.763161 149.478637
L 249.410564 153.313102
L 251.262289 150.490852
L 253.103398 148.665374
L 254.931721 147.84389
L 248.312524 144.050383
L 246.47216 144.873557
L 244.621662 146.6854
z
" style="fill:#e9d5cb;"/>
    <path clip-path="url(#p56138da808)" d="M 217.287596 148.048996
L 223.901993 153.707188
L 225.775223 148.638482
L 227.649501 144.224824
L 229.52394 140.607065
L 222.923099 135.210219
L 221.042497 138.7634
L 219.163835 143.089563
z
" style="fill:#efcebd;"/>
    <path clip-path="url(#p56138da808)" d="M 196.141174 84.449535
L 203.030809 107.961943
L 204.947121 105.473328
L 206.867747 103.788758
L 208.791 102.915634
L 201.97644 79.576483
L 200.027604 80.476565
L 198.082019 82.103291
z
" style="fill:#b40426;"/>
    <path clip-path="url(#p56138da808)" d="M 320.575328 178.324822
L 327.409683 180.982448
L 328.952565 183.744519
L 330.466173 186.972633
L 331.959817 190.395258
L 325.199032 187.63826
L 323.679905 184.254869
L 322.141511 181.060247
z
" style="fill:#90b2fe;"/>
    <path clip-path="url(#p56138da808)" d="M 197.314063 119.548068
L 204.02885 132.408195
L 205.917054 127.744861
L 207.80974 123.656524
L 209.707215 120.278674
L 203.030809 107.961943
L 201.119854 111.204822
L 199.214501 115.110582
z
" style="fill:#f08a6c;"/>
    <path clip-path="url(#p56138da808)" d="M 223.901993 153.707188
L 230.524118 158.614192
L 232.395483 153.451331
L 234.266361 148.962329
L 236.135463 145.288843
L 229.52394 140.607065
L 227.649501 144.224824
L 225.775223 148.638482
z
" style="fill:#e9d5cb;"/>
    <path clip-path="url(#p56138da808)" d="M 205.035542 157.382456
L 211.665134 164.710883
L 213.540076 159.09866
L 215.413444 153.459384
L 217.287596 148.048996
L 210.670169 141.22642
L 208.792036 146.482922
L 206.914811 151.950794
z
" style="fill:#e2dad5;"/>
    <path clip-path="url(#p56138da808)" d="M 281.64869 160.902925
L 288.393716 163.835917
L 290.133454 164.037516
L 291.844209 165.182878
L 293.526809 167.146118
L 286.83447 164.158367
L 285.131831 162.223187
L 283.403402 161.096105
z
" style="fill:#cad8ef;"/>
    <path clip-path="url(#p56138da808)" d="M 198.372798 147.934814
L 205.035542 157.382456
L 206.914811 151.950794
L 208.792036 146.482922
L 210.670169 141.22642
L 204.02885 132.408195
L 202.143835 137.471815
L 200.259639 142.726252
z
" style="fill:#f0cdbb;"/>
    <path clip-path="url(#p56138da808)" d="M 249.410564 153.313102
L 256.080104 156.881435
L 257.925289 154.032439
L 259.757157 152.19403
L 261.573501 151.373377
L 254.931721 147.84389
L 253.103398 148.665374
L 251.262289 150.490852
z
" style="fill:#e4d9d2;"/>
    <path clip-path="url(#p56138da808)" d="M 211.665134 164.710883
L 218.285743 170.794793
L 220.158463 165.029765
L 222.029976 159.246342
L 223.901993 153.707188
L 217.287596 148.048996
L 215.413444 153.459384
L 213.540076 159.09866
z
" style="fill:#d5dbe5;"/>
    <path clip-path="url(#p56138da808)" d="M 230.524118 158.614192
L 237.160279 163.002802
L 239.03062 157.756883
L 240.898811 153.201414
L 242.763161 149.478637
L 236.135463 145.288843
L 234.266361 148.962329
L 232.395483 153.451331
z
" style="fill:#e1dad6;"/>
    <path clip-path="url(#p56138da808)" d="M 327.409683 180.982448
L 334.273758 183.600928
L 335.79306 186.388126
L 337.281575 189.64795
L 338.749402 193.107836
L 331.959817 190.395258
L 330.466173 186.972633
L 328.952565 183.744519
z
" style="fill:#8caffe;"/>
    <path clip-path="url(#p56138da808)" d="M 218.285743 170.794793
L 224.909873 176.071216
L 226.781871 170.172992
L 228.652946 164.26457
L 230.524118 158.614192
L 223.901993 153.707188
L 222.029976 159.246342
L 220.158463 165.029765
z
" style="fill:#cad8ef;"/>
    <path clip-path="url(#p56138da808)" d="M 191.619723 134.227931
L 198.372798 147.934814
L 200.259639 142.726252
L 202.143835 137.471815
L 204.02885 132.408195
L 197.314063 119.548068
L 195.416825 124.349673
L 193.519993 129.316742
z
" style="fill:#f7b093;"/>
    <path clip-path="url(#p56138da808)" d="M 199.341539 170.811651
L 205.992293 178.602222
L 207.895892 174.734511
L 209.785191 170.017241
L 211.665134 164.710883
L 205.035542 157.382456
L 203.150225 162.511044
L 201.253998 167.06863
z
" style="fill:#c1d4f4;"/>
    <path clip-path="url(#p56138da808)" d="M 256.080104 156.881435
L 262.773548 160.244758
L 264.61237 157.370821
L 266.435092 155.520027
L 268.239476 154.699494
L 261.573501 151.373377
L 259.757157 152.19403
L 257.925289 154.032439
z
" style="fill:#dfdbd9;"/>
    <path clip-path="url(#p56138da808)" d="M 205.992293 178.602222
L 212.628102 185.08249
L 214.524653 181.107014
L 216.409052 176.252659
L 218.285743 170.794793
L 211.665134 164.710883
L 209.785191 170.017241
L 207.895892 174.734511
z
" style="fill:#afcafc;"/>
    <path clip-path="url(#p56138da808)" d="M 288.393716 163.835917
L 295.166637 166.682866
L 296.89128 166.891867
L 298.584186 168.053878
L 300.246524 170.042957
L 293.526809 167.146118
L 291.844209 165.182878
L 290.133454 164.037516
z
" style="fill:#c6d6f1;"/>
    <path clip-path="url(#p56138da808)" d="M 192.648402 160.801758
L 199.341539 170.811651
L 201.253998 167.06863
L 203.150225 162.511044
L 205.035542 157.382456
L 198.372798 147.934814
L 196.478845 152.845602
L 194.572559 157.209162
z
" style="fill:#d7dce3;"/>
    <path clip-path="url(#p56138da808)" d="M 237.160279 163.002802
L 243.814523 167.015971
L 245.68449 161.695475
L 247.550536 157.080295
L 249.410564 153.313102
L 242.763161 149.478637
L 240.898811 153.201414
L 239.03062 157.756883
z
" style="fill:#dbdcde;"/>
    <path clip-path="url(#p56138da808)" d="M 224.909873 176.071216
L 231.54487 180.78749
L 233.417283 174.770685
L 235.288988 168.75146
L 237.160279 163.002802
L 230.524118 158.614192
L 228.652946 164.26457
L 226.781871 170.172992
z
" style="fill:#c0d4f5;"/>
    <path clip-path="url(#p56138da808)" d="M 212.628102 185.08249
L 219.263197 190.708484
L 221.153973 186.637299
L 223.034918 181.661951
L 224.909873 176.071216
L 218.285743 170.794793
L 216.409052 176.252659
L 214.524653 181.107014
z
" style="fill:#a1c0ff;"/>
    <path clip-path="url(#p56138da808)" d="M 190.350488 95.142175
L 197.314063 119.548068
L 199.214501 115.110582
L 201.119854 111.204822
L 203.030809 107.961943
L 196.141174 84.449535
L 194.205844 87.46812
L 192.275955 91.073055
z
" style="fill:#c32e31;"/>
    <path clip-path="url(#p56138da808)" d="M 219.263197 190.708484
L 225.90595 195.739236
L 227.791905 191.581396
L 229.670495 186.497139
L 231.54487 180.78749
L 224.909873 176.071216
L 223.034918 181.661951
L 221.153973 186.637299
z
" style="fill:#94b6ff;"/>
    <path clip-path="url(#p56138da808)" d="M 262.773548 160.244758
L 269.492243 163.446604
L 271.324833 160.549192
L 273.138467 158.686445
L 274.930878 157.865431
L 268.239476 154.699494
L 266.435092 155.520027
L 264.61237 157.370821
z
" style="fill:#dcdddd;"/>
    <path clip-path="url(#p56138da808)" d="M 185.848188 146.359052
L 192.648402 160.801758
L 194.572559 157.209162
L 196.478845 152.845602
L 198.372798 147.934814
L 191.619723 134.227931
L 189.711266 138.851421
L 187.789261 142.961513
z
" style="fill:#efcebd;"/>
    <path clip-path="url(#p56138da808)" d="M 231.54487 180.78749
L 238.19545 185.096121
L 240.069183 178.972057
L 241.94236 172.852978
L 243.814523 167.015971
L 237.160279 163.002802
L 235.288988 168.75146
L 233.417283 174.770685
z
" style="fill:#b7cff9;"/>
    <path clip-path="url(#p56138da808)" d="M 295.166637 166.682866
L 301.968045 169.458274
L 303.677461 169.673789
L 305.352338 170.851028
L 306.994187 172.864007
L 300.246524 170.042957
L 298.584186 168.053878
L 296.89128 166.891867
z
" style="fill:#c4d5f3;"/>
    <path clip-path="url(#p56138da808)" d="M 243.814523 167.015971
L 250.489628 170.747215
L 252.359742 165.358823
L 254.224066 160.689231
L 256.080104 156.881435
L 249.410564 153.313102
L 247.550536 157.080295
L 245.68449 161.695475
z
" style="fill:#d6dce4;"/>
    <path clip-path="url(#p56138da808)" d="M 225.90595 195.739236
L 232.56174 200.334986
L 234.443626 196.097562
L 236.320735 190.913825
L 238.19545 185.096121
L 231.54487 180.78749
L 229.670495 186.497139
L 227.791905 191.581396
z
" style="fill:#89acfd;"/>
    <path clip-path="url(#p56138da808)" d="M 238.19545 185.096121
L 244.864851 189.097238
L 246.740647 182.874949
L 248.615983 176.664713
L 250.489628 170.747215
L 243.814523 167.015971
L 241.94236 172.852978
L 240.069183 178.972057
z
" style="fill:#afcafc;"/>
    <path clip-path="url(#p56138da808)" d="M 269.492243 163.446604
L 276.237255 166.518969
L 278.06371 163.599293
L 279.868286 161.724938
L 281.64869 160.902925
L 274.930878 157.865431
L 273.138467 158.686445
L 271.324833 160.549192
z
" style="fill:#d8dce2;"/>
    <path clip-path="url(#p56138da808)" d="M 193.459923 175.698587
L 200.150085 183.534783
L 202.122992 183.062023
L 204.069421 181.416328
L 205.992293 178.602222
L 199.341539 170.811651
L 197.407667 173.55119
L 195.448062 175.18161
z
" style="fill:#b1cbfc;"/>
    <path clip-path="url(#p56138da808)" d="M 250.489628 170.747215
L 257.18761 174.260745
L 259.058297 168.809846
L 260.921243 164.090106
L 262.773548 160.244758
L 256.080104 156.881435
L 254.224066 160.689231
L 252.359742 165.358823
z
" style="fill:#d1dae9;"/>
    <path clip-path="url(#p56138da808)" d="M 200.150085 183.534783
L 206.822124 190.055604
L 208.780431 189.620709
L 210.714752 187.961437
L 212.628102 185.08249
L 205.992293 178.602222
L 204.069421 181.416328
L 202.122992 183.062023
z
" style="fill:#9dbdff;"/>
    <path clip-path="url(#p56138da808)" d="M 301.968045 169.458274
L 308.798462 172.173725
L 310.492513 172.394969
L 312.149174 173.586186
L 313.770302 175.62136
L 306.994187 172.864007
L 305.352338 170.851028
L 303.677461 169.673789
z
" style="fill:#c0d4f5;"/>
    <path clip-path="url(#p56138da808)" d="M 186.721838 165.634315
L 193.459923 175.698587
L 195.448062 175.18161
L 197.407667 173.55119
L 199.341539 170.811651
L 192.648402 160.801758
L 190.701132 163.451806
L 188.726494 165.064018
z
" style="fill:#cad8ef;"/>
    <path clip-path="url(#p56138da808)" d="M 184.575396 108.476373
L 191.619723 134.227931
L 193.519993 129.316742
L 195.416825 124.349673
L 197.314063 119.548068
L 190.350488 95.142175
L 188.427412 99.521468
L 186.503698 104.031503
z
" style="fill:#de614d;"/>
    <path clip-path="url(#p56138da808)" d="M 232.56174 200.334986
L 239.234262 204.60127
L 241.112688 200.289943
L 242.989036 195.014301
L 244.864851 189.097238
L 238.19545 185.096121
L 236.320735 190.913825
L 234.443626 196.097562
z
" style="fill:#81a4fb;"/>
    <path clip-path="url(#p56138da808)" d="M 206.822124 190.055604
L 213.491458 195.718915
L 215.435483 195.317161
L 217.358365 193.645398
L 219.263197 190.708484
L 212.628102 185.08249
L 210.714752 187.961437
L 208.780431 189.620709
z
" style="fill:#8db0fe;"/>
    <path clip-path="url(#p56138da808)" d="M 244.864851 189.097238
L 251.555416 192.85983
L 253.433902 186.546693
L 255.311976 180.252372
L 257.18761 174.260745
L 250.489628 170.747215
L 248.615983 176.664713
L 246.740647 182.874949
z
" style="fill:#a9c6fd;"/>
    <path clip-path="url(#p56138da808)" d="M 276.237255 166.518969
L 283.009455 169.485988
L 284.829845 166.545059
L 286.625371 164.659378
L 288.393716 163.835917
L 281.64869 160.902925
L 279.868286 161.724938
L 278.06371 163.599293
z
" style="fill:#d5dbe5;"/>
    <path clip-path="url(#p56138da808)" d="M 213.491458 195.718915
L 220.167137 200.784778
L 222.097024 200.412493
L 224.008908 198.728979
L 225.90595 195.739236
L 219.263197 190.708484
L 217.358365 193.645398
L 215.435483 195.317161
z
" style="fill:#80a3fa;"/>
    <path clip-path="url(#p56138da808)" d="M 257.18761 174.260745
L 263.909996 177.60238
L 265.781615 172.093407
L 267.643466 167.327011
L 269.492243 163.446604
L 262.773548 160.244758
L 260.921243 164.090106
L 259.058297 168.809846
z
" style="fill:#cdd9ec;"/>
    <path clip-path="url(#p56138da808)" d="M 239.234262 204.60127
L 245.926187 208.611006
L 247.801662 204.230451
L 249.677857 198.869125
L 251.555416 192.85983
L 244.864851 189.097238
L 242.989036 195.014301
L 241.112688 200.289943
z
" style="fill:#799cf8;"/>
    <path clip-path="url(#p56138da808)" d="M 308.798462 172.173725
L 315.658358 174.838607
L 317.336901 175.06488
L 318.975156 176.268965
L 320.575328 178.324822
L 313.770302 175.62136
L 312.149174 173.586186
L 310.492513 172.394969
z
" style="fill:#bed2f6;"/>
    <path clip-path="url(#p56138da808)" d="M 179.865401 151.11939
L 186.721838 165.634315
L 188.726494 165.064018
L 190.701132 163.451806
L 192.648402 160.801758
L 185.848188 146.359052
L 183.882949 148.893348
L 181.889501 150.481386
z
" style="fill:#e7d7ce;"/>
    <path clip-path="url(#p56138da808)" d="M 220.167137 200.784778
L 226.854963 205.414073
L 228.770751 205.068306
L 230.671938 203.373567
L 232.56174 200.334986
L 225.90595 195.739236
L 224.008908 198.728979
L 222.097024 200.412493
z
" style="fill:#7597f6;"/>
    <path clip-path="url(#p56138da808)" d="M 251.555416 192.85983
L 258.268915 196.433281
L 260.150633 190.03543
L 262.031941 183.662884
L 263.909996 177.60238
L 257.18761 174.260745
L 255.311976 180.252372
L 253.433902 186.546693
z
" style="fill:#a3c2fe;"/>
    <path clip-path="url(#p56138da808)" d="M 178.71457 119.479182
L 185.848188 146.359052
L 187.789261 142.961513
L 189.711266 138.851421
L 191.619723 134.227931
L 184.575396 108.476373
L 182.637833 112.655478
L 180.68592 116.377999
z
" style="fill:#f08b6e;"/>
    <path clip-path="url(#p56138da808)" d="M 263.909996 177.60238
L 270.657988 180.805851
L 272.530846 175.242508
L 274.391838 170.432366
L 276.237255 166.518969
L 269.492243 163.446604
L 267.643466 167.327011
L 265.781615 172.093407
z
" style="fill:#c9d7f0;"/>
    <path clip-path="url(#p56138da808)" d="M 283.009455 169.485988
L 289.809574 172.366275
L 291.623952 169.404949
L 293.410419 167.508169
L 295.166637 166.682866
L 288.393716 163.835917
L 286.625371 164.659378
L 284.829845 166.545059
z
" style="fill:#d3dbe7;"/>
    <path clip-path="url(#p56138da808)" d="M 245.926187 208.611006
L 252.639527 212.416532
L 254.512488 207.970659
L 256.389056 202.528859
L 258.268915 196.433281
L 251.555416 192.85983
L 249.677857 198.869125
L 247.801662 204.230451
z
" style="fill:#7295f4;"/>
    <path clip-path="url(#p56138da808)" d="M 315.658358 174.838607
L 322.548164 177.46062
L 324.21105 177.691296
L 325.830704 178.907257
L 327.409683 180.982448
L 320.575328 178.324822
L 318.975156 176.268965
L 317.336901 175.06488
z
" style="fill:#bbd1f8;"/>
    <path clip-path="url(#p56138da808)" d="M 226.854963 205.414073
L 233.558909 209.712751
L 235.460571 209.391072
L 237.351268 207.685494
L 239.234262 204.60127
L 232.56174 200.334986
L 230.671938 203.373567
L 228.770751 205.068306
z
" style="fill:#6c8ff1;"/>
    <path clip-path="url(#p56138da808)" d="M 258.268915 196.433281
L 265.006736 199.854051
L 266.892162 193.376668
L 268.777136 186.930827
L 270.657988 180.805851
L 263.909996 177.60238
L 262.031941 183.662884
L 260.150633 190.03543
z
" style="fill:#9ebeff;"/>
    <path clip-path="url(#p56138da808)" d="M 252.639527 212.416532
L 259.375859 216.056588
L 261.246684 211.548725
L 263.124086 206.030873
L 265.006736 199.854051
L 258.268915 196.433281
L 256.389056 202.528859
L 254.512488 207.970659
z
" style="fill:#6c8ff1;"/>
    <path clip-path="url(#p56138da808)" d="M 270.657988 180.805851
L 277.43256 183.896643
L 279.306925 178.282067
L 281.167261 173.430635
L 283.009455 169.485988
L 276.237255 166.518969
L 274.391838 170.432366
L 272.530846 175.242508
z
" style="fill:#c5d6f2;"/>
    <path clip-path="url(#p56138da808)" d="M 289.809574 172.366275
L 296.638243 175.174455
L 298.446644 172.193461
L 300.224031 170.285772
L 301.968045 169.458274
L 295.166637 166.682866
L 293.410419 167.508169
L 291.623952 169.404949
z
" style="fill:#cfdaea;"/>
    <path clip-path="url(#p56138da808)" d="M 233.558909 209.712751
L 240.281839 213.75402
L 242.169304 213.454383
L 244.049652 211.738257
L 245.926187 208.611006
L 239.234262 204.60127
L 237.351268 207.685494
L 235.460571 209.391072
z
" style="fill:#6485ec;"/>
    <path clip-path="url(#p56138da808)" d="M 322.548164 177.46062
L 329.468282 180.046155
L 331.115357 180.280668
L 332.716211 181.507614
L 334.273758 183.600928
L 327.409683 180.982448
L 325.830704 178.907257
L 324.21105 177.691296
z
" style="fill:#b9d0f9;"/>
    <path clip-path="url(#p56138da808)" d="M 265.006736 199.854051
L 271.770001 203.149768
L 273.659559 196.597284
L 275.548584 190.082351
L 277.43256 183.896643
L 270.657988 180.805851
L 268.777136 186.930827
L 266.892162 193.376668
z
" style="fill:#98b9ff;"/>
    <path clip-path="url(#p56138da808)" d="M 259.375859 216.056588
L 266.136451 219.560598
L 268.005473 214.993606
L 269.884123 209.403507
L 271.770001 203.149768
L 265.006736 199.854051
L 263.124086 206.030873
L 261.246684 211.548725
z
" style="fill:#6788ee;"/>
    <path clip-path="url(#p56138da808)" d="M 240.281839 213.75402
L 247.025909 217.590422
L 248.899073 217.31108
L 250.769167 215.584626
L 252.639527 212.416532
L 245.926187 208.611006
L 244.049652 211.738257
L 242.169304 213.454383
z
" style="fill:#5d7ce6;"/>
    <path clip-path="url(#p56138da808)" d="M 277.43256 183.896643
L 284.23453 186.894439
L 286.110637 181.231315
L 287.970491 176.340691
L 289.809574 172.366275
L 283.009455 169.485988
L 281.167261 173.430635
L 279.306925 178.282067
z
" style="fill:#c1d4f4;"/>
    <path clip-path="url(#p56138da808)" d="M 172.6436 124.115915
L 179.865401 151.11939
L 181.889501 150.481386
L 183.882949 148.893348
L 185.848188 146.359052
L 178.71457 119.479182
L 176.719205 121.836529
L 174.696257 123.383215
z
" style="fill:#f59c7d;"/>
    <path clip-path="url(#p56138da808)" d="M 296.638243 175.174455
L 303.496019 177.922213
L 305.298464 174.922178
L 307.066738 173.003734
L 308.798462 172.173725
L 301.968045 169.458274
L 300.224031 170.285772
L 298.446644 172.193461
z
" style="fill:#cdd9ec;"/>
    <path clip-path="url(#p56138da808)" d="M 187.325489 171.942418
L 194.070863 179.40344
L 196.122355 181.478372
L 198.149601 182.941043
L 200.150085 183.534783
L 193.459923 175.698587
L 191.442388 175.199744
L 189.396603 173.867744
z
" style="fill:#c1d4f4;"/>
    <path clip-path="url(#p56138da808)" d="M 194.070863 179.40344
L 200.798222 185.605334
L 202.829819 187.806668
L 204.838454 189.380597
L 206.822124 190.055604
L 200.150085 183.534783
L 198.149601 182.941043
L 196.122355 181.478372
z
" style="fill:#afcafc;"/>
    <path clip-path="url(#p56138da808)" d="M 180.531082 162.336819
L 187.325489 171.942418
L 189.396603 173.867744
L 191.442388 175.199744
L 193.459923 175.698587
L 186.721838 165.634315
L 184.686499 165.250392
L 182.621852 164.07786
z
" style="fill:#d7dce3;"/>
    <path clip-path="url(#p56138da808)" d="M 271.770001 203.149768
L 278.559641 206.341821
L 280.453714 199.718069
L 282.347134 193.137666
L 284.23453 186.894439
L 277.43256 183.896643
L 275.548584 190.082351
L 273.659559 196.597284
z
" style="fill:#94b6ff;"/>
    <path clip-path="url(#p56138da808)" d="M 200.798222 185.605334
L 207.5235 190.990461
L 209.534815 193.301483
L 211.5246 194.972596
L 213.491458 195.718915
L 206.822124 190.055604
L 204.838454 189.380597
L 202.829819 187.806668
z
" style="fill:#a1c0ff;"/>
    <path clip-path="url(#p56138da808)" d="M 266.136451 219.560598
L 272.922351 222.951395
L 274.78987 218.327764
L 276.670138 212.668725
L 278.559641 206.341821
L 271.770001 203.149768
L 269.884123 209.403507
L 268.005473 214.993606
z
" style="fill:#6282ea;"/>
    <path clip-path="url(#p56138da808)" d="M 247.025909 217.590422
L 253.792798 221.260852
L 255.651535 221.000288
L 257.511434 219.263676
L 259.375859 216.056588
L 252.639527 212.416532
L 250.769167 215.584626
L 248.899073 217.31108
z
" style="fill:#5673e0;"/>
    <path clip-path="url(#p56138da808)" d="M 284.23453 186.894439
L 291.064594 189.814726
L 292.942654 184.105379
L 294.802179 179.177369
L 296.638243 175.174455
L 289.809574 172.366275
L 287.970491 176.340691
L 286.110637 181.231315
z
" style="fill:#bed2f6;"/>
    <path clip-path="url(#p56138da808)" d="M 303.496019 177.922213
L 310.3834 180.619014
L 312.1799 177.600483
L 313.939018 175.671412
L 315.658358 174.838607
L 308.798462 172.173725
L 307.066738 173.003734
L 305.298464 174.922178
z
" style="fill:#cbd8ee;"/>
    <path clip-path="url(#p56138da808)" d="M 207.5235 190.990461
L 214.255994 195.809155
L 216.246593 198.217205
L 218.217211 199.97478
L 220.167137 200.784778
L 213.491458 195.718915
L 211.5246 194.972596
L 209.534815 193.301483
z
" style="fill:#94b6ff;"/>
    <path clip-path="url(#p56138da808)" d="M 173.613763 148.419988
L 180.531082 162.336819
L 182.621852 164.07786
L 184.686499 165.250392
L 186.721838 165.634315
L 179.865401 151.11939
L 177.810133 150.883337
L 175.725168 149.918314
z
" style="fill:#efcebd;"/>
    <path clip-path="url(#p56138da808)" d="M 278.559641 206.341821
L 285.376449 209.447083
L 287.275385 202.755407
L 289.173515 196.112685
L 291.064594 189.814726
L 284.23453 186.894439
L 282.347134 193.137666
L 280.453714 199.718069
z
" style="fill:#90b2fe;"/>
    <path clip-path="url(#p56138da808)" d="M 253.792798 221.260852
L 260.583855 224.794848
L 262.428023 224.551733
L 264.277759 222.805093
L 266.136451 219.560598
L 259.375859 216.056588
L 257.511434 219.263676
L 255.651535 221.000288
z
" style="fill:#516ddb;"/>
    <path clip-path="url(#p56138da808)" d="M 272.922351 222.951395
L 279.734448 226.247031
L 281.600732 221.568945
L 283.482959 215.843869
L 285.376449 209.447083
L 278.559641 206.341821
L 276.670138 212.668725
L 274.78987 218.327764
z
" style="fill:#5e7de7;"/>
    <path clip-path="url(#p56138da808)" d="M 214.255994 195.809155
L 221.001627 200.215761
L 222.971062 202.710887
L 224.922158 204.546457
L 226.854963 205.414073
L 220.167137 200.784778
L 218.217211 199.97478
L 216.246593 198.217205
z
" style="fill:#89acfd;"/>
    <path clip-path="url(#p56138da808)" d="M 291.064594 189.814726
L 297.923365 192.669893
L 299.803566 186.916346
L 301.662895 181.952522
L 303.496019 177.922213
L 296.638243 175.174455
L 294.802179 179.177369
L 292.942654 184.105379
z
" style="fill:#bbd1f8;"/>
    <path clip-path="url(#p56138da808)" d="M 310.3834 180.619014
L 317.300841 183.272628
L 319.091398 180.236074
L 320.841309 178.296483
L 322.548164 177.46062
L 315.658358 174.838607
L 313.939018 175.671412
L 312.1799 177.600483
z
" style="fill:#c9d7f0;"/>
    <path clip-path="url(#p56138da808)" d="M 285.376449 209.447083
L 292.221112 212.47908
L 294.125233 205.722423
L 296.02836 199.020147
L 297.923365 192.669893
L 291.064594 189.814726
L 289.173515 196.112685
L 287.275385 202.755407
z
" style="fill:#8db0fe;"/>
    <path clip-path="url(#p56138da808)" d="M 260.583855 224.794848
L 267.400193 228.215333
L 269.229636 227.98849
L 271.06922 226.231924
L 272.922351 222.951395
L 266.136451 219.560598
L 264.277759 222.805093
L 262.428023 224.551733
z
" style="fill:#4c66d6;"/>
    <path clip-path="url(#p56138da808)" d="M 221.001627 200.215761
L 227.764435 204.311613
L 229.712253 206.885773
L 231.643455 208.792463
L 233.558909 209.712751
L 226.854963 205.414073
L 224.922158 204.546457
L 222.971062 202.710887
z
" style="fill:#81a4fb;"/>
    <path clip-path="url(#p56138da808)" d="M 279.734448 226.247031
L 286.573508 229.462007
L 288.438804 224.7314
L 290.323302 218.94285
L 292.221112 212.47908
L 285.376449 209.447083
L 283.482959 215.843869
L 281.600732 221.568945
z
" style="fill:#5977e3;"/>
    <path clip-path="url(#p56138da808)" d="M 297.923365 192.669893
L 304.811385 195.469989
L 306.6939 189.674021
L 308.553151 184.675759
L 310.3834 180.619014
L 303.496019 177.922213
L 301.662895 181.952522
L 299.803566 186.916346
z
" style="fill:#b9d0f9;"/>
    <path clip-path="url(#p56138da808)" d="M 317.300841 183.272628
L 324.248761 185.889504
L 326.033368 182.835341
L 327.774017 180.885315
L 329.468282 180.046155
L 322.548164 177.46062
L 320.841309 178.296483
L 319.091398 180.236074
z
" style="fill:#c6d6f1;"/>
    <path clip-path="url(#p56138da808)" d="M 227.764435 204.311613
L 234.547315 208.166527
L 236.473066 210.813078
L 238.38399 212.785182
L 240.281839 213.75402
L 233.558909 209.712751
L 231.643455 208.792463
L 229.712253 206.885773
z
" style="fill:#799cf8;"/>
    <path clip-path="url(#p56138da808)" d="M 267.400193 228.215333
L 274.242751 231.540431
L 276.057303 231.328807
L 277.886729 229.562391
L 279.734448 226.247031
L 272.922351 222.951395
L 271.06922 226.231924
L 269.229636 227.98849
z
" style="fill:#485fd1;"/>
    <path clip-path="url(#p56138da808)" d="M 292.221112 212.47908
L 299.094239 215.448811
L 301.003843 208.629781
L 302.912233 201.870392
L 304.811385 195.469989
L 297.923365 192.669893
L 296.02836 199.020147
L 294.125233 205.722423
z
" style="fill:#89acfd;"/>
    <path clip-path="url(#p56138da808)" d="M 286.573508 229.462007
L 293.440206 232.608138
L 295.304739 227.82673
L 297.191797 221.976991
L 299.094239 215.448811
L 292.221112 212.47908
L 290.323302 218.94285
L 288.438804 224.7314
z
" style="fill:#5673e0;"/>
    <path clip-path="url(#p56138da808)" d="M 166.311972 122.307618
L 173.613763 148.419988
L 175.725168 149.918314
L 177.810133 150.883337
L 179.865401 151.11939
L 172.6436 124.115915
L 170.560819 124.095225
L 168.449275 123.438615
z
" style="fill:#f08b6e;"/>
    <path clip-path="url(#p56138da808)" d="M 304.811385 195.469989
L 311.729147 198.223271
L 313.614133 192.386454
L 315.473413 187.354966
L 317.300841 183.272628
L 310.3834 180.619014
L 308.553151 184.675759
L 306.6939 189.674021
z
" style="fill:#b6cefa;"/>
    <path clip-path="url(#p56138da808)" d="M 234.547315 208.166527
L 241.352439 211.830477
L 243.255676 214.543829
L 245.145935 216.57653
L 247.025909 217.590422
L 240.281839 213.75402
L 238.38399 212.785182
L 236.473066 210.813078
z
" style="fill:#7295f4;"/>
    <path clip-path="url(#p56138da808)" d="M 274.242751 231.540431
L 281.112338 234.7847
L 282.911824 234.587348
L 284.731071 232.811139
L 286.573508 229.462007
L 279.734448 226.247031
L 277.886729 229.562391
L 276.057303 231.328807
z
" style="fill:#445acc;"/>
    <path clip-path="url(#p56138da808)" d="M 299.094239 215.448811
L 305.996376 218.36533
L 307.911743 211.48625
L 309.825643 204.671919
L 311.729147 198.223271
L 304.811385 195.469989
L 302.912233 201.870392
L 301.003843 208.629781
z
" style="fill:#86a9fc;"/>
    <path clip-path="url(#p56138da808)" d="M 293.440206 232.608138
L 300.335144 235.695167
L 302.199123 230.8645
L 304.089013 224.955618
L 305.996376 218.36533
L 299.094239 215.448811
L 297.191797 221.976991
L 295.304739 227.82673
z
" style="fill:#536edd;"/>
    <path clip-path="url(#p56138da808)" d="M 241.352439 211.830477
L 248.181491 215.340361
L 250.061775 218.115744
L 251.930981 220.204914
L 253.792798 221.260852
L 247.025909 217.590422
L 245.145935 216.57653
L 243.255676 214.543829
z
" style="fill:#6c8ff1;"/>
    <path clip-path="url(#p56138da808)" d="M 311.729147 198.223271
L 318.677105 200.936598
L 320.564705 195.060329
L 322.42411 189.99669
L 324.248761 185.889504
L 317.300841 183.272628
L 315.473413 187.354966
L 313.614133 192.386454
z
" style="fill:#b3cdfb;"/>
    <path clip-path="url(#p56138da808)" d="M 281.112338 234.7847
L 288.009662 237.960001
L 289.793901 237.776061
L 291.602937 235.990102
L 293.440206 232.608138
L 286.573508 229.462007
L 284.731071 232.811139
L 282.911824 234.587348
z
" style="fill:#4055c8;"/>
    <path clip-path="url(#p56138da808)" d="M 181.007061 165.267383
L 187.813169 172.303004
L 189.911319 174.544973
L 191.99895 176.998664
L 194.070863 179.40344
L 187.325489 171.942418
L 185.233323 169.690826
L 183.12529 167.38179
z
" style="fill:#e2dad5;"/>
    <path clip-path="url(#p56138da808)" d="M 174.152142 156.195735
L 181.007061 165.267383
L 183.12529 167.38179
L 185.233323 169.690826
L 187.325489 171.942418
L 180.531082 162.336819
L 178.418773 160.27579
L 176.290451 158.148451
z
" style="fill:#f0cdbb;"/>
    <path clip-path="url(#p56138da808)" d="M 305.996376 218.36533
L 312.928022 221.236173
L 314.849413 214.299129
L 316.769056 207.431796
L 318.677105 200.936598
L 311.729147 198.223271
L 309.825643 204.671919
L 307.911743 211.48625
z
" style="fill:#84a7fc;"/>
    <path clip-path="url(#p56138da808)" d="M 187.813169 172.303004
L 194.602221 178.151136
L 196.680039 180.498291
L 198.74692 183.072202
L 200.798222 185.605334
L 194.070863 179.40344
L 191.99895 176.998664
L 189.911319 174.544973
z
" style="fill:#d5dbe5;"/>
    <path clip-path="url(#p56138da808)" d="M 300.335144 235.695167
L 307.258869 238.731222
L 309.122487 233.852685
L 311.015464 227.8865
L 312.928022 221.236173
L 305.996376 218.36533
L 304.089013 224.955618
L 302.199123 230.8645
z
" style="fill:#4f69d9;"/>
    <path clip-path="url(#p56138da808)" d="M 248.181491 215.340361
L 255.035823 218.724136
L 256.892717 221.557426
L 258.740485 223.699482
L 260.583855 224.794848
L 253.792798 221.260852
L 251.930981 220.204914
L 250.061775 218.115744
z
" style="fill:#6788ee;"/>
    <path clip-path="url(#p56138da808)" d="M 194.602221 178.151136
L 201.39041 183.233495
L 203.44755 185.670001
L 205.493256 188.346745
L 207.5235 190.990461
L 200.798222 185.605334
L 198.74692 183.072202
L 196.680039 180.498291
z
" style="fill:#cad8ef;"/>
    <path clip-path="url(#p56138da808)" d="M 167.172093 142.9988
L 174.152142 156.195735
L 176.290451 158.148451
L 178.418773 160.27579
L 180.531082 162.336819
L 173.613763 148.419988
L 171.480592 146.613063
L 169.331306 144.730913
z
" style="fill:#f7b093;"/>
    <path clip-path="url(#p56138da808)" d="M 288.009662 237.960001
L 294.935355 241.076118
L 296.70416 240.904806
L 298.502944 239.109125
L 300.335144 235.695167
L 293.440206 232.608138
L 291.602937 235.990102
L 289.793901 237.776061
z
" style="fill:#3d50c3;"/>
    <path clip-path="url(#p56138da808)" d="M 201.39041 183.233495
L 208.187114 187.787646
L 210.223198 190.301691
L 212.247279 193.068243
L 214.255994 195.809155
L 207.5235 190.990461
L 205.493256 188.346745
L 203.44755 185.670001
z
" style="fill:#c0d4f5;"/>
    <path clip-path="url(#p56138da808)" d="M 255.035823 218.724136
L 261.916546 222.003448
L 263.749622 224.891042
L 265.575564 227.082845
L 267.400193 228.215333
L 260.583855 224.794848
L 258.740485 223.699482
L 256.892717 221.557426
z
" style="fill:#6282ea;"/>
    <path clip-path="url(#p56138da808)" d="M 294.935355 241.076118
L 301.889989 244.14121
L 303.643168 243.981807
L 305.431649 242.176421
L 307.258869 238.731222
L 300.335144 235.695167
L 298.502944 239.109125
L 296.70416 240.904806
z
" style="fill:#3b4cc0;"/>
    <path clip-path="url(#p56138da808)" d="M 208.187114 187.787646
L 214.998278 191.959462
L 217.012915 194.541897
L 219.014919 197.38812
L 221.001627 200.215761
L 214.255994 195.809155
L 212.247279 193.068243
L 210.223198 190.301691
z
" style="fill:#b7cff9;"/>
    <path clip-path="url(#p56138da808)" d="M 261.916546 222.003448
L 268.824597 225.195373
L 270.633429 228.134093
L 272.437161 230.372867
L 274.242751 231.540431
L 267.400193 228.215333
L 265.575564 227.082845
L 263.749622 224.891042
z
" style="fill:#5e7de7;"/>
    <path clip-path="url(#p56138da808)" d="M 214.998278 191.959462
L 221.82793 195.844363
L 223.82073 198.487887
L 225.800208 201.405664
L 227.764435 204.311613
L 221.001627 200.215761
L 219.014919 197.38812
L 217.012915 194.541897
z
" style="fill:#afcafc;"/>
    <path clip-path="url(#p56138da808)" d="M 159.793708 118.011882
L 167.172093 142.9988
L 169.331306 144.730913
L 171.480592 146.613063
L 173.613763 148.419988
L 166.311972 122.307618
L 164.153273 120.892013
L 161.978535 119.393653
z
" style="fill:#de614d;"/>
    <path clip-path="url(#p56138da808)" d="M 268.824597 225.195373
L 275.760781 228.313601
L 277.544949 231.300624
L 279.326087 233.58389
L 281.112338 234.7847
L 274.242751 231.540431
L 272.437161 230.372867
L 270.633429 228.134093
z
" style="fill:#5977e3;"/>
    <path clip-path="url(#p56138da808)" d="M 221.82793 195.844363
L 228.678948 199.507862
L 230.649524 202.206516
L 232.606034 205.189196
L 234.547315 208.166527
L 227.764435 204.311613
L 225.800208 201.405664
L 223.82073 198.487887
z
" style="fill:#a9c6fd;"/>
    <path clip-path="url(#p56138da808)" d="M 275.760781 228.313601
L 282.725806 231.369262
L 284.484891 234.402059
L 286.243055 236.727594
L 288.009662 237.960001
L 281.112338 234.7847
L 279.326087 233.58389
L 277.544949 231.300624
z
" style="fill:#5673e0;"/>
    <path clip-path="url(#p56138da808)" d="M 228.678948 199.507862
L 235.553481 202.996709
L 237.50145 205.745534
L 239.434561 208.787568
L 241.352439 211.830477
L 234.547315 208.166527
L 232.606034 205.189196
L 230.649524 202.206516
z
" style="fill:#a3c2fe;"/>
    <path clip-path="url(#p56138da808)" d="M 167.737553 153.371632
L 174.648251 162.140726
L 176.763092 162.479682
L 178.884444 163.570917
L 181.007061 165.267383
L 174.152142 156.195735
L 172.009997 154.633403
L 169.869973 153.643967
z
" style="fill:#f7af91;"/>
    <path clip-path="url(#p56138da808)" d="M 174.648251 162.140726
L 181.508605 168.941423
L 183.606697 169.331448
L 185.709869 170.501619
L 187.813169 172.303004
L 181.007061 165.267383
L 178.884444 163.570917
L 176.763092 162.479682
z
" style="fill:#f5c2aa;"/>
    <path clip-path="url(#p56138da808)" d="M 282.725806 231.369262
L 289.7203 234.37152
L 291.453889 237.447815
L 293.188696 239.813609
L 294.935355 241.076118
L 288.009662 237.960001
L 286.243055 236.727594
L 284.484891 234.402059
z
" style="fill:#536edd;"/>
    <path clip-path="url(#p56138da808)" d="M 235.553481 202.996709
L 242.453196 206.345319
L 244.378178 209.140126
L 246.287466 212.236809
L 248.181491 215.340361
L 241.352439 211.830477
L 239.434561 208.787568
L 237.50145 205.745534
z
" style="fill:#9ebeff;"/>
    <path clip-path="url(#p56138da808)" d="M 181.508605 168.941423
L 188.351548 174.598734
L 190.433238 175.029679
L 192.518336 176.263897
L 194.602221 178.151136
L 187.813169 172.303004
L 185.709869 170.501619
L 183.606697 169.331448
z
" style="fill:#efcebd;"/>
    <path clip-path="url(#p56138da808)" d="M 160.696884 140.594622
L 167.737553 153.371632
L 169.869973 153.643967
L 172.009997 154.633403
L 174.152142 156.195735
L 167.172093 142.9988
L 165.009287 141.621295
L 162.849012 140.773412
z
" style="fill:#f08a6c;"/>
    <path clip-path="url(#p56138da808)" d="M 188.351548 174.598734
L 195.193788 179.521328
L 197.259196 179.986049
L 199.326159 181.273842
L 201.39041 183.233495
L 194.602221 178.151136
L 192.518336 176.263897
L 190.433238 175.029679
z
" style="fill:#e9d5cb;"/>
    <path clip-path="url(#p56138da808)" d="M 242.453196 206.345319
L 249.379422 209.579695
L 251.281045 212.416897
L 253.166091 215.564191
L 255.035823 218.724136
L 248.181491 215.340361
L 246.287466 212.236809
L 244.378178 209.140126
z
" style="fill:#98b9ff;"/>
    <path clip-path="url(#p56138da808)" d="M 289.7203 234.37152
L 296.744833 237.328006
L 298.452514 240.445735
L 300.163586 242.849962
L 301.889989 244.14121
L 294.935355 241.076118
L 293.188696 239.813609
L 291.453889 237.447815
z
" style="fill:#4f69d9;"/>
    <path clip-path="url(#p56138da808)" d="M 195.193788 179.521328
L 202.04496 183.938771
L 204.094089 184.431962
L 206.142772 185.765565
L 208.187114 187.787646
L 201.39041 183.233495
L 199.326159 181.273842
L 197.259196 179.986049
z
" style="fill:#e1dad6;"/>
    <path clip-path="url(#p56138da808)" d="M 249.379422 209.579695
L 256.333254 212.71992
L 258.211149 215.596412
L 260.071542 218.790812
L 261.916546 222.003448
L 255.035823 218.724136
L 253.166091 215.564191
L 251.281045 212.416897
z
" style="fill:#94b6ff;"/>
    <path clip-path="url(#p56138da808)" d="M 202.04496 183.938771
L 208.911146 187.991671
L 210.943929 188.509241
L 212.974144 189.882666
L 214.998278 191.959462
L 208.187114 187.787646
L 206.142772 185.765565
L 204.094089 184.431962
z
" style="fill:#dbdcde;"/>
    <path clip-path="url(#p56138da808)" d="M 153.239036 116.286817
L 160.696884 140.594622
L 162.849012 140.773412
L 165.009287 141.621295
L 167.172093 142.9988
L 159.793708 118.011882
L 157.60494 116.931458
L 155.418219 116.313161
z
" style="fill:#c32e31;"/>
    <path clip-path="url(#p56138da808)" d="M 208.911146 187.991671
L 215.796454 191.771797
L 217.812783 192.310493
L 219.824314 193.718986
L 221.82793 195.844363
L 214.998278 191.959462
L 212.974144 189.882666
L 210.943929 188.509241
z
" style="fill:#d6dce4;"/>
    <path clip-path="url(#p56138da808)" d="M 256.333254 212.71992
L 263.315614 215.781798
L 265.169414 218.694864
L 267.004749 221.933299
L 268.824597 225.195373
L 261.916546 222.003448
L 260.071542 218.790812
L 258.211149 215.596412
z
" style="fill:#90b2fe;"/>
    <path clip-path="url(#p56138da808)" d="M 215.796454 191.771797
L 222.703809 195.342033
L 224.703548 195.899207
L 226.696165 197.338901
L 228.678948 199.507862
L 221.82793 195.844363
L 219.824314 193.718986
L 217.812783 192.310493
z
" style="fill:#d1dae9;"/>
    <path clip-path="url(#p56138da808)" d="M 161.428608 157.667098
L 168.384461 166.459562
L 170.455702 164.092945
L 172.544534 162.658408
L 174.648251 162.140726
L 167.737553 153.371632
L 165.617502 153.919168
L 163.513636 155.345999
z
" style="fill:#f59f80;"/>
    <path clip-path="url(#p56138da808)" d="M 168.384461 166.459562
L 175.285045 173.281834
L 177.344577 170.878569
L 179.420007 169.436896
L 181.508605 168.941423
L 174.648251 162.140726
L 172.544534 162.658408
L 170.455702 164.092945
z
" style="fill:#f7b497;"/>
    <path clip-path="url(#p56138da808)" d="M 263.315614 215.781798
L 270.327295 218.77797
L 272.156638 221.725216
L 273.966513 225.004972
L 275.760781 228.313601
L 268.824597 225.195373
L 267.004749 221.933299
L 265.169414 218.694864
z
" style="fill:#8db0fe;"/>
    <path clip-path="url(#p56138da808)" d="M 175.285045 173.281834
L 182.165506 178.960134
L 184.21453 176.525699
L 186.277457 175.07707
L 188.351548 174.598734
L 181.508605 168.941423
L 179.420007 169.436896
L 177.344577 170.878569
z
" style="fill:#f5c1a9;"/>
    <path clip-path="url(#p56138da808)" d="M 154.332375 144.861172
L 161.428608 157.667098
L 163.513636 155.345999
L 165.617502 153.919168
L 167.737553 153.371632
L 160.696884 140.594622
L 158.55774 141.184901
L 156.435385 142.602231
z
" style="fill:#e8765c;"/>
    <path clip-path="url(#p56138da808)" d="M 222.703809 195.342033
L 229.635393 198.747165
L 231.618386 199.32062
L 233.591849 200.788309
L 235.553481 202.996709
L 228.678948 199.507862
L 226.696165 197.338901
L 224.703548 195.899207
z
" style="fill:#cdd9ec;"/>
    <path clip-path="url(#p56138da808)" d="M 182.165506 178.960134
L 189.043643 183.903612
L 191.082923 181.4417
L 193.133883 179.986141
L 195.193788 179.521328
L 188.351548 174.598734
L 186.277457 175.07707
L 184.21453 176.525699
z
" style="fill:#f2cbb7;"/>
    <path clip-path="url(#p56138da808)" d="M 270.327295 218.77797
L 277.368992 221.718692
L 279.173518 224.697991
L 280.957537 228.01665
L 282.725806 231.369262
L 275.760781 228.313601
L 273.966513 225.004972
L 272.156638 221.725216
z
" style="fill:#89acfd;"/>
    <path clip-path="url(#p56138da808)" d="M 189.043643 183.903612
L 195.929704 188.342043
L 197.959753 185.855297
L 199.99908 184.392766
L 202.04496 183.938771
L 195.193788 179.521328
L 193.133883 179.986141
L 191.082923 181.4417
z
" style="fill:#edd1c2;"/>
    <path clip-path="url(#p56138da808)" d="M 229.635393 198.747165
L 236.592888 202.020109
L 238.558967 202.607994
L 240.51303 204.100977
L 242.453196 206.345319
L 235.553481 202.996709
L 233.591849 200.788309
L 231.618386 199.32062
z
" style="fill:#c9d7f0;"/>
    <path clip-path="url(#p56138da808)" d="M 277.368992 221.718692
L 284.441328 224.612392
L 286.220677 227.621841
L 287.978445 230.977238
L 289.7203 234.37152
L 282.725806 231.369262
L 280.957537 228.01665
L 279.173518 224.697991
z
" style="fill:#86a9fc;"/>
    <path clip-path="url(#p56138da808)" d="M 195.929704 188.342043
L 202.830146 192.416135
L 204.85132 189.906529
L 206.879223 188.436954
L 208.911146 187.991671
L 202.04496 183.938771
L 199.99908 184.392766
L 197.959753 185.855297
z
" style="fill:#e9d5cb;"/>
    <path clip-path="url(#p56138da808)" d="M 155.291445 169.4734
L 162.283246 178.623196
L 164.299066 173.822802
L 166.332253 169.728061
L 168.384461 166.459562
L 161.428608 157.667098
L 159.363704 160.852515
L 157.318649 164.827508
z
" style="fill:#f7aa8c;"/>
    <path clip-path="url(#p56138da808)" d="M 162.283246 178.623196
L 169.210782 185.729125
L 171.218675 180.806075
L 173.242998 176.616384
L 175.285045 173.281834
L 168.384461 166.459562
L 166.332253 169.728061
L 164.299066 173.822802
z
" style="fill:#f6bfa6;"/>
    <path clip-path="url(#p56138da808)" d="M 146.788187 120.501126
L 154.332375 144.861172
L 156.435385 142.602231
L 158.55774 141.184901
L 160.696884 140.594622
L 153.239036 116.286817
L 151.072092 116.946364
L 148.921026 118.346564
z
" style="fill:#b40426;"/>
    <path clip-path="url(#p56138da808)" d="M 169.210782 185.729125
L 176.112682 191.644362
L 178.114804 186.618964
L 180.1321 182.350034
L 182.165506 178.960134
L 175.285045 173.281834
L 173.242998 176.616384
L 171.218675 180.806075
z
" style="fill:#f1ccb8;"/>
    <path clip-path="url(#p56138da808)" d="M 236.592888 202.020109
L 243.577642 205.185697
L 245.526628 205.786426
L 247.46104 207.302398
L 249.379422 209.579695
L 242.453196 206.345319
L 240.51303 204.100977
L 238.558967 202.607994
z
" style="fill:#c5d6f2;"/>
    <path clip-path="url(#p56138da808)" d="M 148.142073 156.176891
L 155.291445 169.4734
L 157.318649 164.827508
L 159.363704 160.852515
L 161.428608 157.667098
L 154.332375 144.861172
L 152.249808 147.932325
L 150.187147 151.742668
z
" style="fill:#ee8468;"/>
    <path clip-path="url(#p56138da808)" d="M 202.830146 192.416135
L 209.749324 196.217706
L 211.761876 193.68676
L 213.778481 192.210053
L 215.796454 191.771797
L 208.911146 187.991671
L 206.879223 188.436954
L 204.85132 189.906529
z
" style="fill:#e4d9d2;"/>
    <path clip-path="url(#p56138da808)" d="M 176.112682 191.644362
L 183.008545 196.792575
L 185.006371 191.678891
L 187.01788 187.341541
L 189.043643 183.903612
L 182.165506 178.960134
L 180.1321 182.350034
L 178.114804 186.618964
z
" style="fill:#ebd3c6;"/>
    <path clip-path="url(#p56138da808)" d="M 284.441328 224.612392
L 291.544863 227.466074
L 293.298679 230.503959
L 295.029804 233.894141
L 296.744833 237.328006
L 289.7203 234.37152
L 287.978445 230.977238
L 286.220677 227.621841
z
" style="fill:#84a7fc;"/>
    <path clip-path="url(#p56138da808)" d="M 156.295915 195.416448
L 163.24621 203.022797
L 165.230377 197.066113
L 167.216305 191.218935
L 169.210782 185.729125
L 162.283246 178.623196
L 160.28134 183.965008
L 158.28799 189.643072
z
" style="fill:#e7d7ce;"/>
    <path clip-path="url(#p56138da808)" d="M 149.268793 185.642696
L 156.295915 195.416448
L 158.28799 189.643072
L 160.28134 183.965008
L 162.283246 178.623196
L 155.291445 169.4734
L 153.278234 174.629473
L 151.273237 180.096476
z
" style="fill:#f2c9b4;"/>
    <path clip-path="url(#p56138da808)" d="M 163.24621 203.022797
L 170.162842 209.358605
L 172.141977 203.247135
L 174.123185 197.257946
L 176.112682 191.644362
L 169.210782 185.729125
L 167.216305 191.218935
L 165.230377 197.066113
z
" style="fill:#dadce0;"/>
    <path clip-path="url(#p56138da808)" d="M 243.577642 205.185697
L 250.590757 208.263079
L 252.522464 208.875283
L 254.436971 210.41225
L 256.333254 212.71992
L 249.379422 209.579695
L 247.46104 207.302398
L 245.526628 205.786426
z
" style="fill:#c1d4f4;"/>
    <path clip-path="url(#p56138da808)" d="M 183.008545 196.792575
L 189.909669 201.412262
L 191.904275 196.220586
L 193.910885 191.822697
L 195.929704 188.342043
L 189.043643 183.903612
L 187.01788 187.341541
L 185.006371 191.678891
z
" style="fill:#e5d8d1;"/>
    <path clip-path="url(#p56138da808)" d="M 209.749324 196.217706
L 216.690332 199.809662
L 218.694445 197.258576
L 220.699823 195.774643
L 222.703809 195.342033
L 215.796454 191.771797
L 213.778481 192.210053
L 211.761876 193.68676
z
" style="fill:#dfdbd9;"/>
    <path clip-path="url(#p56138da808)" d="M 170.162842 209.358605
L 177.067807 214.871458
L 179.043946 208.625288
L 181.022327 202.513067
L 183.008545 196.792575
L 176.112682 191.644362
L 174.123185 197.257946
L 172.141977 203.247135
z
" style="fill:#d1dae9;"/>
    <path clip-path="url(#p56138da808)" d="M 142.061169 171.504077
L 149.268793 185.642696
L 151.273237 180.096476
L 153.278234 174.629473
L 155.291445 169.4734
L 148.142073 156.176891
L 146.110396 161.080021
L 144.086043 166.261873
z
" style="fill:#f7aa8c;"/>
    <path clip-path="url(#p56138da808)" d="M 189.909669 201.412262
L 196.823174 205.649776
L 198.815385 200.387956
L 200.817763 195.935511
L 202.830146 192.416135
L 195.929704 188.342043
L 193.910885 191.822697
L 191.904275 196.220586
z
" style="fill:#dfdbd9;"/>
    <path clip-path="url(#p56138da808)" d="M 250.590757 208.263079
L 257.633164 211.267304
L 259.547399 211.889785
L 261.441745 213.446009
L 263.315614 215.781798
L 256.333254 212.71992
L 254.436971 210.41225
L 252.522464 208.875283
z
" style="fill:#bed2f6;"/>
    <path clip-path="url(#p56138da808)" d="M 177.067807 214.871458
L 183.973831 219.814412
L 185.948504 213.448472
L 187.925472 207.227252
L 189.909669 201.412262
L 183.008545 196.792575
L 181.022327 202.513067
L 179.043946 208.625288
z
" style="fill:#c7d7f0;"/>
    <path clip-path="url(#p56138da808)" d="M 216.690332 199.809662
L 223.655473 203.236799
L 225.651275 200.666539
L 227.645457 199.175283
L 229.635393 198.747165
L 222.703809 195.342033
L 220.699823 195.774643
L 218.694445 197.258576
z
" style="fill:#dcdddd;"/>
    <path clip-path="url(#p56138da808)" d="M 140.499225 131.008058
L 148.142073 156.176891
L 150.187147 151.742668
L 152.249808 147.932325
L 154.332375 144.861172
L 146.788187 120.501126
L 144.67443 123.38208
L 142.57896 126.920413
z
" style="fill:#be242e;"/>
    <path clip-path="url(#p56138da808)" d="M 196.823174 205.649776
L 203.753862 209.600799
L 205.744327 204.275001
L 207.742991 199.772684
L 209.749324 196.217706
L 202.830146 192.416135
L 200.817763 195.935511
L 198.815385 200.387956
z
" style="fill:#dadce0;"/>
    <path clip-path="url(#p56138da808)" d="M 183.973831 219.814412
L 190.888954 224.343364
L 192.863366 217.869192
L 194.840028 211.549767
L 196.823174 205.649776
L 189.909669 201.412262
L 187.925472 207.227252
L 185.948504 213.448472
z
" style="fill:#bfd3f6;"/>
    <path clip-path="url(#p56138da808)" d="M 257.633164 211.267304
L 264.705661 214.210397
L 266.602228 214.842097
L 268.476155 216.416048
L 270.327295 218.77797
L 263.315614 215.781798
L 261.441745 213.446009
L 259.547399 211.889785
z
" style="fill:#bbd1f8;"/>
    <path clip-path="url(#p56138da808)" d="M 223.655473 203.236799
L 230.64652 206.532035
L 232.634103 203.943392
L 234.617089 202.444716
L 236.592888 202.020109
L 229.635393 198.747165
L 227.645457 199.175283
L 225.651275 200.666539
z
" style="fill:#d8dce2;"/>
    <path clip-path="url(#p56138da808)" d="M 190.888954 224.343364
L 197.818606 228.560593
L 199.793739 221.987372
L 201.770987 215.578295
L 203.753862 209.600799
L 196.823174 205.649776
L 194.840028 211.549767
L 192.863366 217.869192
z
" style="fill:#b7cff9;"/>
    <path clip-path="url(#p56138da808)" d="M 203.753862 209.600799
L 210.705144 213.330996
L 212.694393 207.946186
L 214.689754 203.397752
L 216.690332 199.809662
L 209.749324 196.217706
L 207.742991 199.772684
L 205.744327 204.275001
z
" style="fill:#d5dbe5;"/>
    <path clip-path="url(#p56138da808)" d="M 134.30261 144.989733
L 142.061169 171.504077
L 144.086043 166.261873
L 146.110396 161.080021
L 148.142073 156.176891
L 140.499225 131.008058
L 138.430886 135.501479
L 136.367881 140.227201
z
" style="fill:#d95847;"/>
    <path clip-path="url(#p56138da808)" d="M 264.705661 214.210397
L 271.808952 217.102102
L 273.687647 217.742081
L 275.540894 219.332399
L 277.368992 221.718692
L 270.327295 218.77797
L 268.476155 216.416048
L 266.602228 214.842097
z
" style="fill:#b9d0f9;"/>
    <path clip-path="url(#p56138da808)" d="M 230.64652 206.532035
L 237.664889 209.720201
L 239.644312 207.113829
L 241.616081 205.607637
L 243.577642 205.185697
L 236.592888 202.020109
L 234.617089 202.444716
L 232.634103 203.943392
z
" style="fill:#d5dbe5;"/>
    <path clip-path="url(#p56138da808)" d="M 197.818606 228.560593
L 204.766648 232.536519
L 206.743322 225.871731
L 208.721899 219.37994
L 210.705144 213.330996
L 203.753862 209.600799
L 201.770987 215.578295
L 199.793739 221.987372
z
" style="fill:#b1cbfc;"/>
    <path clip-path="url(#p56138da808)" d="M 210.705144 213.330996
L 217.679552 216.887201
L 219.668024 211.447452
L 221.660417 206.855973
L 223.655473 203.236799
L 216.690332 199.809662
L 214.689754 203.397752
L 212.694393 207.946186
z
" style="fill:#d1dae9;"/>
    <path clip-path="url(#p56138da808)" d="M 271.808952 217.102102
L 278.943661 219.950416
L 280.804279 220.597832
L 282.636585 222.203303
L 284.441328 224.612392
L 277.368992 221.718692
L 275.540894 219.332399
L 273.687647 217.742081
z
" style="fill:#b6cefa;"/>
    <path clip-path="url(#p56138da808)" d="M 237.664889 209.720201
L 244.711736 212.820444
L 246.683038 210.196891
L 248.643549 208.683087
L 250.590757 208.263079
L 243.577642 205.185697
L 241.616081 205.607637
L 239.644312 207.113829
z
" style="fill:#d3dbe7;"/>
    <path clip-path="url(#p56138da808)" d="M 204.766648 232.536519
L 211.735945 236.321519
L 213.714861 229.571373
L 215.695396 223.002605
L 217.679552 216.887201
L 210.705144 213.330996
L 208.721899 219.37994
L 206.743322 225.871731
z
" style="fill:#abc8fd;"/>
    <path clip-path="url(#p56138da808)" d="M 217.679552 216.887201
L 224.679035 220.303878
L 226.6671 214.812589
L 228.656805 210.180618
L 230.64652 206.532035
L 223.655473 203.236799
L 221.660417 206.855973
L 219.668024 211.447452
z
" style="fill:#cdd9ec;"/>
    <path clip-path="url(#p56138da808)" d="M 244.711736 212.820444
L 251.788036 215.847812
L 253.751235 213.207539
L 255.700435 211.686029
L 257.633164 211.267304
L 250.590757 208.263079
L 248.643549 208.683087
L 246.683038 210.196891
z
" style="fill:#cfdaea;"/>
    <path clip-path="url(#p56138da808)" d="M 211.735945 236.321519
L 218.728698 239.95277
L 220.710467 233.122497
L 222.693506 226.481569
L 224.679035 220.303878
L 217.679552 216.887201
L 215.695396 223.002605
L 213.714861 229.571373
z
" style="fill:#a6c4fe;"/>
    <path clip-path="url(#p56138da808)" d="M 278.943661 219.950416
L 286.110356 222.761979
L 287.952688 223.416073
L 289.763789 225.035604
L 291.544863 227.466074
L 284.441328 224.612392
L 282.636585 222.203303
L 280.804279 220.597832
z
" style="fill:#b3cdfb;"/>
    <path clip-path="url(#p56138da808)" d="M 224.679035 220.303878
L 231.70514 223.60706
L 233.693119 218.067101
L 235.680367 213.396787
L 237.664889 209.720201
L 230.64652 206.532035
L 228.656805 210.180618
L 226.6671 214.812589
z
" style="fill:#cad8ef;"/>
    <path clip-path="url(#p56138da808)" d="M 218.728698 239.95277
L 225.746655 243.458424
L 227.731816 236.552491
L 229.717837 229.843499
L 231.70514 223.60706
L 224.679035 220.303878
L 222.693506 226.481569
L 220.710467 233.122497
z
" style="fill:#a2c1ff;"/>
    <path clip-path="url(#p56138da808)" d="M 251.788036 215.847812
L 258.894622 218.814324
L 260.849723 216.157722
L 262.787544 214.628414
L 264.705661 214.210397
L 257.633164 211.267304
L 255.700435 211.686029
L 253.751235 213.207539
z
" style="fill:#cdd9ec;"/>
    <path clip-path="url(#p56138da808)" d="M 231.70514 223.60706
L 238.759133 226.816845
L 240.747303 221.23067
L 242.732291 216.523844
L 244.711736 212.820444
L 237.664889 209.720201
L 235.680367 213.396787
L 233.693119 218.067101
z
" style="fill:#c6d6f1;"/>
    <path clip-path="url(#p56138da808)" d="M 225.746655 243.458424
L 232.791236 246.860269
L 234.78027 239.88253
L 236.7697 233.108999
L 238.759133 226.816845
L 231.70514 223.60706
L 229.717837 229.843499
L 227.731816 236.552491
z
" style="fill:#9ebeff;"/>
    <path clip-path="url(#p56138da808)" d="M 258.894622 218.814324
L 266.032227 221.72972
L 267.979219 219.057126
L 269.905586 217.519927
L 271.808952 217.102102
L 264.705661 214.210397
L 262.787544 214.628414
L 260.849723 216.157722
z
" style="fill:#cbd8ee;"/>
    <path clip-path="url(#p56138da808)" d="M 238.759133 226.816845
L 245.842071 229.949046
L 247.830677 224.31877
L 249.813574 219.577006
L 251.788036 215.847812
L 244.711736 212.820444
L 242.732291 216.523844
L 240.747303 221.23067
z
" style="fill:#c4d5f3;"/>
    <path clip-path="url(#p56138da808)" d="M 232.791236 246.860269
L 239.863626 250.175488
L 241.856971 243.129301
L 243.850191 236.294289
L 245.842071 229.949046
L 238.759133 226.816845
L 236.7697 233.108999
L 234.78027 239.88253
z
" style="fill:#9abbff;"/>
    <path clip-path="url(#p56138da808)" d="M 266.032227 221.72972
L 273.2015 224.601996
L 275.140364 221.913695
L 277.055194 220.368516
L 278.943661 219.950416
L 271.808952 217.102102
L 269.905586 217.519927
L 267.979219 219.057126
z
" style="fill:#c9d7f0;"/>
    <path clip-path="url(#p56138da808)" d="M 245.842071 229.949046
L 252.954859 233.016306
L 254.944117 227.343772
L 256.92507 222.568433
L 258.894622 218.814324
L 251.788036 215.847812
L 249.813574 219.577006
L 247.830677 224.31877
z
" style="fill:#c0d4f5;"/>
    <path clip-path="url(#p56138da808)" d="M 239.863626 250.175488
L 246.964836 253.417851
L 248.962888 246.306163
L 250.960247 239.412348
L 252.954859 233.016306
L 245.842071 229.949046
L 243.850191 236.294289
L 241.856971 243.129301
z
" style="fill:#96b7ff;"/>
    <path clip-path="url(#p56138da808)" d="M 273.2015 224.601996
L 280.403032 227.437788
L 282.333738 224.734027
L 284.236939 223.180778
L 286.110356 222.761979
L 278.943661 219.950416
L 277.055194 220.368516
L 275.140364 221.913695
z
" style="fill:#c6d6f1;"/>
    <path clip-path="url(#p56138da808)" d="M 252.954859 233.016306
L 260.098286 236.028884
L 262.08839 230.315705
L 264.067525 225.507982
L 266.032227 221.72972
L 258.894622 218.814324
L 256.92507 222.568433
L 254.944117 227.343772
z
" style="fill:#bed2f6;"/>
    <path clip-path="url(#p56138da808)" d="M 246.964836 253.417851
L 254.095738 256.598548
L 256.098865 249.423967
L 258.100681 242.473711
L 260.098286 236.028884
L 252.954859 233.016306
L 250.960247 239.412348
L 248.962888 246.306163
z
" style="fill:#93b5fe;"/>
    <path clip-path="url(#p56138da808)" d="M 260.098286 236.028884
L 267.27305 238.995206
L 269.264177 233.242805
L 271.241605 228.403745
L 273.2015 224.601996
L 266.032227 221.72972
L 264.067525 225.507982
L 262.08839 230.315705
z
" style="fill:#bbd1f8;"/>
    <path clip-path="url(#p56138da808)" d="M 254.095738 256.598548
L 261.257107 259.726794
L 263.265648 252.491639
L 265.272216 245.487037
L 267.27305 238.995206
L 260.098286 236.028884
L 258.100681 242.473711
L 256.098865 249.423967
z
" style="fill:#90b2fe;"/>
    <path clip-path="url(#p56138da808)" d="M 267.27305 238.995206
L 274.479782 241.922274
L 276.47209 236.131912
L 278.447908 231.26244
L 280.403032 227.437788
L 273.2015 224.601996
L 271.241605 228.403745
L 269.264177 233.242805
z
" style="fill:#b9d0f9;"/>
    <path clip-path="url(#p56138da808)" d="M 261.257107 259.726794
L 268.449631 262.810256
L 270.463905 255.516604
L 272.475498 248.459524
L 274.479782 241.922274
L 267.27305 238.995206
L 265.272216 245.487037
L 263.265648 252.491639
z
" style="fill:#8caffe;"/>
   </g>
  </g>
 </g>
 <defs>
  <clipPath id="p56138da808">
   <rect height="266.112" width="266.112" x="103.104" y="41.472"/>
  </clipPath>
 </defs>
</svg>
